<svg xmlns="http://www.w3.org/2000/svg" xmlns:xlink="http://www.w3.org/1999/xlink" viewBox="0 0 64 64"><defs><style>.cls-1{isolation:isolate;}.cls-2{opacity:0.2;fill:url(#Dégradé_sans_nom_8);}.cls-3{fill:#a1173b;}.cls-4{fill:#f39c6c;}.cls-5{opacity:0.8;mix-blend-mode:multiply;}.cls-6{opacity:0.9;}.cls-7{fill:#fce0cf;}.cls-8{fill:#fdebe0;}.cls-9{fill:#f8c09d;}.cls-10{fill:#f7b58d;}.cls-11{fill:#fbd5bc;}.cls-12{fill:#facbad;}.cls-13{fill:#f5a97e;}</style><radialGradient id="Dégradé_sans_nom_8" cx="-220.49" cy="50.78" r="17.92" gradientTransform="translate(258.83 45.7) scale(1.01 0.1)" gradientUnits="userSpaceOnUse"><stop offset="0" stop-color="#1d1d1b"/><stop offset="1" stop-color="#1d1d1b" stop-opacity="0"/></radialGradient></defs><title>LOGO SVG 64</title><g class="cls-1"><g id="Calque_1" data-name="Calque 1"><ellipse class="cls-2" cx="36.55" cy="50.78" rx="25.45" ry="2.22"/><path class="cls-3" d="M14.8,17.32l12.58,5.22L16.07,15q-.39.6-.72,1.23C15.15,16.57,15,17,14.8,17.32Z"/><path class="cls-3" d="M17.07,23.74h9.82l-9.6-1.91-.09.51C17.14,22.8,17.09,23.27,17.07,23.74Z"/><path class="cls-3" d="M14.83,13.36,27.8,22l-11-11a18.47,18.47,0,0,0-1.71,2A3.71,3.71,0,0,0,14.83,13.36Z"/><path class="cls-3" d="M15.47,20.81l11.61,2.3L16.17,18.59a14.9,14.9,0,0,0-.57,1.71C15.55,20.47,15.51,20.64,15.47,20.81Z"/><rect class="cls-4" x="33.48" y="41.47" width="6.85" height="0.92" rx="0.46" ry="0.46"/><path class="cls-3" d="M49.85,36.18a6.94,6.94,0,1,1-7,6.94,7,7,0,0,1,7-6.94m0-.62a7.56,7.56,0,1,0,7.55,7.56,7.56,7.56,0,0,0-7.55-7.56Z"/><path class="cls-4" d="M49.85,35.88a7.24,7.24,0,1,0,7.24,7.24A7.24,7.24,0,0,0,49.85,35.88Zm6.61,6.94H51.4l4.68-1.94A6.55,6.55,0,0,1,56.46,42.82Zm-.62-2.51-4.68,1.94,3.59-3.59A6.75,6.75,0,0,1,55.84,40.31Zm-1.53-2.08-3.58,3.58,1.94-4.68A6.46,6.46,0,0,1,54.31,38.23ZM50.16,36.5a6.56,6.56,0,0,1,1.94.39l-1.94,4.69Zm-.62,0v5.08L47.6,36.89A6.56,6.56,0,0,1,49.54,36.5ZM47,37.12,49,41.81l-3.59-3.59A6.83,6.83,0,0,1,47,37.12ZM45,38.66l3.59,3.59-4.69-1.94A6.89,6.89,0,0,1,45,38.66Zm-1.34,2.21,4.7,2H43.23A6.62,6.62,0,0,1,43.61,40.87Zm-.38,2.56h5.08l-4.69,1.94A6.56,6.56,0,0,1,43.23,43.43Zm.62,2.51L48.54,44,45,47.58A6.58,6.58,0,0,1,43.85,45.94ZM45.39,48,49,44.44,47,49.12A6.89,6.89,0,0,1,45.39,48Zm4.15,1.72a6.63,6.63,0,0,1-1.94-.39l1.94-4.68Zm-1-6.62a1.27,1.27,0,1,1,1.27,1.27A1.27,1.27,0,0,1,48.58,43.12Zm1.58,6.62V44.67l1.94,4.68A6.89,6.89,0,0,1,50.16,49.74Zm2.5-.63-1.93-4.67L54.31,48A6.34,6.34,0,0,1,52.66,49.11Zm2.08-1.53L51.16,44l4.68,1.94A6.73,6.73,0,0,1,54.74,47.58Zm1.34-2.21L51.4,43.43h5.06A6.55,6.55,0,0,1,56.08,45.37Z"/><path class="cls-3" d="M50.63,43.12a.78.78,0,1,1-.78-.78A.78.78,0,0,1,50.63,43.12Z"/><path class="cls-3" d="M21.05,31.34A9.94,9.94,0,1,0,31,41.28,9.95,9.95,0,0,0,21.05,31.34Zm0,19.27a9.32,9.32,0,1,1,6.59-2.73A9.28,9.28,0,0,1,21.05,50.61Z"/><path class="cls-4" d="M21.05,31.76a9.53,9.53,0,1,0,9.52,9.52A9.53,9.53,0,0,0,21.05,31.76Zm6.08,16a8.78,8.78,0,0,1-2.39,1.6L22,42.67a1.45,1.45,0,0,1-.57.24l2.79,6.72a8.94,8.94,0,0,1-2.82.55V42.92a1.63,1.63,0,0,1-.31,0,1.39,1.39,0,0,1-.3,0v7.26a8.89,8.89,0,0,1-2.82-.55l2.78-6.72a1.67,1.67,0,0,1-.57-.23L17.36,49.4A9,9,0,0,1,15,47.8l5.14-5.14a1.47,1.47,0,0,1-.43-.43l-5.14,5.13A8.58,8.58,0,0,1,12.94,45l6.71-2.78a1.59,1.59,0,0,1-.23-.57L12.7,44.41a9.18,9.18,0,0,1-.56-2.82h7.27a1.55,1.55,0,0,1,0-.31,1.53,1.53,0,0,1,0-.3H12.14a8.63,8.63,0,0,1,.56-2.82l6.71,2.78a1.81,1.81,0,0,1,.24-.57l-6.72-2.78a9.26,9.26,0,0,1,1.6-2.39l5.14,5.14a1.8,1.8,0,0,1,.43-.44L15,34.77a8.63,8.63,0,0,1,2.39-1.6l2.78,6.71a1.59,1.59,0,0,1,.57-.23l-2.79-6.72a9,9,0,0,1,2.83-.55v7.26a1.39,1.39,0,0,1,.3,0,1.63,1.63,0,0,1,.31,0V32.38a8.89,8.89,0,0,1,2.82.55L21.4,39.65a1.4,1.4,0,0,1,.56.24l2.79-6.72a9,9,0,0,1,2.38,1.6L22,39.91a1.64,1.64,0,0,1,.43.44h0l5.14-5.14a8.93,8.93,0,0,1,1.59,2.38l-6.71,2.79a1.59,1.59,0,0,1,.23.57l6.72-2.79A8.89,8.89,0,0,1,30,41H22.69a1.51,1.51,0,0,1,0,.3,1.56,1.56,0,0,1,0,.31H30a8.63,8.63,0,0,1-.56,2.82l-6.71-2.78a1.64,1.64,0,0,1-.24.56L29.16,45a9,9,0,0,1-1.6,2.38l-5.14-5.14a1.63,1.63,0,0,1-.43.44Z"/><path class="cls-3" d="M22.08,41.28a1,1,0,1,1-1-1A1,1,0,0,1,22.08,41.28Z"/><path class="cls-4" d="M59.69,33.54H58.17a.65.65,0,0,0-.36.1,12,12,0,0,1-1.65.81,1.07,1.07,0,0,1-.94-.08,9.37,9.37,0,0,0-1.68-.83c-.22-.09-.43-.16-.65-.23a10.78,10.78,0,0,0-2.29-.43,0,0,0,0,1-.05-.05V27.15l0,0a10.65,10.65,0,0,0-3-1.09h-.07a10.35,10.35,0,0,0-1.23-.16l-.27,0h-.42v0H44.41a0,0,0,0,1,0-.05A11.47,11.47,0,0,0,44.71,23a11.67,11.67,0,0,0-.15-1.89s0,0-.05,0h-.32s0,0,0,0a8.7,8.7,0,0,0-.22,6.4.86.86,0,0,0,.81.57h2.63s0,0,0,0v5a0,0,0,0,1,0,0l-.51.14c-.25.08-.51.16-.75.26a10.3,10.3,0,0,0-2.74,1.56A10.5,10.5,0,0,0,41,37.76,9.59,9.59,0,0,0,40.34,39l0,0H33.65V27.89a0,0,0,0,0,0,0,10.63,10.63,0,0,0-3.18-3.29h-11a.05.05,0,0,0-.05.06A10.71,10.71,0,0,0,20.63,28l.11.18s0,0,0,0H21a12.53,12.53,0,0,1,2.3.21,12.76,12.76,0,0,1,4.86,2,0,0,0,0,1,0,0v1.09a0,0,0,0,1-.07,0,11.91,11.91,0,0,0-4.08-2,11.65,11.65,0,0,0-2.6-.38h-.47a12.25,12.25,0,0,0-2.2.21l-.29.06a11.93,11.93,0,0,0-1.7.51l-.13.05a10.93,10.93,0,0,0-1.25.58c-.25.13-.49.28-.73.43l-.62.41-.41.32a.88.88,0,0,0-.08,1.3.22.22,0,0,0,.3,0h0A11,11,0,0,1,15.27,32c.24-.15.49-.29.74-.42a10,10,0,0,1,1-.48,3,3,0,0,1,.36-.13A10,10,0,0,1,19,30.54l.27-.05a10.66,10.66,0,0,1,1.71-.14h0a11,11,0,0,1,1.53.11,10.71,10.71,0,0,1,5.65,2.66l.07.06.22.21.15.15a10,10,0,0,1,.95,1.1,10.78,10.78,0,0,1,1,1.59,10.6,10.6,0,0,1,.59,1.38.08.08,0,0,0,0,0,10.39,10.39,0,0,1,.53,2.69h0l.09.45s0,0,.05,0h9.54a.05.05,0,0,0,0,0,7.71,7.71,0,0,1,.53-1.41l.08-.15a1.62,1.62,0,0,1,.1-.18,8.77,8.77,0,0,1,2.41-2.83,8.59,8.59,0,0,1,2.9-1.45l.07,0a8.24,8.24,0,0,1,1.22-.25c.22,0,.44,0,.67-.06h1l.17,0h0a9,9,0,0,1,2.34.52l.33.13h0c.3,0,.61,0,.92.05h.18c.28,0,.55,0,.83-.05h.05c.27,0,.54-.06.8-.11l.13,0,.14,0a10.62,10.62,0,0,0,3.45-1.33A0,0,0,0,0,59.69,33.54Z"/><rect class="cls-4" x="53.82" y="35.56" width="8.18" height="1.07" rx="0.54" ry="0.54"/><g class="cls-5"><g class="cls-6"><g class="cls-6"><path class="cls-7" d="M5.11,52.71c.1,0,.14-.17.26-.12l0,.22V53a.33.33,0,0,1-.22,0A.22.22,0,0,1,5.11,52.71Z"/><path class="cls-7" d="M2.25,50.45l-.06-.67c0-.14,0-.29,0-.43v-.11c0-.21,0-.41,0-.61V48.2l0-.06c0-.14,0-.28,0-.42a.36.36,0,0,1,.08-.12c0-.08-.08-.17-.13-.25v-.42H2.17c0-.35,0-.69,0-1,0-.56,0-1.13.05-1.7h.14v-.37H2.18c0-.32,0-.65,0-1v-.37c.17-.33,0-.25,0-.36s.09-.28.14-.43v-.17l.09-.37c0-.75.06-1.22.07-1.87,0-.41-.11-1.23.17-1.5A1.8,1.8,0,0,1,2.55,37c.14,0,.08-.19.14-.3v-.6l0-.37,0-1.21c0-.14.05-.28.06-.42a3.22,3.22,0,0,0,0-.43c0-.14,0-.28,0-.42s0-.3-.07-.44v-.06c0-.18,0-.37,0-.55s0-.42,0-.63l.09-.37c-.15-.19-.07-.46,0-.71,0-.06,0-.12,0-.2a.64.64,0,0,0,0-.07v0s0,0,0,0l0-.06V30A.22.22,0,0,1,3,30v0l0,0,.06-.07.06-.07,0,0,0,0,0,0,.06-.05.13-.1a4.45,4.45,0,0,1,.48-.35l.24-.34a1.54,1.54,0,0,1,.13.12l.1-.06,0,0,0,0,.13-.1a1.71,1.71,0,0,0,.25-.22l-.2-.18c0-.15-.07-.27-.08-.32s0,0,0-.05l0,0,0-.09c.15-.17.25-.3.12-.4l0-.61c.11-.37.09-.64,0-.63v-.27c0-.11,0-.21,0-.33s0-.24,0-.36A1.22,1.22,0,0,0,4.76,25a.54.54,0,0,0,0-.18,1.36,1.36,0,0,0-.07-.18l.07-.34c0-.11.06-.22.09-.33a4.88,4.88,0,0,1,.32-.81,1.4,1.4,0,0,0,.18-.37.64.64,0,0,1,.09-.28,4.12,4.12,0,0,1,.37-.35l.1-.12A.45.45,0,0,1,6,21.7a1.6,1.6,0,0,1,.26-.22l.12-.1a.27.27,0,0,1,.1-.25A1,1,0,0,1,6.73,21c0-.08,0-.16,0-.25l.29-.14.29-.14.41-.23L7.82,20l.24-.07.23-.05.42-.13.1,0,.1,0,.2-.05c.06.09.1.19.15.28a3.55,3.55,0,0,0-.31.23l-.07,0a1.5,1.5,0,0,0-.23-.2,3.32,3.32,0,0,0-.41.17c-.16.18-.4.25-.5.4a2.64,2.64,0,0,0-.45.15l-.21.17-.2.18c-.06.08-.14.17-.2.26,0,.27-.17.37-.29.51l.09.1L6.37,22l-.24.24-.24.26a.56.56,0,0,0-.15.33,1.45,1.45,0,0,0,0,.25,2,2,0,0,0-.09.22c0,.08-.06.15-.08.22l-.16.26,0,.19-.12.33-.09.33c0,.11,0,.21-.07.32l-.06.31.16.3,0,.12,0,.13,0,.25c0,.09,0,.17,0,.25l0,.23v.18h.09l0,.25c0,.08,0,.16,0,.23H5.17c0,.14,0,.18,0,.23s.07.09.07.16,0,.1,0,.15l0,.15a.28.28,0,0,0,.26-.11.18.18,0,0,0,0-.22v-.1a.63.63,0,0,0,.11-.12l.11-.15a.64.64,0,0,1,.12.29.69.69,0,0,1,0,.25L5.71,28a.85.85,0,0,0,0,.23.77.77,0,0,0,0,.42.39.39,0,0,1,0,.18.27.27,0,0,1-.07.08L5.41,29c-.29.15-.43.27-.38.42l-.21.14-.22.15-.46.3c-.16-.08-.2.11-.34.18a.83.83,0,0,1-.07.13l0,0h0a.08.08,0,0,0,0,0s0,0,0,.05v0c0,.1,0,.19,0,.27l-.09.5a1.56,1.56,0,0,0,0,1c-.15.29,0,.45,0,.74s0,.39-.08.59c.27.34-.2.65-.09,1.08,0,.19,0,.36-.06.54s.19.63,0,.67c0,.23-.23.28-.15.59s0,.82.14,1c-.16.42.13,1.23-.11,1.68a4.86,4.86,0,0,1,.06,1.45v.31c-.1,0-.08.14-.08.23s0,.2,0,.25,0,.17-.14.35H3c0-.1-.11-.19-.17-.31a3.68,3.68,0,0,0-.23.42l.14.07a2.58,2.58,0,0,0,.13.31l-.18.23c-.11.31.17.16.22.37l-.23.53c.06.41-.14.73,0,1.09a2.39,2.39,0,0,1-.22.12c0,.12,0,.24,0,.36s0,.4,0,.61.19.47,0,.47v.61l.22.37c.17-.08.27.18.22.37l-.17.11.08.25a1.83,1.83,0,0,1-.13.24v.61a1.64,1.64,0,0,0,.13.48H3l.18.24a3.4,3.4,0,0,1-.08.86c-.08.4-.31.25-.44.3v.3l-.27.18C2.26,51,2.24,50.69,2.25,50.45Z"/><path class="cls-7" d="M5.65,48.74c-.11-.24-.07-.36,0-.47C5.8,48.47,5.9,48.75,5.65,48.74Z"/><path class="cls-8" d="M4.62,47.52a1.4,1.4,0,0,1-.13-.18c.06-.47-.14-.88,0-1.38-.32-.19-.36.16-.54,0s0-.23-.13-.35h0a.74.74,0,0,0-.39-.13l-.09-.43c.09-.11.17-.24.27-.35.21.07.08.36.26.36l.08.26a2.12,2.12,0,0,0,.19-1.09L4.27,44l.18.13a2.4,2.4,0,0,0,0,.24c0,.24,0,.48,0,.71a2.72,2.72,0,0,0,0,.31l.27.13.14.36a3.15,3.15,0,0,0-.09.42,1,1,0,0,0,.09.49v.11c0,.2-.07.41-.09.6Z"/><path class="cls-9" d="M5.19,50.89q-.08-.41-.15-.84L5,49.39v-.11l.26-.18c0-.28-.2-.14-.27-.31s0-.44-.05-.66,0-.19.05-.3l.26-.17c0-.29,0-.63-.22-.73v-.11a1,1,0,0,1-.09-.49A3.15,3.15,0,0,1,5,45.91l-.14-.36v-.43a.21.21,0,0,0-.3,0c0-.23,0-.47,0-.71h.45c.3-.45,0-1,.14-1.62s-.1-1.2.11-1.74c.15,1,0,1.89.2,2.59h0c0,.42-.1.88,0,1.38.06.28.16.52,0,.6v.3a.56.56,0,0,1,0,.12c0,.15,0,.28,0,.42h.22a1.37,1.37,0,0,0,.22.54v1.26c-.11.11-.15.23,0,.47-.06.85-.13,1.68-.18,2.51Z"/><path class="cls-10" d="M5.68,47a1.37,1.37,0,0,1-.22-.54H5.24c0-.14,0-.27,0-.42a.56.56,0,0,0,0-.12v-.3c.21-.08.11-.32,0-.6,0-.5.1-1,0-1.38h0c-.17-.7,0-1.64-.2-2.59-.21.54,0,1.09-.11,1.74s.16,1.17-.14,1.62H4.49a2.4,2.4,0,0,1,0-.24l.13-.3c0-.19-.13-.07-.18-.19V42.16a2,2,0,0,1,0-.66c0-.11.06-.24.09-.35.14-.31.16-.45.1-.55s.09-.23.14-.34A2.67,2.67,0,0,0,4.62,40c0-.13.07-.27.1-.41s-.09-.33-.12-.49,0-.31,0-.47v-.3c.27-.17-.12-.24,0-.6l-.08-.07c-.16-.24,0-.54-.07-.72l.15-.35c0-.13,0-.24,0-.36l-.06-.55v-.06c0-.22,0-.43.07-.66,0-.39-.1-.43-.16-.66a.83.83,0,0,0,0-.55,1.61,1.61,0,0,0,.11-.52c0-.27,0-.56.05-.83,0-.07-.12-.14-.11-.24V32c0-.11,0-.23.08-.35s.18-.39.1-.59,0-.1,0-.14a.3.3,0,0,1,0-.09h0l-.2-.05-.19-.06-.17,0-.14-.05-.07,0s0,0-.06,0l-.09,0,0,0h0l.73.81h0l0,0A1.81,1.81,0,0,1,4.84,31l.25-.22.21-.17.26-.21a2,2,0,0,0,.64-.51l.35-.51a1.08,1.08,0,0,0,.08-.19L6.7,29a2.79,2.79,0,0,0,.1-.39A2.75,2.75,0,0,0,6.91,28c.07-.08,0-.29.07-.45s0-.2.06-.29a1.13,1.13,0,0,0,0-.25,1.82,1.82,0,0,0,0-.4A1.76,1.76,0,0,0,6.94,26l0-.3c0-.09,0-.19,0-.28a3.11,3.11,0,0,1,0-.32A1,1,0,0,0,7,24.94a.22.22,0,0,0,0-.1.7.7,0,0,0,0-.14l-.08,0L7,24.46l.08-.21a.64.64,0,0,1,0-.07c.06-.07.11-.17.18-.24s0-.08,0-.11l.09-.17,0-.08.05-.08.17-.13c.06-.08.11-.17.18-.26a4.83,4.83,0,0,1,.49-.41,2.11,2.11,0,0,0-.16.36.48.48,0,0,1-.09.11.26.26,0,0,1-.14,0,2.07,2.07,0,0,0-.19.25c0,.05,0,.1,0,.15l-.08.13c0,.08-.12.15-.18.23l.14.18-.08.17c.17.11.09.2.06.29l.11.13v.13a.76.76,0,0,1,0,.15c-.07.07-.23.11-.21.24s.26,0,.38.06a.27.27,0,0,1,.14.08l0,.08v.13a2.85,2.85,0,0,0,0,.66,3,3,0,0,1,0,.84l.07.14L8,27.4a.92.92,0,0,1,0,.19,1.81,1.81,0,0,1,0,.29c-.11,0-.12.22-.16.37a1.67,1.67,0,0,0,0,.29,1.92,1.92,0,0,0,0,.22,1.06,1.06,0,0,1,0,.23,1.23,1.23,0,0,1-.12.28l-.13.15c0,.34,0,.35-.08.55a2.06,2.06,0,0,0,.21-.21l.09-.15c0-.09.06-.15.1-.23l.07-.17a4,4,0,0,0,.29-.54,5.71,5.71,0,0,1-.21.58l.19.34c-.05.11-.11.2-.16.3a3.09,3.09,0,0,1-1,.81l-.16.14a5,5,0,0,1-.4.54l-.18.08a3.52,3.52,0,0,0-.32.29l-.3.17s0,0,0,.07l-.11.06-.08.05a.32.32,0,0,1-.14,0l-.17-.2h0L3.85,30.48h0l0,0,0,0,.06,0,.07,0,.11,0,.13.05.11,0,.09,0,.34.09.4.1.21,0,.15,0h0a.16.16,0,0,1,0,.08,1.67,1.67,0,0,1,.11.23l.08,0c0,.19-.07.41-.1.62s.07.23.1.35-.08.41-.13.63a1.41,1.41,0,0,1,0,1c0,.22,0,.43-.07.65v.17c0,.09,0,.17,0,.25s-.06.19-.09.3a.7.7,0,0,0,.21.24c0,.18,0,.36-.06.54l0,1.85c0,.2.16.33.17.55v.12l-.14.34,0,.84c0,.19,0,.36,0,.55v.24L5.73,45c-.23.32-.05.27,0,.37l-.08,1.07Z"/><path class="cls-7" d="M4.57,45.42a2.72,2.72,0,0,1,0-.31.21.21,0,0,1,.3,0v.43Z"/><path class="cls-11" d="M2.85,49.06a1.64,1.64,0,0,1-.13-.48V48l-.09-.06a1.74,1.74,0,0,1,.22-.18l-.08-.25.17-.11c0-.19-.05-.45-.22-.37l-.22-.37V46c.19,0,.14-.36,0-.47s0-.41,0-.61,0-.24,0-.36a2.39,2.39,0,0,0,.22-.12c-.13-.36.07-.68,0-1.09L3,42.84c-.05-.21-.33-.06-.22-.37l.18-.23a2.58,2.58,0,0,1-.13-.31l-.14-.07s0-.08,0-.13a3.84,3.84,0,0,0,.27-.29,2.44,2.44,0,0,0,.22.31c.17-.18.21-.36.14-.35s0-.16,0-.25,0-.25.08-.23v-.31a4.86,4.86,0,0,0-.06-1.45c.24-.45-.05-1.26.11-1.68-.15-.22,0-.69-.14-1s.16-.36.15-.59c.17,0,0-.42,0-.67s0-.35.06-.54c-.11-.43.36-.74.09-1.08,0-.2.06-.39.08-.59s-.15-.45,0-.74a1.56,1.56,0,0,1,0-1l.09-.5c0-.08,0-.17,0-.27v0s0,0,0-.05a.08.08,0,0,1,0,0h0l0,0a.83.83,0,0,0,.07-.13c.14-.07.18-.26.34-.18l.46-.3.22-.15L5,29.39c0-.15.09-.27.38-.42l.13-.06a.27.27,0,0,0,.07-.08.39.39,0,0,0,0-.18.77.77,0,0,1,0-.42.85.85,0,0,1,0-.23l.06-.23a.69.69,0,0,0,0-.25.64.64,0,0,0-.12-.29l-.11.15a.63.63,0,0,1-.11.12v.1a.18.18,0,0,1,0,.22.28.28,0,0,1-.26.11l0-.15c0-.05,0-.1,0-.15l0-.19c0-.05,0-.13,0-.2h.09c0-.07,0-.15,0-.23l0-.25H5.24v-.18a2,2,0,0,1,0-.35V26.1l0-.25,0-.13,0-.12a.87.87,0,0,0-.17-.16.57.57,0,0,0,0-.14L5.2,25c0-.11,0-.21.07-.32l.09-.33L5.48,24l0-.19.16-.26.11.06c.1-.06.19-.13.29-.18a1.5,1.5,0,0,0,.07.27.45.45,0,0,0,0,.16A1,1,0,0,0,6,24v.16l0,.17v.15l0,.16c0,.05,0,.1,0,.15a.71.71,0,0,1,0,.14.32.32,0,0,0-.13.26v.18a2.32,2.32,0,0,1,0,.24h.09c0,.32,0,.65.08,1s.11.15.17.26l0,.3a6.19,6.19,0,0,1,.15.86A3.25,3.25,0,0,1,6,29a3.37,3.37,0,0,1-.73.73l-.21.15-.19.14-.38.27c-.11.09-.23.19-.33.29l-.08.07h0l-.21-.23h0l0,0,.06,0,.07,0,.08,0h0s0,.11,0,.18a1,1,0,0,1-.13.32.66.66,0,0,0,0,.48c0,.13,0,.28,0,.42-.14.49-.1.79-.25,1,.05.34.22.25.21.36l0,.25a.77.77,0,0,0,0,.54c-.12.33,0,.38,0,.48v.06l0,.73v.17c0,.18-.1.36-.14.53v1h0c-.12.63,0,1.48-.14,2a3.21,3.21,0,0,1,0,1c-.16.08-.06.31-.14.47s0,.24,0,.37c0,.4.06.93-.16,1.2a6.09,6.09,0,0,1,.17.61l-.13.12v.3s-.15-.06-.18,0a.89.89,0,0,0,.27.62c0,.12-.07.24-.1.36s0,.2,0,.3l.18.19c-.1.11-.18.24-.27.35l.09.43c0,.14,0,.29,0,.43v.6l-.14.24c0,.3.17.6,0,.9s0,.57,0,.84-.16.34-.21.54Z"/><path class="cls-12" d="M3.82,45.09c0-.1,0-.18.05-.3s-.09-.23-.18-.3,0-.24,0-.35-.12-.17-.17-.26H3.43a.89.89,0,0,1-.27-.62c0-.1.13,0,.18,0v-.3l.13-.12a6.09,6.09,0,0,0-.17-.61c.22-.27.11-.8.16-1.2,0-.13,0-.24,0-.37s0-.39.14-.47a3.21,3.21,0,0,0,0-1c.12-.5,0-1.35.14-2h0v-1c0-.17.09-.35.14-.53v-.17l0-.73v-.06c0-.1-.1-.15,0-.48a.77.77,0,0,1,0-.54l0-.25c0-.11-.16,0-.21-.36.15-.22.11-.52.25-1,0-.14,0-.29,0-.42a.66.66,0,0,1,0-.48,1,1,0,0,0,.13-.32c0-.07,0-.15,0-.18h0l-.08,0-.07,0-.06,0,0,0h0l.21.23h0l.08-.07c.1-.1.22-.2.33-.29l.38-.27.19-.14.21-.15A3.37,3.37,0,0,0,6,29a3.25,3.25,0,0,0,.45-1,6.19,6.19,0,0,0-.15-.86l0-.3c-.06-.11-.24-.05-.17-.26s-.06-.65-.08-1H6a2.32,2.32,0,0,0,0-.24v-.18A.32.32,0,0,1,6.12,25a.71.71,0,0,0,0-.14s0-.1,0-.15l0-.16v-.15l0-.17V24a1,1,0,0,1,0-.17.45.45,0,0,1,0-.16A1.5,1.5,0,0,1,6,23.44c-.1,0-.19.12-.29.18l-.11-.06c0-.07,0-.14.08-.22a2,2,0,0,1,.09-.22,1.45,1.45,0,0,1,0-.25.56.56,0,0,1,.15-.33l.24-.26L6.37,22l.11-.11a2.86,2.86,0,0,1,.3-.22L7,21.44l.23-.25a2.33,2.33,0,0,1,.58-.47,7.09,7.09,0,0,1,1.07-.53l.07,0,0,.13-.38.24s-.18.16-.08.22a1,1,0,0,1,.56-.1h.22a.67.67,0,0,0,.24-.08l.26-.11.68.09c-.28.08-.54.16-.81.26L9.26,21l-.43.18-.43.17L8,21.49a.34.34,0,0,0-.17.13.55.55,0,0,0-.08.15.44.44,0,0,1-.18.27A10.81,10.81,0,0,0,7,23.1c0,.08,0,.18.06.27a2.12,2.12,0,0,0-.18.37l0,0c-.07,0-.13.1-.2.15a1.71,1.71,0,0,0-.2.18c.07.1.15.18.22.27l.13-.13.12-.12.12.05a.64.64,0,0,0,0,.07L7,24.46l-.07.21-.06.18a.94.94,0,0,0,0,.09l0,.09a.37.37,0,0,1,.12.07,3.11,3.11,0,0,0,0,.32c0,.09,0,.19,0,.28l0,.3a1.76,1.76,0,0,1,.14.58,1.82,1.82,0,0,1,0,.4,1.13,1.13,0,0,1,0,.25c0,.09,0,.18-.06.29s0,.37-.07.45a2.75,2.75,0,0,1-.11.68l-.08.17,0,.09,0,.08a2.17,2.17,0,0,1-.23.3,3.28,3.28,0,0,1-.91,1l-.09.05-.08,0-.15.07c-.17,0-.17.18-.27.26a4.67,4.67,0,0,0-.44.31l0,0h0l-.55-.61h0l0,0,0,0,0,0,.05,0,.26.1.16.05.09,0H4.6v0c0,.06,0,.15,0,.25,0,.3,0,.63,0,1h0v.12a2.91,2.91,0,0,1-.12.35,2.71,2.71,0,0,0,0,.7l-.1.12.12.42-.06.3c0,.09.13.14.12.25s-.07.19-.1.3a.61.61,0,0,0,0,.3c0,.19,0,.4-.07.6v.35h.08c0,.13,0,.25,0,.37h0c0,.13,0,.24,0,.37v.36c0,.18-.09.48.07.72l-.15.42c.08.15,0,.39.08.54l-.18.23a2.6,2.6,0,0,0,.13.24c0,.19,0,.37-.06.55h0v1H4.35a1.82,1.82,0,0,1-.17-1H4.1c-.14.53,0,1-.16,1.2a5.52,5.52,0,0,0,0,1.81l-.18.23,0,.18c0,.12,0,.23-.05.36H4l.31.43.13-.18c0,.12.2,0,.18.19l-.13.3L4.27,44l-.18.23a2.12,2.12,0,0,1-.19,1.09Z"/><path class="cls-7" d="M3.38,44.54c0-.1,0-.2,0-.3s.06-.24.1-.36h.13c0,.09.12.17.17.26s0,.23,0,.35l-.13.24Z"/><path class="cls-7" d="M8.71,26.54a2.17,2.17,0,0,0,0-.25l0-.34c0-.1,0-.22,0-.3h.13q0-.19,0-.33l.1,0a.23.23,0,0,1,.09.07.08.08,0,0,1,0,0,.07.07,0,0,1,0,.05.09.09,0,0,1,0,.05s0,0,0,.06a.44.44,0,0,1-.08.11l.13,0q0,.34-.06.84L9,27l0,.22v.23a1.26,1.26,0,0,0-.28.05c0-.19,0-.33,0-.49s0-.14,0-.21A1.48,1.48,0,0,0,8.71,26.54Z"/><path class="cls-9" d="M10.67,19.9c-.08-.19.16-.23.37-.26s.41-.09.26-.34c0-.08-.05-.15-.08-.22V18.9l.42,0,.12-.19.55-.2c.2.22.19.31.19.4l-.33.1a1.73,1.73,0,0,1,.07.31v.26h.45c0,.05,0,.09.05.14a2.42,2.42,0,0,1,.12.35l-.62.06h-.07v-.22L12,19.78l-.51.22a3.53,3.53,0,0,1,.15.39v0a1,1,0,0,1-.06.23.82.82,0,0,1,.2.12l.06.26v.05l-.34.11a.4.4,0,0,1-.38-.27l0-.23L11,20.57l.17-.24s-.05-.11-.07-.17a.93.93,0,0,0,.05-.1Z"/><path class="cls-7" d="M11.4,18.48l.35.2-.12.19-.42,0-.16-.17Z"/><path class="cls-7" d="M13.62,20.7c-.07-.15-.14-.3-.22-.45v-.08l.07-.14c0-.18,0-.38,0-.57s-.21-.32,0-.32h.19v.26c.13.21.45.36.09.58.28.24.42.6,0,.71-.07.17-.14.33-.2.49h-.19l-.11-.09C13.37,21,13.5,20.84,13.62,20.7Z"/><path class="cls-8" d="M2.69,50.46c.13-.05.36.1.44-.3l.06.6c-.11.21-.43.29-.49,0Z"/><path class="cls-8" d="M5,50.89l-.28-.11c-.3-.63.2-.29.08-.73v-.3L5,49.39l.09.66q.08.44.15.84Z"/><path class="cls-8" d="M4.94,48.79c-.17-.18-.48,0-.36-.42.08-.17.21-.16.31-.24C4.91,48.35,4.92,48.58,4.94,48.79Z"/><path class="cls-8" d="M2,48a.39.39,0,0,1,.09-.3v-.37c0-.12,0-.24,0-.37l.13,0h.05v.42c0,.08.09.17.13.25a.36.36,0,0,0-.08.12c0,.14,0,.28,0,.42l0,.06C2.18,48.14,2.09,48.07,2,48Z"/><path class="cls-8" d="M4,47.81c-.15-.39-.13-.64,0-.72C4.08,47.47,4.11,47.69,4,47.81Z"/><path class="cls-8" d="M5.65,46.47l.08-1.07.09-.13c0-.07-.05-.16-.09-.24l.09-4.49.26.12a2.52,2.52,0,0,0,0,1.2c-.09.41.14.77.12,1.2-.07,0-.17,0-.22.06,0,.42.44.81.09,1.14,0,.19.08.36.12.55s0,.27-.09.41a.62.62,0,0,1-.09.12c0,.14,0,.28,0,.41s.24.58,0,.66a.78.78,0,0,1,.09.37c-.13-.05-.17.16-.36.23Z"/><path class="cls-8" d="M2.18,44.2v-.36h.14v.37Z"/><path class="cls-8" d="M2.14,42.88c-.12-.2-.16-.35,0-.37Z"/><path class="cls-8" d="M2.29,41.55a5.8,5.8,0,0,1-.06-2.06,11.87,11.87,0,0,1,0-2.73c.09-.06,0-.2.06-.3s0,0,0-.07c-.08-1.28.16-2.43,0-3.66.09-.1.06-.28.08-.42a2.36,2.36,0,0,1,0-.85c0-.16,0-.32.06-.49l0-.27c0-.09,0-.18,0-.3a.71.71,0,0,1,0-.16,1,1,0,0,1,.08-.32l0-.07.06-.11,0,0,0-.07.15-.19.07-.06h0l0,0,.14-.11a3.21,3.21,0,0,0,.49-.39A2.55,2.55,0,0,0,4,28.56l.08-.07,0,0,0,0,.08-.09a.87.87,0,0,1,.35-.3c0,.05.13.17.08.32l.2.18a1.71,1.71,0,0,1-.25.22l-.13.1,0,0,0,0-.1.06a1.54,1.54,0,0,0-.13-.12l-.24.34a4.45,4.45,0,0,0-.48.35l-.13.1-.06.05,0,0,0,0,0,0-.06.07L3,29.91l0,0v0A.22.22,0,0,0,3,30v.06l0,.06s0,0,0,0v0a.64.64,0,0,1,0,.07c0,.08,0,.14,0,.2-.09.25-.17.52,0,.71l-.09.37c0,.21,0,.42,0,.63s0,.37,0,.55v.06c0,.14,0,.29.07.44s0,.28,0,.42a3.22,3.22,0,0,1,0,.43c0,.14,0,.28-.06.42l0,1.21,0,.37v.6c-.06.11,0,.32-.14.3a1.8,1.8,0,0,0,.07.79c-.28.27-.2,1.09-.17,1.5,0,.65-.08,1.12-.07,1.87Z"/><path class="cls-8" d="M5.78,39.75l0-.84.14-.34c.23.12,0,.48.21.6s0,.41-.1.59v.43c-.06,0-.09.07-.22.11C5.81,40.11,5.8,39.94,5.78,39.75Z"/><path class="cls-8" d="M5.74,36.05c0-.18,0-.36.06-.54l.09-.18c-.07-.3-.24-.18-.21-.36s0-.16,0-.25v-.17c0-.22,0-.43.07-.65a1.41,1.41,0,0,0,0-1c0-.22.09-.43.13-.63s-.07-.23-.1-.35.07-.43.1-.62,0-.18,0-.21h0L5.64,31,5.38,31l-.23-.05-.24-.05-.2-.05-.2-.06-.09,0-.08,0-.16-.06-.13-.05L4,30.55s0,0-.05,0l0,0h0L5.3,32.09h0a.32.32,0,0,0,.14,0l.08-.05L5.64,32s0,0,0-.07l.3-.17h.31l.09,0,.17,0c.25-.13.27-.3.52-.44s.23-.2.33-.31l.31-.33c.13-.17.27-.36.38-.53A.84.84,0,0,0,8,29.89c0-.1.11-.19.16-.3s.15-.27.23-.42l.2-.46a6,6,0,0,0,.1-.61l0-.3c0-.11,0-.2,0-.28v-.07A1.26,1.26,0,0,1,9,27.4c0,.08,0,.16,0,.27v.38a2.16,2.16,0,0,1-.18.66,3.07,3.07,0,0,1-.07.42c0,.07,0,.14-.05.21l-.06.2a2.38,2.38,0,0,1-.4.86l-.22.3L8,30.77,8,30.84,7.86,31a6,6,0,0,1-1.15.93l-.16.1-.14.08-.1.06-.1,0-.31.16-.05.08c-.12,0-.18,0-.22,0h0l-1.78-2h0v0l0,0,.06,0,.07,0,.18.07.22.08h.06l.07,0,.14,0,.28.07.31.08.16,0,.17,0L6,31.1l.17,0,.18,0h0l0,0,0,.07a.17.17,0,0,0,0,.14c0,.08,0,.17,0,.25s.2.09.16.28l-.2.2c0,.17-.24.48,0,.52a.88.88,0,0,0,0,.58c-.07.21,0,.25.07.53-.23,0-.23.09-.06.29a2.91,2.91,0,0,0-.1,1.29c0,.17-.11.42,0,.48a7.56,7.56,0,0,0,0,1.26c.24-.13.11.31.07.41-.27.2,0,.71-.28,1,0-.22-.16-.35-.17-.55Z"/><path class="cls-8" d="M4.62,27.85c0-.16,0-.35.12-.4C4.87,27.55,4.77,27.68,4.62,27.85Z"/><path class="cls-8" d="M4.71,26.84a.78.78,0,0,1,0-.63C4.8,26.2,4.82,26.47,4.71,26.84Z"/><path class="cls-8" d="M4.67,25.94a.87.87,0,0,1-.09-.36,1,1,0,0,1,0-.34v-.15c0-.05,0-.1,0-.15l0-.32a1.36,1.36,0,0,1,.07.18.54.54,0,0,1,0,.18,1.22,1.22,0,0,1-.06.27c0,.12,0,.24,0,.36S4.68,25.83,4.67,25.94Z"/><path class="cls-8" d="M4.85,24a.66.66,0,0,1,0-.14s0-.09,0-.13a1.55,1.55,0,0,1,.05-.23,1,1,0,0,1,.19-.35,3.42,3.42,0,0,1,.13-.34l.15-.33.09-.17.1-.16.11-.17.11-.16L6,21.5l.18-.27c.07-.08.13-.17.22-.27a2.29,2.29,0,0,1,.32-.28L7,20.43l.29-.24a.93.93,0,0,1,.26-.1A2,2,0,0,0,7.82,20l-.06.23-.41.23-.29.14-.29.14c0,.09,0,.17,0,.25a1,1,0,0,0-.21.13.27.27,0,0,0-.1.25l-.12.1A1.6,1.6,0,0,0,6,21.7a.45.45,0,0,0-.13.32l-.1.12a4.12,4.12,0,0,0-.37.35.64.64,0,0,0-.09.28,1.4,1.4,0,0,1-.18.37A4.88,4.88,0,0,0,4.85,24Z"/><path class="cls-8" d="M9.06,19.43c0-.17.08-.25.25-.29s.38-.06.53-.09c.22-.23.78-.21.78-.44.25-.07.26,0,.43.12l.16.17a9.41,9.41,0,0,0-.91.25l-.22,0H10l-.2.09-.37.06Z"/><path class="cls-8" d="M11.4,18.48c-.05-.1-.13-.21,0-.22s.16-.2.29-.28a.75.75,0,0,1,.28.18,2.2,2.2,0,0,0,.34.28l.13-.27c0,.15.19.18.34.2s.3,0,.31.1v.1a4.08,4.08,0,0,0,.37.3v.27c-.22,0-.09.18,0,.32s0,.39,0,.57l-.07.14L12.85,20a2.42,2.42,0,0,0-.12-.35c0-.05,0-.09-.05-.14l-.19-.26v-.4c0-.09,0-.18-.19-.4l-.55.2Z"/><path class="cls-8" d="M13.22,22c.07-.13.13-.2.24-.17s.24.21.22.35a.47.47,0,0,1-.46,0Z"/><path class="cls-11" d="M5,49.28c-.11-.11-.16-.48,0-.49.07.17.31,0,.27.31Z"/><path class="cls-11" d="M4.94,47.83c-.13,0-.08-.22-.05-.3s.05-.4.09-.6c.24.1.23.44.22.73Z"/><path class="cls-11" d="M6.37,22l-.24.24-.24.26a.56.56,0,0,0-.15.33,1.45,1.45,0,0,0,0,.25,1.45,1.45,0,0,1,0-.25.56.56,0,0,1,.15-.33l.24-.26Z"/><path class="cls-11" d="M6.39,21.83c.12-.14.32-.24.29-.51.06-.09.14-.18.2-.26l.2-.18.21-.17a2.64,2.64,0,0,1,.45-.15c.1-.15.34-.22.5-.4l.49-.2c0,.09.06.16.22.2l-.07,0a7.09,7.09,0,0,0-1.07.53,2.33,2.33,0,0,0-.58.47L7,21.44l-.22.27a2.86,2.86,0,0,0-.3.22Z"/><path class="cls-11" d="M11.21,18.9v.18l-.54.19c-.19.08-.25-.05-.38-.12A9.41,9.41,0,0,1,11.21,18.9Z"/><path class="cls-9" d="M5.37,52.48c-.3-.19-.16-.61-.21-.93l.31-.07C5.44,51.83,5.4,52.16,5.37,52.48Z"/><path class="cls-9" d="M5.73,45.4c-.05-.1-.23,0,0-.37,0,.08.06.17.09.24Z"/><path class="cls-9" d="M4.27,43.85,4,43.42H3.78c0-.13,0-.24.05-.36l0-.18L4,42.64a5.52,5.52,0,0,1,0-1.81c.14-.21,0-.67.16-1.2h.08a1.82,1.82,0,0,0,.17,1h.08v-1h0c0-.18,0-.36.06-.55a2.6,2.6,0,0,1-.13-.24l.18-.23c-.08-.15,0-.39-.08-.54l.15-.42.08.07c-.13.36.26.43,0,.6v.3c0,.16,0,.32,0,.47s.08.33.12.49-.06.28-.1.41a2.67,2.67,0,0,1,.09.26c0,.11-.1.23-.14.34s0,.24-.1.55A2,2,0,0,1,4.35,41c-.15.34,0,.4,0,.54a2,2,0,0,0,0,.66v1.51Z"/><path class="cls-9" d="M4.52,36.58c0-.13,0-.24,0-.37h0c0-.12,0-.24,0-.37H4.41V35.5c0-.2,0-.41.07-.6a.61.61,0,0,1,0-.3c0-.11.07-.2.1-.3.06.23.19.27.16.66,0,.23-.06.44-.07.66v.06l.06.55c0,.12,0,.23,0,.36l-.15.35Z"/><path class="cls-9" d="M5.8,35.51a.7.7,0,0,1-.21-.24c0-.11.06-.2.09-.3,0,.18.14.06.21.36Z"/><path class="cls-9" d="M4.54,32c0-.33,0-.66,0-1,0-.1,0-.19,0-.25v0H4.54l-.09,0-.16-.05L4,30.6l-.05,0,0,0,0,0,0,0h0l.55.61h0l0,0a4.67,4.67,0,0,1,.44-.31c.1-.08.1-.22.27-.26l.15-.07.08,0,.09-.05a3.28,3.28,0,0,0,.91-1,2.17,2.17,0,0,0,.23-.3l0-.08,0-.09.08-.17a2.79,2.79,0,0,1-.1.39l-.07.18a1.08,1.08,0,0,1-.08.19l-.35.51a2,2,0,0,1-.64.51l-.26.21-.21.17L4.84,31a1.81,1.81,0,0,0-.18.21l0,0h0l-.73-.81h0l0,0,.09,0s0,0,.06,0l.07,0,.14.05.17,0,.19.06.2.05h0a.3.3,0,0,0,0,.09s0,.09,0,.14,0,.45-.1.59-.06.24-.08.35Z"/><path class="cls-9" d="M6.27,31.46l.18-.08a5,5,0,0,0,.4-.54L7,30.7a3.09,3.09,0,0,0,1-.81.84.84,0,0,1,.08.21c-.11.17-.25.36-.38.53L7.37,31c-.1.11-.22.21-.33.31s-.27.31-.52.44l-.17,0-.09,0H6A3.52,3.52,0,0,1,6.27,31.46Z"/><path class="cls-13" d="M7.48,29.42a1.31,1.31,0,0,0,.09-.17l0,0A1.23,1.23,0,0,0,7.73,29a1.06,1.06,0,0,0,0-.23,1.92,1.92,0,0,1,0-.22,1.67,1.67,0,0,1,0-.29c0-.15.05-.41.16-.37a1.81,1.81,0,0,0,0-.29.92.92,0,0,0,0-.19L8,27.25l-.07-.14a3,3,0,0,0,0-.84,2.85,2.85,0,0,1,0-.66v-.13l0-.08a.27.27,0,0,0-.14-.08c-.12,0-.28,0-.38-.06s.14-.17.21-.24a.76.76,0,0,0,0-.15v-.13l-.11-.13c0-.09.11-.18-.06-.29l.08-.17L7.35,24c.06-.08.13-.15.18-.23l.08-.13c0-.05,0-.1,0-.15a2.07,2.07,0,0,1,.19-.25.26.26,0,0,0,.14,0,.48.48,0,0,0,.09-.11,2.11,2.11,0,0,1,.16-.36l.09-.06a2.29,2.29,0,0,1,.27.14l.23-.18.23-.18.22-.29L9.57,22l0-.12.19-.16.25-.07.25-.06c.1-.16.22-.31.34-.47l.17,0c.07.22.14.2.2.19s0-.18,0-.27.16-.14.12-.05a.4.4,0,0,0,.38.27l.34-.11a.94.94,0,0,0,.42.06h.43v.27l-.24.1c0,.2.05.41.06.62v0h-.22l-.56,0h-.11l-.32,0c-.07.06-.1.16-.2.16l-.2,0-.33-.07a1.28,1.28,0,0,0-.58.19c.06.07.11.15.16.22l.44-.06c-.08.14-.32.15-.27.29l-.24.1-.21.09a4.41,4.41,0,0,0-.61.66c.24-.17.32,0,.41,0a.38.38,0,0,0,0,.15L9.4,24l.17.26a.94.94,0,0,0-.09.12l-.11-.09a.24.24,0,0,1-.12.09H9.12a.2.2,0,0,0-.11,0,.1.1,0,0,0,0,.1l0,0L9,24.63l0,0,0,0a1.68,1.68,0,0,0,0,.18l.2.12,0,0s0,0,0,0l0,0v.05H8.79a.65.65,0,0,0-.19,0s0-.05,0-.07,0-.05,0-.08,0-.07-.11-.11L8.28,25s0,.06,0,.09a.11.11,0,0,0,0,.05.15.15,0,0,0,.06,0c0,.35,0,.73.06,1.28v.41a1.62,1.62,0,0,1,0,.22,1.77,1.77,0,0,1,0,.23l0,.2,0,.23c0,.15,0,.31-.06.46s-.05.31-.08.46a4,4,0,0,1-.29.54l-.07.17c0,.08,0,.14-.1.23l-.09.15A2.06,2.06,0,0,1,7.4,30C7.51,29.77,7.45,29.76,7.48,29.42Z"/><path class="cls-9" d="M8,29.25a5.71,5.71,0,0,0,.21-.58c0-.15.06-.3.08-.46s0-.31.06-.46a2.89,2.89,0,0,1,.24-.25l-.17-.18a1.77,1.77,0,0,0,0-.23,1.62,1.62,0,0,0,0-.22v-.41l.27-.17a2.17,2.17,0,0,1,0,.25,1.48,1.48,0,0,1,0,.21c0,.07,0,.13,0,.21s0,.3,0,.49v.07c0,.08,0,.17,0,.28l0,.3a6,6,0,0,1-.1.61l-.2.46c-.08.15-.15.29-.23.42Z"/><path class="cls-9" d="M7,27.52c0-.11,0-.2.06-.29a1.13,1.13,0,0,0,0-.25,1.82,1.82,0,0,0,0-.4A1.76,1.76,0,0,0,6.94,26a1.76,1.76,0,0,1,.14.58,1.82,1.82,0,0,1,0,.4,1.13,1.13,0,0,1,0,.25C7,27.32,7,27.41,7,27.52Z"/><path class="cls-10" d="M8.45,24.94c.12,0,.12.08.11.11s0,.05,0,.08,0,0,0,.07a.65.65,0,0,1,.19,0H9l0,0v.06l-.1,0-.22,0s0,.08,0,.11a.35.35,0,0,0,.05.08.43.43,0,0,1,0,.07.15.15,0,0,1,0,.09c0,.08,0,.2,0,.3l0,.34-.27.17c0-.55-.08-.93-.06-1.28a.15.15,0,0,1-.06,0,.11.11,0,0,1,0-.05s0-.06,0-.09Z"/><path class="cls-9" d="M8.73,25.65a.15.15,0,0,0,0-.09.43.43,0,0,0,0-.07.35.35,0,0,1-.05-.08s0-.08,0-.11l.22,0q0,.14,0,.33Z"/><path class="cls-9" d="M6.79,25l0-.09a.94.94,0,0,1,0-.09l.06-.18.08,0a.7.7,0,0,1,0,.14.22.22,0,0,1,0,.1,1,1,0,0,1-.07.16A.37.37,0,0,0,6.79,25Z"/><path class="cls-9" d="M6.44,24.11a1.71,1.71,0,0,1,.2-.18c.07-.05.13-.11.2-.15l0,0a2.12,2.12,0,0,1,.18-.37A1.34,1.34,0,0,1,7,23.13L7,23a.54.54,0,0,0,0-.11l.09-.24a1.49,1.49,0,0,1,.14-.24,1.52,1.52,0,0,1,.22-.22c-.08-.06,0-.12.09-.18s.15-.13,0-.2a1.79,1.79,0,0,1,1-.63L9.21,21a2.65,2.65,0,0,0,.53-.27c.14-.05.34,0,.43-.14-.11-.1-.32,0-.36-.15l0-.13.26-.1.25-.09.21.09c0,.11,0,.22,0,.32a2.11,2.11,0,0,1-.9.66l-.19.13-.18.13.22,0h.21l.07.25-.19.16L9.22,22,9.05,22l-.16,0c-.23.17-.37.36-.58.54l0,0-.09.06a4.83,4.83,0,0,0-.49.41c-.07.09-.12.18-.18.26l-.17.13-.05.08,0,.08-.09.17s0,.07,0,.11-.12.17-.18.24l-.12-.05-.12.12-.13.13C6.59,24.29,6.51,24.21,6.44,24.11Z"/><path class="cls-10" d="M9.22,23.81a4.41,4.41,0,0,1,.61-.66l.21-.09.24-.1c0-.14.19-.15.27-.29l-.44.06c0-.07-.1-.15-.16-.22a1.28,1.28,0,0,1,.58-.19l.33.07.2,0c.1,0,.13-.1.2-.16l.32,0a2.29,2.29,0,0,0-.08.28l.32,0h0v.4c.08.23.15.26.13.34l-.2.11-.17-.21c-.21,0-.44,0-.55.19l0,.22-.47.09-.21.1-.19.1a.34.34,0,0,1-.12.12A.61.61,0,0,1,10,24l-.13.11-.12.11-.17.1L9.4,24l.23,0a.38.38,0,0,1,0-.15C9.54,23.79,9.46,23.64,9.22,23.81Z"/><path class="cls-9" d="M11.12,23.47l0-.22c.11-.18.34-.17.55-.19l.17.21-.34.11C11.43,23.47,11.24,23.44,11.12,23.47Z"/><path class="cls-9" d="M11.58,22.17h.11l.56,0-.39.24h0l-.32,0A2.29,2.29,0,0,1,11.58,22.17Z"/><path class="cls-9" d="M11.88,22.82v-.27l.38.11a.58.58,0,0,1-.05.14c-.06.13-.14.24-.19.36C12,23.08,12,23.05,11.88,22.82Z"/><path class="cls-9" d="M12.47,22.13c.34-.06.56-.18.75-.1v.14a.71.71,0,0,0-.12.18c-.22-.06-.42-.13-.63-.18Z"/><path class="cls-12" d="M5.16,51.55c0-.16-.1-.31-.14-.47v-.19h.17l.28.36v.23Z"/><path class="cls-12" d="M4.38,41.5c0-.14-.18-.2,0-.54a2,2,0,0,0,.12.19C4.44,41.26,4.42,41.39,4.38,41.5Z"/><path class="cls-12" d="M9.49,20a1.31,1.31,0,0,0,.63-.5l0-.31.22,0c.13.07.19.2.38.12l.54-.19c0,.07,0,.14.08.22.15.25,0,.3-.26.34s-.45.07-.37.26l.32-.08c-.05.13.13.15.15.24a.93.93,0,0,1-.05.1l-.26,0-.27,0H10.5l-.21-.09A.28.28,0,0,0,10,20c-.12,0-.24.06-.34.06Z"/><path class="cls-12" d="M11.86,22.42l.39-.24h.05c0,.16,0,.32-.05.48l-.38-.11Z"/><path class="cls-12" d="M12.23,19.33v0h.26l.19.26h-.45Z"/><path class="cls-10" d="M8.3,27.75l0-.23,0-.2.17.18A2.89,2.89,0,0,0,8.3,27.75Z"/><path class="cls-10" d="M8.86,24.88a1.68,1.68,0,0,1,0-.18l0,0,0,0L9,24.55l0,0a.1.1,0,0,1,0-.1.2.2,0,0,1,.11,0h.13a.24.24,0,0,0,.12-.09l.11.09c-.11.18-.11.3-.22.35a1.07,1.07,0,0,0-.2.26Z"/><path class="cls-10" d="M8.12,23.75l.19-.18a.93.93,0,0,1,.24,0,.92.92,0,0,0,.24-.17c.07-.06.12-.13.18-.19A.58.58,0,0,1,9.43,23l0,.09-.1.07-.1.07c-.07.05-.12.11-.18.16a1.29,1.29,0,0,1-.17.15l-.19.15-.1.07-.05,0-.05,0-.09.07L8.35,24Z"/><path class="cls-10" d="M8.31,22.6c.21-.18.35-.37.58-.54l.16,0L9.22,22l.31-.11,0,.12-.29.16-.22.29-.23.18-.23.18a2.29,2.29,0,0,0-.27-.14Z"/><path class="cls-10" d="M9.22,21.48c.16-.24.27-.27.37-.26a2.11,2.11,0,0,0,.9-.66H11l.08.13,0,.23c0-.09-.08,0-.12.05s.07.2,0,.27-.13,0-.2-.19l-.17,0c-.12.16-.24.31-.34.47l-.25.06-.25.07-.07-.25H9.44Z"/><path class="cls-10" d="M11.61,20.43h.13l.42-.33h.07l.62-.06.55.14v.08c.08.15.15.3.22.45-.12.14-.25.27-.37.4l.11.09h.19c.27.12.12.33.16.49l-.25.18c-.11,0-.17,0-.24.17-.19-.08-.41,0-.75.1,0-.21,0-.42-.06-.62l.24-.1v-.27h-.43a.94.94,0,0,1-.42-.06V21l-.06-.26a.82.82,0,0,0-.2-.12A1,1,0,0,0,11.61,20.43Z"/><path class="cls-10" d="M12.16,19l.33-.1v.4h-.26A1.73,1.73,0,0,0,12.16,19Z"/><path class="cls-13" d="M5.78,31.35a1.67,1.67,0,0,0-.11-.23.16.16,0,0,0,0-.08h0l-.15,0-.21,0-.4-.1-.34-.09-.09,0-.11,0-.13-.05-.11,0-.07,0-.06,0,0,0,0,0h0L5.1,31.86h0l.17.2h0L3.85,30.48h0l0,0s0,0,.05,0l.1.06.13.05.16.06.08,0,.09,0,.2.06.2.05.24.05.23.05.26.06.26.05h0s0,.12,0,.21Z"/><path class="cls-13" d="M10.5,20.24h.06l.27,0,.26,0c0,.06.05.12.07.17l-.17.24h-.5C10.48,20.46,10.5,20.35,10.5,20.24Z"/><path class="cls-13" d="M11.84,19.79H12l.19.09v.22l-.42.33h-.13v0a3.53,3.53,0,0,0-.15-.39Z"/><path class="cls-11" d="M9,20.16a3.55,3.55,0,0,1,.31-.23c0-.09-.09-.19-.15-.28l.26-.07.25-.07c.11-.07.08-.14.18-.22l.2-.09h.08l0,.31a1.31,1.31,0,0,1-.63.5l.16.05L10,20c.24-.13.31,0,.3.17l-.25.09-.26.1,0,.13-.26.11a.67.67,0,0,1-.24.08H9.09a1,1,0,0,0-.56.1c-.1-.06.09-.18.08-.22L9,20.29Z"/><path class="cls-7" d="M9.11,19.65l0-.22.37-.08.37-.06c-.1.08-.07.15-.18.22l-.25.07Z"/><path class="cls-8" d="M2.14,42.51v-.36C2.14,42.26,2.31,42.18,2.14,42.51Z"/><path class="cls-8" d="M7.82,20a1.07,1.07,0,0,1,.22-.2,1.33,1.33,0,0,1,.31-.18,2.13,2.13,0,0,1,.35-.14l.36-.06,0,.22-.2.05-.1,0-.1,0-.42.13-.23.05Z"/><path class="cls-11" d="M6,23.44a1.41,1.41,0,0,1,.09-.39,1.28,1.28,0,0,1,.14-.23c.22,0,.22.14.14.27A1.24,1.24,0,0,1,6,23.44Z"/><path class="cls-11" d="M3.56,44.73l.13-.24c.09.07.24.1.18.3s0,.2-.05.3C3.64,45.09,3.77,44.8,3.56,44.73Z"/><path class="cls-9" d="M4.55,34.3c0-.11-.08-.16-.12-.25l.06-.3-.12-.42.1-.12a2.71,2.71,0,0,1,0-.7,2.91,2.91,0,0,0,.12-.35c0,.1.07.17.11.24,0,.27,0,.56-.05.83a1.61,1.61,0,0,1-.11.52A.83.83,0,0,1,4.55,34.3Z"/></g></g></g><path class="cls-3" d="M13.32,22.78a5.84,5.84,0,0,0-3.08.65,6.06,6.06,0,0,0-2.37,2.18q-.21.34-.39.72a7.15,7.15,0,0,0-.29.77,6,6,0,0,0-.26,1.63c0,.14,0,.26,0,.39v.39c0,.26,0,.52,0,.78v1.19H5.79l-1.51,0H3.94v.33L4,37.13l.06,5.27c0,1.76,0,3.52.08,5.27L4.25,53a0,0,0,0,0,0,0s0,0,0,0l.09-5.28c0-1.75.06-3.51.08-5.27l.06-5.27.07-4.93,1.17,0H7.68v-.39c0-.52,0-1,0-1.56V28.74a5.45,5.45,0,0,1,.19-1.45,5.73,5.73,0,0,1,.23-.7,5,5,0,0,1,.32-.66,6.07,6.07,0,0,1,.88-1.2,6.19,6.19,0,0,1,1.15-.95c.22-.13.44-.25.67-.36l.17-.07.18-.08.36-.13a6.86,6.86,0,0,1,1.5-.29s0,0,0,0A0,0,0,0,0,13.32,22.78Z"/></g></g></svg>