<svg xmlns="http://www.w3.org/2000/svg" xmlns:xlink="http://www.w3.org/1999/xlink" viewBox="0 0 500 200"><defs><style>.cls-1{isolation:isolate;}.cls-2{fill:#a1173b;}.cls-3{fill:#f39c6c;}.cls-4{opacity:0.2;fill:url(#Dégradé_sans_nom_8);}.cls-5{opacity:0.8;mix-blend-mode:multiply;}.cls-6{opacity:0.9;}.cls-7{fill:#fce0cf;}.cls-8{fill:#fdebe0;}.cls-9{fill:#f8c09d;}.cls-10{fill:#f7b58d;}.cls-11{fill:#fbd5bc;}.cls-12{fill:#facbad;}.cls-13{fill:#f5a97e;}</style><radialGradient id="Dégradé_sans_nom_8" cx="-155.64" cy="151.22" r="48.07" gradientTransform="translate(254.6 136.09) scale(1.01 0.1)" gradientUnits="userSpaceOnUse"><stop offset="0" stop-color="#1d1d1b"/><stop offset="1" stop-color="#1d1d1b" stop-opacity="0"/></radialGradient></defs><title>LOGO FOR WEB</title><g class="cls-1"><g id="Calque_1" data-name="Calque 1"><path class="cls-2" d="M232.38,110.52l1.44,8.85a41.27,41.27,0,0,1-8.28,2.29,29.06,29.06,0,0,1-5.41.51,22.17,22.17,0,0,1-2.78-.17,17.87,17.87,0,0,1-7.14-2,12.17,12.17,0,0,1-5-5.27,19.08,19.08,0,0,1-1.9-9V78.45q0-6.47,1.82-9.79a15.21,15.21,0,0,1,5.53-5.61,18.23,18.23,0,0,1,9-2.13h1.1a26.15,26.15,0,0,1,10.9,2.81l-2.62,8.51a24.17,24.17,0,0,0-8.53-1.45,8.29,8.29,0,0,0-5.75,2,6.33,6.33,0,0,0-2.2,4.93v27.91a10.64,10.64,0,0,0,.34,2.76,4.47,4.47,0,0,0,1.1,2,16.92,16.92,0,0,0,1.52,1.36,4.28,4.28,0,0,0,2.11.77l2.28.29a9.22,9.22,0,0,0,2.58-.12l2.58-.39c.62-.08,1.5-.27,2.66-.55l2.41-.6C230.64,111,231.37,110.8,232.38,110.52Z"/><path class="cls-2" d="M286.64,121.32H275.58l-3.47-15.56h-13.6l-3.3,15.56H244.74l13.85-59.55h13.1ZM269.92,95.8,265.1,77.43,260.71,95.8Z"/><path class="cls-2" d="M328.06,121.32h-30.5V61.77h9.3v51h21.2Z"/><path class="cls-2" d="M367,121.32H339V61.77H367.2v9.36H348.27V86.19h11.58l-2.62,8.93h-9v17.7H367Z"/><path class="cls-2" d="M407.18,110.52l1.44,8.85a41.27,41.27,0,0,1-8.28,2.29,29.22,29.22,0,0,1-5.41.51,22.44,22.44,0,0,1-2.79-.17,18,18,0,0,1-7.14-2,12.15,12.15,0,0,1-5-5.27,19.08,19.08,0,0,1-1.9-9V78.45q0-6.47,1.81-9.79a15.24,15.24,0,0,1,5.54-5.61,18.18,18.18,0,0,1,9-2.13h1.1a26.07,26.07,0,0,1,10.89,2.81l-2.62,8.51a24.13,24.13,0,0,0-8.53-1.45,8.28,8.28,0,0,0-5.74,2,6.3,6.3,0,0,0-2.2,4.93v27.91a10.23,10.23,0,0,0,.34,2.76,4.37,4.37,0,0,0,1.1,2,15.65,15.65,0,0,0,1.52,1.36,4.24,4.24,0,0,0,2.11.77l2.28.29a9.22,9.22,0,0,0,2.58-.12l2.57-.39c.62-.08,1.51-.27,2.67-.55l2.4-.6C405.43,111,406.17,110.8,407.18,110.52Z"/><path class="cls-2" d="M455.86,121.32h-9.21V95.12H428.83v26.2h-9.3V61.77h9.3V86.19h17.82V61.77h9.21Z"/><path class="cls-2" d="M494.83,121.32H466.78V61.77H495v9.36H476.08V86.19h11.57L485,95.12h-8.95v17.7h18.75Z"/><path class="cls-3" d="M213.49,156.78h-3.31l-6.86-25.28h2.81l5.69,21.2,5.65-21.2h2.84Z"/><path class="cls-3" d="M265.5,138.51V150.1q0,3.65-2.19,5.36a8.23,8.23,0,0,1-5.24,1.72,8.41,8.41,0,0,1-5.28-1.72q-2.22-1.71-2.22-5.36V138.47a7.4,7.4,0,0,1,2-5.63,7.67,7.67,0,0,1,5.53-1.92,7.19,7.19,0,0,1,5.45,2A7.71,7.71,0,0,1,265.5,138.51Zm-2.56,11.3V138.65a5.24,5.24,0,0,0-1.26-3.79,4.84,4.84,0,0,0-3.64-1.3q-4.91,0-4.91,5.09v11.23a4.47,4.47,0,0,0,1.35,3.52,5.83,5.83,0,0,0,7.11,0A4.56,4.56,0,0,0,262.94,149.81Z"/><path class="cls-3" d="M308,157.18l-.71-1.85a3.13,3.13,0,0,0,1.67-1.21,5.19,5.19,0,0,0,.64-3V147a7.83,7.83,0,0,1-5.26,1.51,8.28,8.28,0,0,1-5.72-2,7.2,7.2,0,0,1-2.2-5.66V131.5H299V141a4.51,4.51,0,0,0,1.49,3.66,5.68,5.68,0,0,0,3.75,1.25,7.3,7.3,0,0,0,3.63-.78,3.39,3.39,0,0,0,1.72-2.18V131.5h2.6v19.65Q312.15,156.63,308,157.18Z"/><path class="cls-3" d="M359,156.78h-2.88l-2.45-8.16h-7.39L344,156.78H341.2l7.32-25.28h3Zm-6-10.83L350,135.69,347,146Z"/><path class="cls-3" d="M402.21,156.78h-2.14l-.42-1.12a6.93,6.93,0,0,1-4.7,1.48,7.84,7.84,0,0,1-5.17-1.81A6.58,6.58,0,0,1,387.6,150V138.62c0-3.09,1-5.26,3.09-6.54a7.63,7.63,0,0,1,3.8-.9,10.77,10.77,0,0,1,5.05,1.19l-.75,2a10.42,10.42,0,0,0-3.66-.72c-3.32,0-5,1.54-5,4.62V150a4.23,4.23,0,0,0,1.35,3.37,5.13,5.13,0,0,0,3.48,1.18,4.86,4.86,0,0,0,3.43-1.2,4.29,4.29,0,0,0,1.3-3.32v-1.59h-2.24l-.86-2.52h5.59Z"/><path class="cls-3" d="M446.9,156.78H435.1V131.5H447V134h-9.31v7.88h6.22l-.82,2.52h-5.4v10h9.24Z"/><path class="cls-3" d="M478.12,150.35l2.66-.18a4.7,4.7,0,0,0,1.73,3.14,5.92,5.92,0,0,0,4,1.34,6.74,6.74,0,0,0,4.09-1.18,3.94,3.94,0,0,0,1.62-3.41,4.2,4.2,0,0,0-1-2.83,6.38,6.38,0,0,0-2.49-1.79l-3.25-1.34c-1.17-.48-2.25-.95-3.25-1.4a6.35,6.35,0,0,1-2.49-2.06,5.48,5.48,0,0,1-1-3.29,5.67,5.67,0,0,1,2.06-4.37,8.6,8.6,0,0,1,5.93-1.84,11.8,11.8,0,0,1,5.19,1.08q0,.08-.78,2.46a11.1,11.1,0,0,0-4.53-1,6.3,6.3,0,0,0-3.75,1,3.17,3.17,0,0,0-1.42,2.74c0,1.4.91,2.5,2.73,3.32.81.36,1.69.72,2.65,1.07s1.92.74,2.86,1.17a17,17,0,0,1,2.62,1.48,6.36,6.36,0,0,1,2.68,5.31,7.09,7.09,0,0,1-2.08,5.34q-2.09,2-6.18,2a8.94,8.94,0,0,1-6.33-2.08A6.57,6.57,0,0,1,478.12,150.35Z"/><ellipse class="cls-4" cx="97.69" cy="151.22" rx="68.27" ry="5.96"/><path class="cls-2" d="M39.34,61.47l33.75,14L42.75,55.18c-.69,1.07-1.35,2.18-2,3.31C40.28,59.45,39.79,60.46,39.34,61.47Z"/><path class="cls-2" d="M45.42,78.68H71.78L46,73.56c-.09.45-.16.91-.23,1.37A35.8,35.8,0,0,0,45.42,78.68Z"/><path class="cls-2" d="M39.41,50.85,74.22,74.11l-29.6-29.6A53,53,0,0,0,40,50C39.82,50.26,39.61,50.55,39.41,50.85Z"/><path class="cls-2" d="M41.14,70.81,72.28,77,43,64.88a42.25,42.25,0,0,0-1.53,4.57C41.36,69.9,41.25,70.36,41.14,70.81Z"/><rect class="cls-3" x="89.44" y="126.24" width="18.39" height="2.47" rx="1.24" ry="1.24"/><path class="cls-2" d="M133.35,112.05a18.62,18.62,0,1,1-18.62,18.62,18.65,18.65,0,0,1,18.62-18.62m0-1.65a20.27,20.27,0,1,0,20.28,20.27,20.27,20.27,0,0,0-20.28-20.27Z"/><path class="cls-3" d="M133.35,111.25a19.42,19.42,0,1,0,19.42,19.42A19.42,19.42,0,0,0,133.35,111.25Zm17.75,18.61H137.51l12.56-5.21A17.35,17.35,0,0,1,151.1,129.86Zm-1.66-6.73-12.56,5.2,9.61-9.61A17.81,17.81,0,0,1,149.44,123.13Zm-4.11-5.58-9.61,9.62,5.2-12.58A18.13,18.13,0,0,1,145.33,117.55Zm-11.14-4.63a17.36,17.36,0,0,1,5.21,1l-5.21,12.58Zm-1.65,0v13.62L127.33,114A17.66,17.66,0,0,1,132.54,112.92Zm-6.74,1.66L131,127.17l-9.63-9.63A18.13,18.13,0,0,1,125.8,114.58Zm-5.58,4.13,9.63,9.62-12.58-5.21A17.63,17.63,0,0,1,120.22,118.71Zm-3.59,5.94,12.59,5.21H115.6A17.66,17.66,0,0,1,116.63,124.65Zm-1,6.86h13.62l-12.58,5.21A18,18,0,0,1,115.6,131.51Zm1.68,6.73L129.85,133l-9.62,9.62A17.81,17.81,0,0,1,117.28,138.24Zm4.12,5.57L131,134.2l-5.21,12.56A18,18,0,0,1,121.4,143.81Zm11.14,4.61a17.53,17.53,0,0,1-5.2-1l5.2-12.56ZM130,130.67a3.4,3.4,0,1,1,3.4,3.4A3.4,3.4,0,0,1,130,130.67Zm4.24,17.75V134.83l5.2,12.56A17.6,17.6,0,0,1,134.19,148.42Zm6.72-1.67-5.19-12.55,9.6,9.6A17.81,17.81,0,0,1,140.91,146.75Zm5.57-4.12-9.6-9.6,12.55,5.2A17.76,17.76,0,0,1,146.48,142.63Zm3.59-5.92-12.56-5.2H151.1A17.6,17.6,0,0,1,150.07,136.71Z"/><path class="cls-2" d="M135.45,130.67a2.1,2.1,0,1,1-2.1-2.1A2.1,2.1,0,0,1,135.45,130.67Z"/><path class="cls-2" d="M56.1,99.06a26.68,26.68,0,1,0,26.67,26.68A26.68,26.68,0,0,0,56.1,99.06Zm0,51.7a25,25,0,1,1,17.69-7.33A24.85,24.85,0,0,1,56.1,150.76Z"/><path class="cls-3" d="M56.1,100.19a25.55,25.55,0,1,0,25.55,25.55A25.55,25.55,0,0,0,56.1,100.19Zm16.3,43A23.81,23.81,0,0,1,66,147.5l-7.46-18a4.31,4.31,0,0,1-1.53.63l7.47,18a24.07,24.07,0,0,1-7.55,1.49V130.13a4.78,4.78,0,0,1-.84.08,4.28,4.28,0,0,1-.81-.07v19.48a23.73,23.73,0,0,1-7.56-1.48l7.46-18a4.51,4.51,0,0,1-1.52-.62l-7.47,18a24,24,0,0,1-6.4-4.29l13.79-13.78a4.31,4.31,0,0,1-1.17-1.16L38.64,142.06a23.51,23.51,0,0,1-4.3-6.4l18-7.46a4.55,4.55,0,0,1-.64-1.52l-18,7.46a23.8,23.8,0,0,1-1.5-7.56H51.7a4.78,4.78,0,0,1-.08-.84,4.28,4.28,0,0,1,.07-.81H32.21a23.53,23.53,0,0,1,1.49-7.57l18,7.46a4.45,4.45,0,0,1,.63-1.52l-18-7.46a23.76,23.76,0,0,1,4.29-6.41L52.4,123.21A4.49,4.49,0,0,1,53.57,122L39.79,108.26a23.86,23.86,0,0,1,6.4-4.29l7.47,18a4.45,4.45,0,0,1,1.52-.63l-7.46-18a23.86,23.86,0,0,1,7.57-1.49v19.49a3.59,3.59,0,0,1,.81-.08,4.78,4.78,0,0,1,.84.08V101.85a23.86,23.86,0,0,1,7.56,1.5l-7.46,18a4.55,4.55,0,0,1,1.52.64L66,104a23.74,23.74,0,0,1,6.4,4.3L58.64,122.06a4.45,4.45,0,0,1,1.16,1.17h0l13.78-13.78a23.71,23.71,0,0,1,4.29,6.4l-18,7.46a4.31,4.31,0,0,1,.63,1.53l18-7.47A24.06,24.06,0,0,1,80,124.93H60.5a4.28,4.28,0,0,1,.07.81,4.78,4.78,0,0,1-.08.84H80a24,24,0,0,1-1.49,7.55l-18-7.46a4.34,4.34,0,0,1-.63,1.52l18,7.46A23.62,23.62,0,0,1,73.57,142L59.79,128.26a4.49,4.49,0,0,1-1.17,1.17Z"/><path class="cls-2" d="M58.85,125.74A2.76,2.76,0,1,1,56.1,123,2.76,2.76,0,0,1,58.85,125.74Z"/><path class="cls-3" d="M159.76,105h-4.07a1.89,1.89,0,0,0-1,.28,28.87,28.87,0,0,1-4.43,2.17,2.85,2.85,0,0,1-2.51-.22,27.51,27.51,0,0,0-4.52-2.23q-.85-.33-1.74-.6a27.67,27.67,0,0,0-6.14-1.16.12.12,0,0,1-.12-.13V87.83l-.13-.07A28.24,28.24,0,0,0,127,84.83l-.2,0a29.45,29.45,0,0,0-3.3-.43l-.7,0c-.38,0-.75,0-1.13,0v-.05l-1.09,0c-.61,0-1.2,0-1.8.06a.13.13,0,0,1-.13-.16,31,31,0,0,0,.94-7.57,30.25,30.25,0,0,0-.42-5.07.14.14,0,0,0-.13-.11h-.85c-.06,0-.13.09-.13.09a23.27,23.27,0,0,0-.59,17.17,2.29,2.29,0,0,0,2.17,1.52h7a.13.13,0,0,1,.13.13v13.5a.14.14,0,0,1-.1.13c-.45.11-.91.23-1.36.37-.68.2-1.36.43-2,.68a28,28,0,0,0-7.33,4.2,28,28,0,0,0-6.34,7.13,26.92,26.92,0,0,0-1.8,3.4.13.13,0,0,1-.12.08H89.89V89.82a.1.1,0,0,0,0-.07,28.72,28.72,0,0,0-8.53-8.82l-.08,0H51.89a.13.13,0,0,0-.13.16A28.5,28.5,0,0,0,55,90.15c.09.17.18.33.28.49a.11.11,0,0,0,.11.06h.54a34.79,34.79,0,0,1,6.17.55,34.12,34.12,0,0,1,13,5.31.13.13,0,0,1,.06.11v2.91a.13.13,0,0,1-.21.11,31.77,31.77,0,0,0-17.92-6.34l-1.15,0h-.1a31.81,31.81,0,0,0-5.9.57l-.78.16a31.7,31.7,0,0,0-4.57,1.36l-.35.14a30.69,30.69,0,0,0-3.34,1.55c-.67.36-1.33.74-2,1.15s-1.11.73-1.65,1.12l-1.12.85a2.34,2.34,0,0,0-.19,3.49.58.58,0,0,0,.8,0h0a28.07,28.07,0,0,1,3.86-2.91c.64-.41,1.29-.79,2-1.14a26.56,26.56,0,0,1,2.81-1.29l1-.36a28.48,28.48,0,0,1,4.15-1.12l.7-.12a27.9,27.9,0,0,1,4.6-.38h.1a29.21,29.21,0,0,1,4.1.28,28.55,28.55,0,0,1,15.18,7.15l.16.15.61.57.39.39a29.91,29.91,0,0,1,2.55,3,29.16,29.16,0,0,1,2.65,4.26,29.64,29.64,0,0,1,1.56,3.71l0,.1a29.53,29.53,0,0,1,1,3.78,27.63,27.63,0,0,1,.43,3.44h0l.24,1.21a.13.13,0,0,0,.12.11h25.6a.12.12,0,0,0,.12-.1,23.86,23.86,0,0,1,1.45-3.77c.06-.14.13-.27.2-.41s.17-.33.26-.49a23.63,23.63,0,0,1,14.24-11.48l.2-.05a22.15,22.15,0,0,1,3.28-.66c.59-.08,1.18-.13,1.78-.16h.12l1.11,0c.47,0,.93,0,1.39,0l.44,0h.13a23.55,23.55,0,0,1,6.26,1.39l.9.36h0c.81.07,1.62.11,2.45.11h.49c.75,0,1.49,0,2.22-.11h.13c.73-.07,1.46-.17,2.17-.29l.33-.06.39-.08a28.27,28.27,0,0,0,9.24-3.58A.13.13,0,0,0,159.76,105Z"/><rect class="cls-3" x="144.02" y="110.4" width="21.93" height="2.88" rx="1.44" ry="1.44"/><g class="cls-5"><g class="cls-6"><g class="cls-6"><path class="cls-7" d="M13.35,156.41c.27-.08.37-.46.7-.34l0,.59,0,.5a.87.87,0,0,1-.6-.08A.56.56,0,0,1,13.35,156.41Z"/><path class="cls-7" d="M5.66,150.34c0-.61-.09-1.19-.15-1.8,0-.37.09-.78.11-1.15v-.31c0-.54.07-1.08.11-1.62V144.3l.13-.16A11,11,0,0,1,5.72,143a2.51,2.51,0,0,1,.22-.34c-.1-.2-.23-.44-.35-.65v-1.15H5.46c0-.92-.07-1.83-.12-2.75,0-1.52.1-3,.14-4.56h.37v-1H5.48c0-.84-.06-1.73-.1-2.57v-1c.46-.9,0-.68,0-1s.26-.74.39-1.14v-.47l.24-1c0-2,.17-3.28.2-5-.08-1.09-.31-3.3.45-4a4.81,4.81,0,0,1-.19-2.14c.37,0,.21-.5.36-.8l0-.64,0-1,0-1L7,107.65c.07-.37.13-.74.17-1.11s0-.78-.07-1.16,0-.75,0-1.13-.14-.79-.19-1.18v-.17c0-.48,0-1,0-1.48s0-1.11,0-1.67c.08-.35.16-.66.22-1-.39-.5-.18-1.23,0-1.89,0-.16.06-.32.12-.55a1.43,1.43,0,0,0,0-.18l0-.1,0-.12.06-.15,0-.07,0,0,0,0a1.71,1.71,0,0,1,.13-.23l0-.06,0-.07.16-.2.16-.18.09-.08,0,0,.08-.07.17-.15.34-.28a12.06,12.06,0,0,1,1.3-.92c.24-.32.46-.65.63-.92a3,3,0,0,1,.37.33l.25-.17.11-.07.09-.06.35-.26a5.25,5.25,0,0,0,.66-.59l-.54-.5c.13-.4-.17-.72-.22-.86a.47.47,0,0,0,.07-.12l.05-.13c0-.09.07-.17.1-.26.41-.45.67-.81.34-1.06,0-.55-.07-1.09-.1-1.65.3-1,.24-1.71-.1-1.68V84.6c0-.3,0-.59,0-.91s0-.62.06-1a4.86,4.86,0,0,0,.16-.72,2,2,0,0,0,0-.49,2.17,2.17,0,0,0-.19-.47l.18-.91c.06-.29.16-.6.23-.88a13.76,13.76,0,0,1,.87-2.18,3.1,3.1,0,0,0,.47-1,2.11,2.11,0,0,1,.26-.74,9.9,9.9,0,0,1,1-.93,4.15,4.15,0,0,1,.27-.32,1.15,1.15,0,0,1,.34-.87,4.52,4.52,0,0,1,.71-.59,3.85,3.85,0,0,1,.3-.27.76.76,0,0,1,.27-.66,2.42,2.42,0,0,1,.58-.37c0-.2,0-.41.09-.67l.78-.37c.25-.13.51-.24.77-.36s.73-.41,1.12-.63c.05-.2.1-.41.16-.61l.64-.18.62-.14c.37-.14.74-.25,1.11-.36l.28-.08.27-.07.54-.15c.14.24.26.52.4.76-.29.2-.56.41-.83.63l-.2.07a4,4,0,0,0-.61-.54c-.32.11-.6.23-1.11.45-.41.48-1.07.67-1.34,1.08a7.37,7.37,0,0,0-1.19.42c-.19.14-.38.3-.57.45s-.37.3-.55.47-.36.47-.52.7c.07.73-.47,1-.77,1.38l.23.26-.3.29-.64.64-.64.71a1.35,1.35,0,0,0-.4.89,2.08,2.08,0,0,0,.1.66l-.25.6q-.11.3-.21.57c-.14.22-.29.49-.43.71l.08.5-.32.89-.24.89c-.07.29-.12.57-.19.86s-.09.55-.14.83c.14.3.29.52.42.8l-.07.33-.06.34L13.6,85c0,.22,0,.44.05.66l.06.62v.48h.23c0,.23,0,.45-.08.67s-.07.43-.11.62l-.23,0c-.1.4-.06.5,0,.64a.85.85,0,0,1,.19.43c0,.13,0,.26,0,.4s0,.26-.07.39a.71.71,0,0,0,.68-.3.49.49,0,0,0-.08-.59l0-.25a3.08,3.08,0,0,0,.3-.33l.29-.41a1.7,1.7,0,0,1,.28,1.45c-.06.22-.11.42-.18.61a2.61,2.61,0,0,0-.08.64,1.94,1.94,0,0,0-.07,1.11,1,1,0,0,1-.11.49.62.62,0,0,1-.19.21,1.53,1.53,0,0,1-.34.17c-.78.41-1.15.71-1,1.11l-.55.4-.6.39-1.24.81c-.42-.24-.53.28-.9.47l-.19.34-.05.08v0h0l0,0-.06.09a1.21,1.21,0,0,0-.05.14l0,.12c0,.27-.06.5-.09.73-.05.45-.15.88-.24,1.32a4.46,4.46,0,0,0,.06,2.7c-.41.77-.11,1.21,0,2C9.09,104,9,104.5,8.94,105c.73.89-.53,1.72-.23,2.89-.07.5-.13,1-.17,1.44.05.68.51,1.69.06,1.8,0,.61-.62.74-.42,1.59s0,2.2.4,2.79c-.45,1.13.33,3.29-.32,4.51.43,1,.11,2.6.17,3.89l0,.81c-.27-.05-.22.39-.23.63s-.1.54.12.68c.2,0,.07.44-.39.93H7.79l-.46-.83a9.15,9.15,0,0,0-.61,1.12c.12.08.25.11.37.19.1.27.22.54.34.82l-.48.62c-.28.84.47.42.59,1l-.61,1.43c.17,1.09-.39,2,0,2.91-.2.13-.4.22-.59.32,0,.34.07.64.12,1-.05.54-.11,1.08-.13,1.62.37.32.52,1.26,0,1.28v1.63l.59,1c.45-.22.73.49.6,1l-.47.3.23.68c-.13.2-.22.43-.35.63v1.63a4.15,4.15,0,0,0,.36,1.29h.47c.18.24.33.44.51.65A10.41,10.41,0,0,1,8,149.55c-.24,1.08-.84.67-1.18.8v.82a6.22,6.22,0,0,0-.71.47C5.69,151.74,5.65,151,5.66,150.34Z"/><path class="cls-7" d="M14.8,145.75c-.3-.64-.2-1,.09-1.27C15.19,145,15.47,145.76,14.8,145.75Z"/><path class="cls-8" d="M12,142.48a4.57,4.57,0,0,1-.35-.48c.17-1.27-.38-2.36,0-3.7-.84-.52-1,.42-1.44.1s-.1-.61-.35-1H9.76a2.06,2.06,0,0,0-1.07-.36c-.07-.38-.14-.75-.24-1.16.25-.29.47-.62.72-.92.57.19.22.95.72,1l.22.68a6,6,0,0,0,.51-2.92l.47-.62a3,3,0,0,1,.47.35c0,.2.08.44.12.64q0,1,.12,1.92c0,.3.07.54.1.81.25.14.5.25.72.36l.37,1c-.1.37-.17.73-.25,1.1a2.83,2.83,0,0,0,.25,1.32v.3c-.1.53-.17,1.1-.24,1.61Z"/><path class="cls-9" d="M13.56,151.51c-.14-.73-.27-1.46-.41-2.24l-.24-1.77v-.3c.22-.17.47-.33.72-.5.09-.73-.55-.37-.73-.81s-.08-1.18-.14-1.78c.05-.27.08-.51.12-.81.23-.13.47-.29.72-.45,0-.77.05-1.68-.6-2v-.3a2.83,2.83,0,0,1-.25-1.32c.08-.37.15-.73.25-1.1l-.37-1V136a.57.57,0,0,0-.82,0q-.08-1-.12-1.92l1.2,0c.82-1.21-.11-2.72.37-4.35s-.26-3.2.3-4.66c.42,2.54.1,5.08.53,6.94H14c.14,1.15-.27,2.38-.15,3.73.18.74.45,1.38-.12,1.6v.81a1.94,1.94,0,0,1,.13.3c0,.4-.08.77-.13,1.14l.6,0a3.52,3.52,0,0,0,.6,1.45c0,1.14,0,2.24,0,3.38-.29.3-.39.63-.09,1.27q-.27,3.41-.5,6.73C14.05,152.15,13.79,151.85,13.56,151.51Z"/><path class="cls-10" d="M14.88,141.1a3.52,3.52,0,0,1-.6-1.45l-.6,0c.05-.37.1-.74.13-1.14a1.94,1.94,0,0,0-.13-.3v-.81c.57-.22.3-.86.12-1.6-.12-1.35.29-2.58.15-3.73h.12c-.43-1.86-.11-4.4-.53-6.94-.56,1.46.12,2.93-.3,4.66s.45,3.14-.37,4.35l-1.2,0c0-.2-.07-.44-.12-.64.13-.27.26-.53.36-.8.05-.5-.35-.18-.47-.52v-1.28c0-.9,0-1.81,0-2.75a6.84,6.84,0,0,1-.1-1.79c.1-.3.18-.63.26-.93.35-.83.41-1.2.26-1.47.11-.3.24-.63.37-.93-.08-.24-.15-.44-.24-.68.1-.37.18-.73.26-1.1-.11-.44-.23-.88-.32-1.32s.09-.84.12-1.27l0-.81c.73-.44-.34-.62,0-1.61a1.59,1.59,0,0,1-.22-.18c-.43-.63-.11-1.45-.2-1.92l.4-1c0-.33.09-.63.13-1l-.18-1.46v-.16c0-.6.11-1.17.18-1.77.09-1.06-.25-1.15-.43-1.77.29-.91,0-1.1,0-1.47a5.11,5.11,0,0,0,.29-1.41c0-.73.09-1.49.14-2.21-.11-.21-.32-.4-.31-.66l0-.33c.05-.29.12-.61.2-.92s.51-1.06.28-1.58c0-.14.07-.27.1-.38a1.58,1.58,0,0,1,.1-.26h0l-.08,0c-.18,0-.36-.09-.54-.15l-.51-.15-.44-.14-.39-.15-.17-.07L10.35,97a2,2,0,0,1-.25-.14L10,96.83l0,0v0h0l2,2.18h0l0,0,.06,0,.12-.09a3.11,3.11,0,0,1,.49-.54l.66-.59.57-.47.68-.57a4.83,4.83,0,0,0,1.72-1.37c.34-.43.56-.82.95-1.36.07-.17.16-.32.22-.49l.18-.51a9.22,9.22,0,0,0,.28-1A10.21,10.21,0,0,0,18.18,90c.18-.22.05-.77.18-1.21.07-.29.12-.53.16-.78s.07-.45.09-.66a6.68,6.68,0,0,0,0-1.09,5.18,5.18,0,0,0-.37-1.56L18.16,84c0-.26-.06-.52-.09-.75s0-.61.09-.87a2.51,2.51,0,0,0,.2-.42.63.63,0,0,0,.07-.26,2.57,2.57,0,0,0-.06-.4l-.22-.06.17-.57.23-.57s0-.1-.05-.18a7.52,7.52,0,0,1,.47-.64,2,2,0,0,0,0-.31c.07-.15.16-.29.23-.44l.12-.23.12-.21c.16-.11.31-.24.45-.35s.32-.46.51-.7a10.56,10.56,0,0,1,1.3-1.09,7.57,7.57,0,0,0-.44.95.78.78,0,0,1-.23.3.59.59,0,0,1-.38.11,6.76,6.76,0,0,0-.5.66,3.71,3.71,0,0,1-.15.4c-.06.13-.13.24-.2.36a4.16,4.16,0,0,1-.5.61l.39.5c-.09.15-.14.29-.22.44.47.31.25.55.17.8a1.82,1.82,0,0,0,.29.32c0,.13,0,.24,0,.38s0,.26,0,.4c-.18.18-.62.27-.57.63.27.07.69.06,1,.16a.67.67,0,0,1,.39.23.5.5,0,0,1,.09.21,1.21,1.21,0,0,1,0,.33,7.49,7.49,0,0,0,0,1.78,9.92,9.92,0,0,1-.09,2.27l.19.36a2.37,2.37,0,0,1,.15.4,1.83,1.83,0,0,1,.06.51,3.71,3.71,0,0,1-.11.78c-.29-.12-.33.58-.43,1a7.4,7.4,0,0,0-.12.77c0,.21,0,.41-.07.6a2.43,2.43,0,0,1-.12.61,4.29,4.29,0,0,1-.34.76,3.08,3.08,0,0,1-.35.41c-.08.91.1.92-.2,1.46a3.52,3.52,0,0,0,.55-.55,3.26,3.26,0,0,0,.26-.42c.11-.24.16-.39.25-.59l.21-.47a12.55,12.55,0,0,0,.75-1.46A13.87,13.87,0,0,1,21,93.47c.19.3.35.61.51.92-.13.27-.28.53-.43.8a8.28,8.28,0,0,1-2.61,2.16c-.16.16-.29.27-.42.39a12.1,12.1,0,0,1-1.07,1.43c-.16.08-.33.13-.5.21-.41.36-.61.56-.83.78l-.81.47c0,.07,0,.12-.05.17l-.28.17-.21.14a1.09,1.09,0,0,1-.38,0l-.45-.53-.07,0h0L10,96.76h0l0,0,.09.08.14.09.15.07.2.1.29.11.33.13.31.09.24.08c.31.09.61.18.92.25s.71.18,1.07.25l.55.12.41.09,0,0a.69.69,0,0,1,.14.2c.09.17.17.39.27.62l.24-.1c-.1.51-.21,1.09-.28,1.67.07.32.17.61.27.94-.11.53-.22,1.1-.36,1.68.26,1.2.37,2.06,0,2.66-.05.59-.13,1.15-.2,1.74l0,.47a4.92,4.92,0,0,1,.1.67c-.08.26-.17.49-.25.78a2.07,2.07,0,0,0,.57.67c-.06.46-.13,1-.17,1.42,0,1.64.07,3.31.1,5,0,.53.42.89.46,1.46v.33l-.39.92c0,.77,0,1.51,0,2.24,0,.51.08,1,.1,1.48v.64L15,135.81c-.63.85-.13.7,0,1-.07.94-.15,1.91-.22,2.88Z"/><path class="cls-7" d="M11.9,136.83c0-.27-.07-.51-.1-.81a.57.57,0,0,1,.82,0v1.15C12.4,137.08,12.15,137,11.9,136.83Z"/><path class="cls-11" d="M7.28,146.6a4.15,4.15,0,0,1-.36-1.29v-1.63c-.07-.06-.15-.1-.25-.17.2-.16.4-.33.6-.46L7,142.37l.47-.3c.13-.5-.15-1.21-.6-1l-.59-1v-1.63c.52,0,.37-1,0-1.28,0-.54.08-1.08.13-1.62-.05-.34-.1-.64-.12-1,.19-.1.39-.19.59-.32-.37-1,.19-1.82,0-2.91l.61-1.43c-.12-.58-.87-.16-.59-1l.48-.62c-.12-.28-.24-.55-.34-.82-.12-.08-.25-.11-.37-.19s-.07-.2-.12-.34c.25-.26.5-.49.73-.78.19.31.39.55.58.83.46-.49.59-1,.39-.93-.22-.14-.1-.44-.12-.68s0-.68.23-.63l0-.81c-.06-1.29.26-2.92-.17-3.89.65-1.22-.13-3.38.32-4.51-.41-.59-.1-1.86-.4-2.79s.45-1,.42-1.59c.45-.11,0-1.12-.06-1.8,0-.47.1-.94.17-1.44-.3-1.17,1-2,.23-2.89.07-.54.15-1.07.21-1.61-.11-.75-.41-1.19,0-2a4.46,4.46,0,0,1-.06-2.7c.09-.44.19-.87.24-1.32,0-.23.05-.46.09-.73l0-.12a1.21,1.21,0,0,1,.05-.14l.06-.09,0,0h0v0l.05-.08.19-.34c.37-.19.48-.71.9-.47L12,94.62l.6-.39.55-.4c-.13-.4.24-.7,1-1.11a1.53,1.53,0,0,0,.34-.17.62.62,0,0,0,.19-.21,1,1,0,0,0,.11-.49,1.94,1.94,0,0,1,.07-1.11,2.61,2.61,0,0,1,.08-.64c.07-.19.12-.39.18-.61A1.7,1.7,0,0,0,14.84,88l-.29.41a3.08,3.08,0,0,1-.3.33l0,.25a.49.49,0,0,1,.08.59.71.71,0,0,1-.68.3c0-.13.05-.26.07-.39s0-.27,0-.4-.06-.34-.08-.51-.08-.35-.12-.56l.23,0c0-.19.08-.41.11-.62s.06-.44.08-.67H13.7V86.3c0-.3-.09-.62-.11-.94V85l.13-.68.06-.34.07-.33a3,3,0,0,0-.45-.42,2.87,2.87,0,0,1,0-.38c.05-.28.08-.54.14-.83s.12-.57.19-.86l.24-.89.32-.89-.08-.5c.14-.22.29-.49.43-.71l.31.16c.26-.15.51-.34.77-.46a6.36,6.36,0,0,0,.17.72,3,3,0,0,0-.07.43c0,.14,0,.29,0,.44s0,.29,0,.44l.05.44,0,.43.06.41c0,.14,0,.27,0,.41s0,.26,0,.38a.77.77,0,0,0-.34.68c0,.15,0,.31,0,.5s0,.4,0,.63l.24,0c0,.86.12,1.74.21,2.58-.19.56.31.41.45.69l0,.82a20.29,20.29,0,0,1,.4,2.31,8.09,8.09,0,0,1-3.17,4.63l-.56.41-.52.37-1,.73c-.32.25-.62.51-.9.77l-.2.21,0,0h0c-.25-.27.56.63-.57-.62h0a.28.28,0,0,0,.1.09l.16.1.18.09.23.11,0,0h0v0c0,.08,0,.29,0,.48a2.82,2.82,0,0,1-.34.87,1.57,1.57,0,0,0,.07,1.27c0,.36,0,.76,0,1.13-.37,1.3-.27,2.12-.65,2.7.13.92.59.68.55,1l0,.67a2.14,2.14,0,0,0,.06,1.45c-.31.89,0,1-.05,1.28v.17l-.06,1.94,0,.47c-.14.47-.28,1-.39,1.43l0,2,0,.8h-.1c-.31,1.67-.06,4-.36,5.31a9.21,9.21,0,0,1,.08,2.6c-.45.22-.16.83-.39,1.26,0,.34-.08.64-.11,1-.12,1.07.17,2.5-.41,3.22.17.54.31,1.09.45,1.63l-.35.33v.81c-.15,0-.4-.15-.47.12a2.33,2.33,0,0,0,.71,1.64c-.11.33-.18.67-.26,1s.07.54.12.81l.47.52c-.25.3-.47.63-.72.92.1.41.17.78.24,1.16s.08.78.13,1.15v.3c0,.44,0,.88,0,1.32l-.38.63c.05.81.45,1.63,0,2.43,0,.74-.07,1.51-.11,2.26,0,.57-.44.9-.59,1.44Z"/><path class="cls-12" d="M9.89,136a6.46,6.46,0,0,1,.13-.81c.15-.53-.25-.61-.5-.82.05-.31.1-.64.13-.94-.15-.24-.32-.45-.47-.69H8.84a2.33,2.33,0,0,1-.71-1.64c.07-.27.32-.09.47-.12v-.81L9,129.8c-.14-.54-.28-1.09-.45-1.63.58-.72.29-2.15.41-3.22,0-.34.08-.64.11-1,.23-.43-.06-1,.39-1.26a9.21,9.21,0,0,0-.08-2.6c.3-1.34.05-3.64.36-5.31h.1l0-.8,0-2c.11-.47.25-1,.39-1.43l0-.47.06-1.94V108c.06-.27-.26-.39.05-1.28a2.14,2.14,0,0,1-.06-1.45l0-.67c0-.3-.42-.06-.55-1,.38-.58.28-1.4.65-2.7,0-.37,0-.77,0-1.13a1.57,1.57,0,0,1-.07-1.27,2.82,2.82,0,0,0,.34-.87c0-.19,0-.4,0-.48v0h0l0,0-.23-.11L10.23,97l-.16-.1a.28.28,0,0,1-.1-.09h0c1.13,1.25.32.35.57.62h0l0,0,.2-.21c.28-.26.58-.52.9-.77l1-.73.52-.37.56-.41a8.09,8.09,0,0,0,3.17-4.63,20.29,20.29,0,0,0-.4-2.31l0-.82c-.14-.28-.64-.13-.45-.69-.09-.84-.16-1.72-.21-2.58l-.24,0c0-.23,0-.44,0-.63s0-.35,0-.5a.77.77,0,0,1,.34-.68c0-.12,0-.25,0-.38s0-.27,0-.41l-.06-.41,0-.43-.05-.44c0-.15,0-.29,0-.44s0-.3,0-.44a3,3,0,0,1,.07-.43,6.36,6.36,0,0,1-.17-.72c-.26.12-.51.31-.77.46l-.31-.16q.11-.27.21-.57l.25-.6a2.08,2.08,0,0,1-.1-.66,1.35,1.35,0,0,1,.4-.89l.64-.71.64-.64.3-.29c.28-.21.53-.42.82-.6l.58-.71c.2-.23.38-.47.6-.68a6.48,6.48,0,0,1,1.58-1.26,18.92,18.92,0,0,1,2.85-1.42l.2-.07.09.34c-.35.23-.67.41-1,.65,0,.11-.48.41-.2.59A2.39,2.39,0,0,1,24,70.39a3.88,3.88,0,0,0,.59,0,1.66,1.66,0,0,0,.65-.2c.25-.09.45-.21.7-.29q.91.09,1.8.24c-.72.2-1.45.43-2.15.7-.37.13-.74.29-1.13.44l-1.16.49c-.39.15-.77.33-1.15.46a10.42,10.42,0,0,1-1.11.38,1.2,1.2,0,0,0-.45.35,1.65,1.65,0,0,0-.21.42,1.23,1.23,0,0,1-.48.73C19.34,75,18.87,76,18.38,77c.06.24.11.5.17.74a6.52,6.52,0,0,0-.49,1l-.07.11a5.23,5.23,0,0,0-.55.41,5.93,5.93,0,0,0-.53.47,8.63,8.63,0,0,0,.6.73l.33-.34c.11-.11.21-.23.34-.34l.32.15c0,.08,0,.14.05.18l-.23.57-.17.57c-.06.14-.11.3-.16.46a2.25,2.25,0,0,0-.08.24l-.07.24a1.45,1.45,0,0,1,.32.2c-.05.26-.06.57-.09.87s.07.49.09.75l.09.78a5.18,5.18,0,0,1,.37,1.56,6.68,6.68,0,0,1,0,1.09q0,.32-.09.66c0,.25-.09.49-.16.78-.13.44,0,1-.18,1.21a10.21,10.21,0,0,1-.29,1.83l-.23.46a2.4,2.4,0,0,1-.11.23l-.14.21a5.39,5.39,0,0,1-.6.82,9.25,9.25,0,0,1-2.45,2.74l-.24.11a1.38,1.38,0,0,1-.22.1l-.4.17c-.45.12-.46.5-.71.7a9.88,9.88,0,0,0-1.2.85l-.12.1,0,0h0L10,96.76h0l0,0,.08,0,.11.07.12.06.13.07c.22.11.41.16.71.28l.41.13.23.07.16,0a.28.28,0,0,1,0,.06c0,.16-.07.42-.1.67,0,.82,0,1.71,0,2.59H12l0,.33c-.09.29-.19.61-.31.93a6.7,6.7,0,0,0,0,1.9l-.26.31.31,1.13c-.06.26-.09.53-.15.79.11.24.35.4.31.69s-.17.49-.25.79a1.83,1.83,0,0,0,.09.81c-.07.5-.14,1.07-.18,1.6l0,.94h.22c0,.34.08.68.1,1h-.13c0,.34.08.65.1,1l0,1c.09.47-.23,1.29.2,1.92l-.39,1.12c.21.42,0,1,.22,1.46l-.49.62c.12.24.22.44.34.65,0,.5-.1,1-.15,1.47h.12v.94l0,1.61h-.22a4.72,4.72,0,0,1-.46-2.57h-.22c-.37,1.43,0,2.66-.42,3.21a14.73,14.73,0,0,0,.07,4.86L9.8,130l.12.48c-.05.33-.08.63-.13,1h.47l.84,1.17c.12-.16.22-.32.35-.49.12.34.52,0,.47.52-.1.27-.23.53-.36.8a3,3,0,0,0-.47-.35l-.47.62a6,6,0,0,1-.51,2.92Z"/><path class="cls-7" d="M8.7,134.48c0-.27-.07-.54-.12-.81s.15-.64.26-1h.34c.15.24.32.45.47.69,0,.3-.08.63-.13.94a7,7,0,0,1-.35.66Z"/><path class="cls-7" d="M23,86.2a5.72,5.72,0,0,0-.12-.68L23,84.6c0-.26.05-.57.08-.78l.35,0a8.83,8.83,0,0,1,.08-.9,1,1,0,0,0,.27-.12A.83.83,0,0,1,24,83a.43.43,0,0,1,.05.12.39.39,0,0,1,0,.15.78.78,0,0,1,0,.14l-.06.15a1,1,0,0,1-.21.3l.34.13c-.05.61-.11,1.36-.17,2.25,0,.36,0,.69-.07,1.06l-.05.58,0,.29,0,.32a4.29,4.29,0,0,0-.73.14c0-.49,0-.88,0-1.3,0-.22,0-.39,0-.58S23,86.37,23,86.2Z"/><path class="cls-9" d="M28.25,68.38c-.21-.51.44-.6,1-.7s1.09-.23.68-.92c-.08-.19-.13-.39-.22-.58l0-.47,1.12-.09c.11-.18.22-.33.34-.51l1.48-.53c.52.58.5.83.5,1-.29.11-.59.19-.88.28a8.21,8.21,0,0,1,.18.83v.7l1.21,0c0,.12.1.24.14.37a8.69,8.69,0,0,1,.32.94c-.55,0-1.11.11-1.67.15h-.18v-.6a3.71,3.71,0,0,1-.5-.23c-.47.2-.93.37-1.39.59a8,8,0,0,1,.4,1v.12a4.52,4.52,0,0,1-.15.61,4.86,4.86,0,0,1,.53.31c0,.25.11.47.15.71v.13l-.92.29c-.59.08-.86-.42-1-.73l-.06-.59c-.08-.12-.12-.23-.2-.35.15-.22.31-.43.44-.65,0-.14-.13-.31-.18-.45a2.29,2.29,0,0,0,.13-.27C29.1,68.66,28.68,68.54,28.25,68.38Z"/><path class="cls-7" d="M30.21,64.57l.95.54c-.12.18-.23.33-.34.51l-1.12.09a3.57,3.57,0,0,0-.42-.46C29.63,65,29.89,64.82,30.21,64.57Z"/><path class="cls-7" d="M36.17,70.53c-.19-.4-.38-.8-.6-1.2v-.22a1.79,1.79,0,0,0,.18-.37c0-.5-.06-1-.11-1.54s-.56-.85,0-.85h.52l0,.72c.36.55,1.22,1,.25,1.54.75.63,1.11,1.61.09,1.92-.19.44-.37.86-.53,1.31h-.5a2.15,2.15,0,0,1-.29-.25C35.5,71.24,35.85,70.9,36.17,70.53Z"/><path class="cls-8" d="M6.86,150.35c.34-.13.94.28,1.18-.8.05.54.09,1.09.15,1.63-.29.54-1.16.77-1.32,0Z"/><path class="cls-8" d="M13.09,151.51l-.73-.3c-.82-1.68.54-.77.2-1.94l0-.81.37-1,.24,1.77c.14.78.27,1.51.41,2.24Z"/><path class="cls-8" d="M12.89,145.89c-.45-.48-1.29,0-1-1.13.22-.46.57-.42.84-.65C12.81,144.71,12.84,145.32,12.89,145.89Z"/><path class="cls-8" d="M5,143.81a1,1,0,0,1,.25-.8v-1c0-.34-.1-.64-.13-1a1.58,1.58,0,0,0,.35-.16h.13V142c.12.21.25.45.35.65a2.51,2.51,0,0,0-.22.34,11,11,0,0,0,.13,1.12l-.13.16C5.47,144.13,5.25,144,5,143.81Z"/><path class="cls-8" d="M10.24,143.25c-.4-1.05-.35-1.73,0-1.92C10.58,142.35,10.66,142.92,10.24,143.25Z"/><path class="cls-8" d="M14.78,139.66c.07-1,.15-1.94.22-2.88l.25-.33a5.55,5.55,0,0,0-.24-.64l.23-12.06.71.33A6.53,6.53,0,0,0,16,127.3c-.26,1.09.37,2,.31,3.22-.2.06-.47-.12-.59.15-.09,1.14,1.17,2.18.23,3.06.09.5.21,1,.34,1.48-.08.37-.16.73-.26,1.1a3.15,3.15,0,0,1-.22.33c0,.36-.08.73-.13,1.1,0,.6.65,1.56-.12,1.77a2.26,2.26,0,0,1,.25,1c-.35-.14-.47.42-1,.61Z"/><path class="cls-8" d="M5.48,133.57v-1h.37v1Z"/><path class="cls-8" d="M5.38,130c-.32-.52-.44-.93,0-1Z"/><path class="cls-8" d="M5.78,126.45c-.69-2.16-.15-3.76-.17-5.52a32.6,32.6,0,0,1,0-7.32c.23-.16.11-.54.14-.81a.77.77,0,0,0-.12-.17c-.22-3.45.44-6.52-.07-9.84.24-.26.14-.75.19-1.13a6.18,6.18,0,0,1-.07-2.26c0-.43.1-.87.16-1.33l.1-.71.13-.81a1,1,0,0,1,0-.42,2.61,2.61,0,0,1,.23-.87,1.34,1.34,0,0,1,.07-.18,2.69,2.69,0,0,1,.16-.29l.08-.15a1.78,1.78,0,0,0,.12-.18,3.43,3.43,0,0,1,.43-.5l.16-.16,0,0,.09-.08c.12-.1.25-.21.38-.3a9.37,9.37,0,0,0,1.33-1,9.46,9.46,0,0,0,1.12-.74l.21-.18.1-.08s0,0,.07-.07l.2-.24a2.78,2.78,0,0,1,.93-.82c0,.14.35.46.22.86l.54.5a5.25,5.25,0,0,1-.66.59l-.35.26-.09.06-.11.07-.25.17a3,3,0,0,0-.37-.33c-.17.27-.39.6-.63.92a12.06,12.06,0,0,0-1.3.92l-.34.28-.17.15-.08.07,0,0-.09.08L7.92,95l-.16.2,0,.07,0,.06a1.71,1.71,0,0,0-.13.23l0,0,0,0,0,.07-.06.15,0,.12,0,.1a1.43,1.43,0,0,1,0,.18c-.06.23-.09.39-.12.55-.23.66-.44,1.39,0,1.89-.06.35-.14.66-.22,1,0,.56,0,1.12,0,1.67s0,1,0,1.48v.17c0,.39.11.77.19,1.18s0,.75,0,1.13.06.79.07,1.16-.1.74-.17,1.11l-.11,3.25,0,1,0,1,0,.64c-.15.3,0,.85-.36.8a4.81,4.81,0,0,0,.19,2.14c-.76.71-.53,2.92-.45,4,0,1.75-.22,3-.2,5Z"/><path class="cls-8" d="M15.15,121.63c0-.73,0-1.47,0-2.24l.39-.92c.62.33.06,1.27.57,1.6.32.41-.12,1.1-.28,1.59v1.14c-.18-.07-.25.19-.6.31C15.23,122.61,15.19,122.14,15.15,121.63Z"/><path class="cls-8" d="M15,111.69c0-.46.11-1,.17-1.42l.24-.49c-.19-.81-.63-.5-.56-1a4.92,4.92,0,0,0-.1-.67l0-.47c.07-.59.15-1.15.2-1.74.38-.6.27-1.46,0-2.66.14-.58.25-1.15.36-1.68-.1-.33-.2-.62-.27-.94.07-.58.18-1.16.28-1.67,0-.24.07-.47.09-.56v0h0l-.7-.13-.7-.15L13.44,98l-.62-.15-.55-.14c-.18,0-.36-.1-.53-.15l-.24-.07-.22-.07-.43-.16a2.55,2.55,0,0,1-.35-.14c-.12-.06-.2-.09-.28-.14l-.12-.08-.08,0,0,0h0l3.91,4.31h0a1.09,1.09,0,0,0,.38,0l.21-.14.28-.17s0-.1.05-.17l.81-.47a4.36,4.36,0,0,0,.64,0h.19l.22,0,.45-.08c.69-.35.75-.82,1.4-1.19.32-.26.62-.54.91-.82s.56-.59.82-.9.72-1,1-1.42a2.33,2.33,0,0,0-.23-.55c.15-.27.3-.53.43-.8s.41-.74.61-1.13.36-.81.54-1.23.21-1.1.27-1.64l.08-.82c0-.28,0-.53.05-.75l0-.19a4.29,4.29,0,0,1,.73-.14c0,.23.07.45.11.75v.23l0,.25,0,.52A6,6,0,0,1,23.46,92c0,.37-.12.75-.19,1.13,0,.18-.09.37-.13.56l-.17.54a6.29,6.29,0,0,1-1.08,2.3l-.58.8-.15.2a.79.79,0,0,1-.14.18l-.3.35a15.82,15.82,0,0,1-3.09,2.5l-.42.26-.38.22-.28.15-.25.14-.84.42a1.79,1.79,0,0,1-.13.22c-.32.1-.5.13-.59.06h0L10,96.76h0l.05,0,.1.08.16.1a1.54,1.54,0,0,1,.19.09,3.43,3.43,0,0,0,.48.19q.3.12.6.21l.16,0,.18.06.36.1.77.2.83.19.41.08.46.1.9.18.45.08.48.09.12,0h0a.26.26,0,0,0-.11.07.53.53,0,0,0-.13.2.41.41,0,0,0,0,.36c0,.21,0,.44,0,.67-.24.6.52.23.42.76-.19.16-.35.36-.54.53,0,.46-.64,1.28,0,1.4a2.38,2.38,0,0,0-.09,1.54c-.18.58-.08.68.18,1.42-.63.06-.61.26-.16.78a7.73,7.73,0,0,0-.26,3.46c-.09.46-.29,1.15.08,1.3a21,21,0,0,0,0,3.37c.63-.34.3.85.19,1.11-.73.53-.06,1.9-.75,2.54,0-.57-.43-.93-.46-1.46C15.09,115,15.05,113.33,15,111.69Z"/><path class="cls-8" d="M12,89.7c-.08-.42-.09-.93.34-1.06C12.69,88.89,12.43,89.25,12,89.7Z"/><path class="cls-8" d="M12.26,87a2.11,2.11,0,0,1-.1-1.68C12.5,85.28,12.56,86,12.26,87Z"/><path class="cls-8" d="M12.17,84.6a2.47,2.47,0,0,1-.26-1A2.63,2.63,0,0,1,12,82.7l0-.4c0-.13,0-.27,0-.41l.12-.84a2.17,2.17,0,0,1,.19.47,2,2,0,0,1,0,.49,4.86,4.86,0,0,1-.16.72c0,.34,0,.64-.06,1S12.18,84.3,12.17,84.6Z"/><path class="cls-8" d="M12.63,79.26c0-.14,0-.27,0-.39l0-.35a3.44,3.44,0,0,1,.13-.61,3.06,3.06,0,0,1,.5-1c.1-.31.24-.6.36-.9s.26-.59.4-.88l.24-.46.28-.45.28-.45.29-.42a7,7,0,0,0,.59-.72c.17-.24.32-.48.5-.72s.35-.48.58-.74a6.83,6.83,0,0,1,.87-.75l.73-.67c.26-.21.52-.42.8-.63a2.15,2.15,0,0,1,.68-.27,5.43,5.43,0,0,0,.74-.22c-.06.2-.11.41-.16.61-.39.22-.74.39-1.12.63s-.52.23-.77.36l-.78.37c-.05.26-.07.47-.09.67a2.42,2.42,0,0,0-.58.37.76.76,0,0,0-.27.66,3.85,3.85,0,0,0-.3.27,4.52,4.52,0,0,0-.71.59,1.15,1.15,0,0,0-.34.87,4.15,4.15,0,0,0-.27.32,9.9,9.9,0,0,0-1,.93,2.11,2.11,0,0,0-.26.74,3.1,3.1,0,0,1-.47,1A13.76,13.76,0,0,0,12.63,79.26Z"/><path class="cls-8" d="M23.93,67.12c-.11-.45.22-.66.68-.79s1-.14,1.42-.22c.6-.62,2.1-.58,2.08-1.2.7-.17.7,0,1.17.34a3.57,3.57,0,0,1,.42.46,22.29,22.29,0,0,0-2.43.65l-.6.11-.2,0c-.16.08-.36.14-.55.23l-1,.17Z"/><path class="cls-8" d="M30.21,64.57c-.13-.26-.35-.57,0-.6a1.61,1.61,0,0,1,.78-.74,1.92,1.92,0,0,1,.75.49,4.9,4.9,0,0,0,.92.73l.35-.7c.07.4.49.48.91.53s.8,0,.83.27v.25c.31.3.76.63,1,.83l0,.72c-.59,0-.22.47,0,.85s.1,1,.11,1.54a1.79,1.79,0,0,1-.18.37l-1.47-.38a8.69,8.69,0,0,0-.32-.94c0-.13-.11-.25-.14-.37l-.52-.69v-1.1c0-.22,0-.47-.5-1l-1.48.53Z"/><path class="cls-8" d="M35.11,74.1c.18-.35.35-.55.64-.47a.77.77,0,0,1,.6,1,1.24,1.24,0,0,1-1.25-.11Z"/><path class="cls-11" d="M12.9,147.2c-.27-.31-.41-1.29,0-1.31.18.44.82.08.73.81C13.37,146.87,13.12,147,12.9,147.2Z"/><path class="cls-11" d="M12.87,143.3c-.34-.1-.2-.57-.12-.8.07-.51.14-1.08.24-1.61.65.28.62,1.19.6,2C13.34,143,13.1,143.17,12.87,143.3Z"/><path class="cls-11" d="M16.72,74.12l-.64.64-.64.71a1.35,1.35,0,0,0-.4.89,2.08,2.08,0,0,0,.1.66,2.08,2.08,0,0,1-.1-.66,1.35,1.35,0,0,1,.4-.89l.64-.71Z"/><path class="cls-11" d="M16.79,73.57c.3-.39.84-.65.77-1.38.16-.23.36-.47.52-.7s.37-.32.55-.47.38-.31.57-.45a7.37,7.37,0,0,1,1.19-.42c.27-.41.93-.6,1.34-1.08.43-.19.87-.37,1.31-.53,0,.26.19.44.61.55l-.2.07a18.92,18.92,0,0,0-2.85,1.42A6.48,6.48,0,0,0,19,71.84c-.22.21-.4.45-.6.68l-.58.71c-.29.18-.54.39-.82.6Z"/><path class="cls-11" d="M29.7,65.71l0,.47c-.49.17-.95.32-1.45.51s-.65-.13-1-.33A22.29,22.29,0,0,1,29.7,65.71Z"/><path class="cls-9" d="M14,155.78c-.8-.52-.42-1.65-.56-2.5a8.33,8.33,0,0,0,.84-.17C14.22,154,14.12,154.92,14,155.78Z"/><path class="cls-9" d="M15,136.78c-.12-.27-.62-.12,0-1a5.55,5.55,0,0,1,.24.64Z"/><path class="cls-9" d="M11.1,132.63l-.84-1.17H9.79c.05-.34.08-.64.13-1L9.8,130l.48-.62a14.73,14.73,0,0,1-.07-4.86c.38-.55,0-1.78.42-3.21h.22a4.72,4.72,0,0,0,.46,2.57h.22l0-1.61v-.94h-.12c.05-.5.11-1,.15-1.47-.12-.21-.22-.41-.34-.65l.49-.62c-.24-.42,0-1-.22-1.46l.39-1.12a1.59,1.59,0,0,0,.22.18c-.37,1,.7,1.17,0,1.61l0,.81c0,.43-.09.86-.12,1.27s.21.88.32,1.32c-.08.37-.16.73-.26,1.1.09.24.16.44.24.68-.13.3-.26.63-.37.93.15.27.09.64-.26,1.47-.13-.18-.25-.35-.35-.52-.38.93.12,1.08.09,1.45a6.84,6.84,0,0,0,.1,1.79c0,.94,0,1.85,0,2.75v1.28C11.32,132.31,11.22,132.47,11.1,132.63Z"/><path class="cls-9" d="M11.75,113.12c0-.33-.06-.64-.1-1h.13c0-.3-.06-.64-.1-1h-.22l0-.94c0-.53.11-1.1.18-1.6a1.83,1.83,0,0,1-.09-.81c.08-.3.17-.52.25-.79.18.62.52.71.43,1.77-.07.6-.14,1.17-.18,1.77v.16l.18,1.46c0,.33-.09.63-.13,1l-.4,1Z"/><path class="cls-9" d="M15.19,110.27a2.07,2.07,0,0,1-.57-.67c.08-.29.17-.52.25-.78-.07.46.37.15.56,1Z"/><path class="cls-9" d="M11.83,100.93c0-.88,0-1.77,0-2.59,0-.25.07-.51.1-.67a.28.28,0,0,0,0-.06l-.16,0-.23-.07-.41-.13c-.3-.12-.49-.17-.71-.28L10.32,97,10.2,97l-.11-.07-.08,0,0,0h0l1.48,1.63h0l0,0,.12-.1a9.88,9.88,0,0,1,1.2-.85c.25-.2.26-.58.71-.7l.4-.17a1.38,1.38,0,0,0,.22-.1l.24-.11a9.25,9.25,0,0,0,2.45-2.74,5.39,5.39,0,0,0,.6-.82l.14-.21a2.4,2.4,0,0,0,.11-.23l.23-.46a9.22,9.22,0,0,1-.28,1l-.18.51c-.06.17-.15.32-.22.49-.39.54-.61.93-.95,1.36a4.83,4.83,0,0,1-1.72,1.37l-.68.57-.57.47-.66.59a3.11,3.11,0,0,0-.49.54l-.12.09-.06,0,0,0h0l-2-2.18h0v0l0,0,.08.06a2,2,0,0,0,.25.14l.16.08.17.07.39.15.44.14.51.15c.18.06.36.1.54.15l.08,0h0a1.58,1.58,0,0,0-.1.26c0,.11-.06.24-.1.38.23.52-.14,1.21-.28,1.58s-.15.63-.2.92Z"/><path class="cls-9" d="M16.44,99.38c.17-.08.34-.13.5-.21A12.1,12.1,0,0,0,18,97.74c.13-.12.26-.23.42-.39A8.28,8.28,0,0,0,21,95.19a2.33,2.33,0,0,1,.23.55c-.31.47-.69,1-1,1.42s-.54.61-.82.9-.59.56-.91.82c-.65.37-.71.84-1.4,1.19l-.45.08-.22,0h-.19a4.36,4.36,0,0,1-.64,0C15.83,99.94,16,99.74,16.44,99.38Z"/><path class="cls-13" d="M19.69,93.93a3.56,3.56,0,0,0,.24-.48l.11.07a4.29,4.29,0,0,0,.34-.76,2.43,2.43,0,0,0,.12-.61c0-.19,0-.39.07-.6a7.4,7.4,0,0,1,.12-.77c.1-.41.14-1.11.43-1a3.71,3.71,0,0,0,.11-.78,1.83,1.83,0,0,0-.06-.51,2.37,2.37,0,0,0-.15-.4l-.19-.36a9.92,9.92,0,0,0,.09-2.27,7.49,7.49,0,0,1,0-1.78,1.21,1.21,0,0,0,0-.33.5.5,0,0,0-.09-.21.67.67,0,0,0-.39-.23c-.33-.1-.75-.09-1-.16-.05-.36.39-.45.57-.63,0-.14,0-.27,0-.4s0-.25,0-.38a1.82,1.82,0,0,1-.29-.32c.08-.25.3-.49-.17-.8.08-.15.13-.29.22-.44l-.39-.5a4.16,4.16,0,0,0,.5-.61c.07-.12.14-.23.2-.36a3.71,3.71,0,0,0,.15-.4,6.76,6.76,0,0,1,.5-.66.59.59,0,0,0,.38-.11.78.78,0,0,0,.23-.3,7.57,7.57,0,0,1,.44-.95l.25-.17c.26.12.48.24.73.37l.59-.49c.21-.15.4-.32.62-.47l.6-.78.78-.43-.1-.33c.15-.14.35-.27.5-.42s.44-.13.66-.18.46-.12.67-.17c.28-.42.61-.83.92-1.27l.47-.07c.18.6.37.54.53.53.28-.19.08-.49.09-.74s.44-.38.33-.15c.16.31.43.81,1,.73l.92-.29a3,3,0,0,0,1.13.17l1.13,0v.72a4.4,4.4,0,0,0-.65.26c.06.54.13,1.09.16,1.66v.12h-.59c-.5,0-1-.06-1.49,0l-.3,0-.85.08c-.19.15-.28.41-.55.41l-.54.09c-.28-.09-.57-.13-.88-.2a3.62,3.62,0,0,0-1.54.52c.14.19.28.41.42.6L28,75.81c-.23.38-.87.42-.75.79-.22.08-.42.18-.63.26l-.57.25a10.57,10.57,0,0,0-1.63,1.77c.64-.46.84-.07,1.09.05a1.34,1.34,0,0,0,0,.4l-.61.07.47.7a3.92,3.92,0,0,0-.27.33,3.47,3.47,0,0,0-.29-.25.58.58,0,0,1-.32.24,1.42,1.42,0,0,1-.35,0,.65.65,0,0,0-.29,0,.28.28,0,0,0-.07.29l.09.08c-.07.06-.11.13-.18.2l-.09.1-.07.1a2.93,2.93,0,0,0-.07.48l.52.31s-.06.08-.07.11l-.06.12s0,.07-.05.1a.08.08,0,0,1,0,0s0,.06,0,.08l-.5,0a2.73,2.73,0,0,0-.49.06.27.27,0,0,1-.15-.19,1.38,1.38,0,0,1,0-.2c0-.1,0-.2-.3-.31a3.39,3.39,0,0,0-.45.15c0,.08,0,.17,0,.25a.22.22,0,0,0,0,.13.6.6,0,0,0,.14.13c0,.92.09,2,.18,3.43l0,1.08c0,.19,0,.4,0,.6s0,.39,0,.61-.06.36-.1.54l-.11.63c0,.4-.07.82-.14,1.23s-.14.83-.24,1.22a12.55,12.55,0,0,1-.75,1.46l-.21.47c-.09.2-.14.35-.25.59a3.26,3.26,0,0,1-.26.42,3.52,3.52,0,0,1-.55.55C19.79,94.85,19.61,94.84,19.69,93.93Z"/><path class="cls-9" d="M21,93.47a13.87,13.87,0,0,0,.55-1.57c.1-.39.17-.81.24-1.22s.1-.83.14-1.23c.24-.26.45-.49.67-.69l-.46-.48c0-.22,0-.4,0-.61s0-.41,0-.6l0-1.08c.25-.17.5-.3.72-.47a5.72,5.72,0,0,1,.12.68c0,.17,0,.37,0,.55s0,.36,0,.58c0,.42,0,.81,0,1.3l0,.19c0,.22,0,.47-.05.75l-.08.82c-.06.54-.17,1.08-.27,1.64s-.36.83-.54,1.23-.4.76-.61,1.13C21.31,94.08,21.15,93.77,21,93.47Z"/><path class="cls-9" d="M18.36,88.82c.07-.29.12-.53.16-.78s.07-.45.09-.66a6.68,6.68,0,0,0,0-1.09,5.18,5.18,0,0,0-.37-1.56,5.18,5.18,0,0,1,.37,1.56,6.68,6.68,0,0,1,0,1.09q0,.32-.09.66C18.48,88.29,18.43,88.53,18.36,88.82Z"/><path class="cls-10" d="M22.3,81.9c.33.11.34.21.3.31a1.38,1.38,0,0,0,0,.2.27.27,0,0,0,.15.19,2.73,2.73,0,0,1,.49-.06l.5,0,0,.13v.08a.28.28,0,0,1,0,.09,1,1,0,0,1-.27.12l-.59-.07a.35.35,0,0,0,0,.28.65.65,0,0,0,.11.22.56.56,0,0,1,.11.2.33.33,0,0,1,0,.25c0,.21,0,.52-.08.78l-.09.92c-.22.17-.47.3-.72.47-.09-1.47-.21-2.51-.18-3.43a.6.6,0,0,1-.14-.13.22.22,0,0,1,0-.13c0-.08,0-.17,0-.25A3.39,3.39,0,0,1,22.3,81.9Z"/><path class="cls-9" d="M23.06,83.82a.33.33,0,0,0,0-.25.56.56,0,0,0-.11-.2.65.65,0,0,1-.11-.22.35.35,0,0,1,0-.28l.59.07a8.83,8.83,0,0,0-.08.9Z"/><path class="cls-9" d="M17.84,82.13l.07-.24a2.25,2.25,0,0,1,.08-.24c.05-.16.1-.32.16-.46l.22.06a2.57,2.57,0,0,1,.06.4.63.63,0,0,1-.07.26,2.51,2.51,0,0,1-.2.42A1.45,1.45,0,0,0,17.84,82.13Z"/><path class="cls-9" d="M16.91,79.67a5.93,5.93,0,0,1,.53-.47,5.23,5.23,0,0,1,.55-.41l.07-.11a6.52,6.52,0,0,1,.49-1,3.61,3.61,0,0,1-.26-.63,2.3,2.3,0,0,0,.15-.32l.14-.32c.08-.21.15-.43.25-.64a3.64,3.64,0,0,1,.35-.63,3.51,3.51,0,0,1,.61-.61c-.23-.15,0-.31.22-.48s.43-.33.12-.53a4.72,4.72,0,0,1,2.69-1.68c.51-.14,1-.28,1.51-.44a5.43,5.43,0,0,0,1.42-.72c.38-.13.93-.12,1.17-.37-.3-.27-.86-.09-1-.4l-.08-.36.68-.27.68-.25a2.33,2.33,0,0,1,.55.26c0,.28,0,.58,0,.86a5.66,5.66,0,0,1-2.39,1.77l-.51.33c-.17.12-.33.25-.48.37l.57-.08a5.65,5.65,0,0,1,.58,0l.18.67c-.15.15-.35.28-.5.42s-.59.2-.85.32l-.44.12-.44.13c-.61.47-1,1-1.56,1.45l.07.11-.25.17A10.56,10.56,0,0,0,20.44,77c-.19.24-.35.49-.51.7s-.29.24-.45.35l-.12.21-.12.23c-.07.15-.16.29-.23.44a2,2,0,0,1,0,.31,7.52,7.52,0,0,0-.47.64l-.32-.15c-.13.11-.23.23-.34.34l-.33.34A8.63,8.63,0,0,1,16.91,79.67Z"/><path class="cls-10" d="M24.37,78.88A10.57,10.57,0,0,1,26,77.11l.57-.25c.21-.08.41-.18.63-.26-.12-.37.52-.41.75-.79L26.76,76c-.14-.19-.28-.41-.42-.6a3.62,3.62,0,0,1,1.54-.52c.31.07.6.11.88.2L29.3,75c.27,0,.36-.26.55-.41l.85-.08c-.08.23-.15.48-.22.74l.86-.07h.12l0,.35,0,.72c.2.61.41.7.33.93s-.36.19-.52.28l-.46-.56c-.58,0-1.19,0-1.48.52l.08.59c-.44.06-.84.14-1.26.23l-.55.27c-.17.1-.36.18-.52.28a.94.94,0,0,1-.32.31,1.81,1.81,0,0,1-.37.18c-.11.11-.24.2-.35.3s-.23.2-.33.3a4.64,4.64,0,0,0-.44.26l-.47-.7.61-.07a1.34,1.34,0,0,1,0-.4C25.21,78.81,25,78.42,24.37,78.88Z"/><path class="cls-9" d="M29.46,78l-.08-.59c.29-.51.9-.47,1.48-.52l.46.56-.9.3C30.31,78,29.78,77.89,29.46,78Z"/><path class="cls-9" d="M30.7,74.48l.3,0c.49,0,1,0,1.49,0l-1,.64h-.12l-.86.07C30.55,75,30.62,74.71,30.7,74.48Z"/><path class="cls-9" d="M31.51,76.21l0-.72,1,.3a2,2,0,0,1-.15.38c-.17.33-.36.64-.52,1C31.92,76.91,31.71,76.82,31.51,76.21Z"/><path class="cls-9" d="M33.08,74.36c.92-.14,1.51-.49,2-.26v.37a4.62,4.62,0,0,0-.34.47c-.57-.15-1.11-.32-1.68-.46Z"/><path class="cls-12" d="M13.48,153.28c-.14-.43-.27-.83-.38-1.27v-.5h.47c.23.34.49.64.74,1l0,.63A8.33,8.33,0,0,1,13.48,153.28Z"/><path class="cls-12" d="M11.38,126.32c0-.37-.47-.52-.09-1.45.1.17.22.34.35.52C11.56,125.69,11.48,126,11.38,126.32Z"/><path class="cls-12" d="M25.1,68.66a3.66,3.66,0,0,0,1.69-1.35l-.12-.84.6-.11c.35.2.51.55,1,.33s1-.34,1.45-.51c.09.19.14.39.22.58.41.69-.1.81-.68.92s-1.22.19-1,.7c.29-.07.59-.16.88-.22-.16.35.33.42.38.66a2.29,2.29,0,0,1-.13.27l-.7.08-.7.1-.19,0a2.33,2.33,0,0,0-.55-.26.76.76,0,0,0-.81-.42c-.32,0-.65.16-.9.18A1.36,1.36,0,0,0,25.1,68.66Z"/><path class="cls-12" d="M31.46,75.14l1-.64h.15c-.06.43-.08.88-.13,1.3l-1-.3Z"/><path class="cls-12" d="M32.44,66.84v-.1h.69l.52.69-1.21,0Z"/><path class="cls-10" d="M21.89,89.45l.11-.63c0-.18.07-.36.1-.54l.46.48C22.34,89,22.13,89.19,21.89,89.45Z"/><path class="cls-10" d="M23.41,81.75a2.93,2.93,0,0,1,.07-.48l.07-.1.09-.1c.07-.07.11-.14.18-.2l-.09-.08a.28.28,0,0,1,.07-.29.65.65,0,0,1,.29,0,1.42,1.42,0,0,0,.35,0,.58.58,0,0,0,.32-.24,3.47,3.47,0,0,1,.29.25c-.27.47-.29.79-.56.93a3.79,3.79,0,0,0-.56.7Z"/><path class="cls-10" d="M21.41,78.72c.16-.18.34-.35.5-.5a4.65,4.65,0,0,1,.66,0,2,2,0,0,0,.65-.45,4.62,4.62,0,0,0,.48-.52,1.55,1.55,0,0,1,1.23-.65l.11.22-.28.19-.26.21c-.17.13-.33.28-.49.43a3.39,3.39,0,0,1-.44.39,5.42,5.42,0,0,1-.52.39l-.26.2-.14.1-.12.1-.26.2-.23.21Z"/><path class="cls-10" d="M21.92,75.62c.58-.49.95-1,1.56-1.45l.44-.13.44-.12c.26-.12.56-.22.85-.32l.1.33-.78.43-.6.78c-.22.15-.41.32-.62.47l-.59.49c-.25-.13-.47-.25-.73-.37Z"/><path class="cls-10" d="M24.38,72.63c.42-.66.7-.74,1-.7a5.66,5.66,0,0,0,2.39-1.77h.68l.68,0c.08.12.12.23.2.35l.06.59c.11-.23-.22-.07-.33.15s.19.55-.09.74c-.16,0-.35.07-.53-.53l-.47.07c-.31.44-.64.85-.92,1.27-.21,0-.44.1-.67.17s-.45.11-.66.18l-.18-.67a5.65,5.65,0,0,0-.58,0Z"/><path class="cls-10" d="M30.78,69.81l.34,0,1.14-.9h.18c.56,0,1.12-.1,1.67-.15l1.47.38v.22c.22.4.41.8.6,1.2-.32.37-.67.71-1,1.06a2.15,2.15,0,0,0,.29.25H36c.73.3.34.87.42,1.32l-.65.46c-.29-.08-.46.12-.64.47-.52-.23-1.11.12-2,.26,0-.57-.1-1.12-.16-1.66a4.4,4.4,0,0,1,.65-.26v-.72l-1.13,0a3,3,0,0,1-1.13-.17v-.13c0-.24-.11-.46-.15-.71a4.86,4.86,0,0,0-.53-.31A4.52,4.52,0,0,0,30.78,69.81Z"/><path class="cls-10" d="M32.26,65.91c.29-.09.59-.17.88-.28v1.1h-.69A8.21,8.21,0,0,0,32.26,65.91Z"/><path class="cls-13" d="M15.13,99.09c-.1-.23-.18-.45-.27-.62a.69.69,0,0,0-.14-.2l0,0-.41-.09L13.72,98c-.36-.07-.73-.17-1.07-.25s-.61-.16-.92-.25l-.24-.08-.31-.09-.33-.13-.29-.11-.2-.1L10.21,97l-.14-.09L10,96.79l0,0h0l3.36,3.7h0l.07,0,.45.53h0L10,96.76h0l0,0,.08,0,.12.08c.08.05.16.08.28.14a2.55,2.55,0,0,0,.35.14l.43.16.22.07.24.07c.17,0,.35.11.53.15l.55.14.62.15.63.14.7.15.7.13h0v0c0,.09-.06.32-.09.56Z"/><path class="cls-13" d="M27.79,69.3l.19,0,.7-.1.7-.08c.05.14.13.31.18.45-.13.22-.29.43-.44.65l-.68,0h-.68C27.76,69.88,27.79,69.58,27.79,69.3Z"/><path class="cls-13" d="M31.4,68.08l.36,0a3.71,3.71,0,0,0,.5.23v.6l-1.14.9-.34,0v-.12a8,8,0,0,0-.4-1C30.72,68.44,31.08,68.27,31.4,68.08Z"/><path class="cls-11" d="M23.65,69.09c.27-.22.54-.43.83-.63-.14-.24-.26-.52-.4-.76l.68-.19.68-.17c.3-.2.22-.38.48-.6s.39-.15.55-.23l.2,0,.12.84a3.66,3.66,0,0,1-1.69,1.35,1.36,1.36,0,0,1,.43.14c.3-.07.6-.15.91-.21.65-.33.83.12.8.45l-.68.25-.68.27.08.36c-.25.08-.45.2-.7.29a1.66,1.66,0,0,1-.65.2,3.88,3.88,0,0,1-.59,0,2.39,2.39,0,0,0-1.49.28c-.28-.18.24-.48.2-.59.34-.24.66-.42,1-.65Z"/><path class="cls-7" d="M24.08,67.7l-.15-.58,1-.21,1-.17c-.26.22-.18.4-.48.6l-.68.17Z"/><path class="cls-8" d="M5.38,129v-1C5.37,128.36,5.84,128.14,5.38,129Z"/><path class="cls-8" d="M20.62,68.68a3.53,3.53,0,0,1,.59-.55,6.92,6.92,0,0,1,.81-.48,7.31,7.31,0,0,1,1-.36,5.43,5.43,0,0,1,.95-.17l.15.58-.54.15-.27.07L23,68c-.37.11-.74.22-1.11.36l-.62.14Z"/><path class="cls-11" d="M15.76,77.89a3.63,3.63,0,0,1,.24-1,4,4,0,0,1,.37-.63c.59.07.59.38.39.72A3.67,3.67,0,0,1,15.76,77.89Z"/><path class="cls-11" d="M9.17,135a7,7,0,0,0,.35-.66c.25.21.65.29.5.82a6.46,6.46,0,0,0-.13.81C9.39,136,9.74,135.19,9.17,135Z"/><path class="cls-9" d="M11.83,107c0-.29-.2-.45-.31-.69.06-.26.09-.53.15-.79l-.31-1.13.26-.31a6.7,6.7,0,0,1,0-1.9c.12-.32.22-.64.31-.93,0,.26.2.45.31.66-.05.72-.1,1.48-.14,2.21a5.11,5.11,0,0,1-.29,1.41C11.81,105.92,12.12,106.11,11.83,107Z"/></g></g></g><path class="cls-2" d="M35.38,76.1a15.76,15.76,0,0,0-8.27,1.74,16.48,16.48,0,0,0-6.35,5.86,15,15,0,0,0-1.05,1.93,15.17,15.17,0,0,0-.78,2.07,16.91,16.91,0,0,0-.71,4.36c0,.38,0,.71,0,1.07v1c0,.7,0,1.4,0,2.1,0,1,0,2.11,0,3.17h-1l-2,0-4,.07h-.92l0,.89.18,14.15.18,14.14c.05,4.72.13,9.43.2,14.15L11,157a.09.09,0,0,0,.1.1.1.1,0,0,0,.1-.1l.23-14.14c.07-4.72.16-9.43.21-14.15l.17-14.14L12,101.37l3.15,0,2,0,2,0h1v-1c0-1.39,0-2.79,0-4.18,0-.7,0-1.4,0-2.1v-1c0-.35,0-.71,0-1a15,15,0,0,1,.5-3.89,14.26,14.26,0,0,1,.62-1.88,13.19,13.19,0,0,1,.85-1.78,16,16,0,0,1,2.36-3.2,16,16,0,0,1,4.88-3.52l.47-.2a3.9,3.9,0,0,1,.47-.2c.32-.11.63-.25,1-.35a17.7,17.7,0,0,1,4.05-.78.09.09,0,0,0,.09-.09A.11.11,0,0,0,35.38,76.1Z"/></g></g></svg>