<svg id="Calque_1" data-name="Calque 1" xmlns="http://www.w3.org/2000/svg" xmlns:xlink="http://www.w3.org/1999/xlink" viewBox="0 0 64 64"><defs><style>.cls-1{fill:#fff;}.cls-2{opacity:0.2;fill:url(#Dégradé_sans_nom_8);}</style><radialGradient id="Dégradé_sans_nom_8" cx="-226.36" cy="50.45" r="17.6" gradientTransform="translate(260.2 45.4) scale(1.01 0.1)" gradientUnits="userSpaceOnUse"><stop offset="0" stop-color="#1d1d1b"/><stop offset="1" stop-color="#1d1d1b" stop-opacity="0"/></radialGradient></defs><title>LOGO SVG 64</title><path class="cls-1" d="M32,1.48A30.52,30.52,0,1,1,1.48,32,30.55,30.55,0,0,1,32,1.48m0-1A31.5,31.5,0,1,0,63.5,32,31.5,31.5,0,0,0,32,.5Z"/><ellipse class="cls-2" cx="32" cy="50.45" rx="25" ry="2.18"/><path class="cls-1" d="M10.63,17.58,23,22.7,11.88,15.28c-.25.39-.49.8-.71,1.21S10.8,17.21,10.63,17.58Z"/><path class="cls-1" d="M12.86,23.89h9.65L13.08,22l-.09.5C12.93,23,12.88,23.42,12.86,23.89Z"/><path class="cls-1" d="M10.66,13.69l12.75,8.52L12.57,11.37a20.08,20.08,0,0,0-1.69,2Z"/><path class="cls-1" d="M11.29,21,22.7,23.27,12,18.83a14.88,14.88,0,0,0-.56,1.67C11.37,20.67,11.33,20.84,11.29,21Z"/><rect class="cls-1" x="28.98" y="41.3" width="6.73" height="0.91" rx="0.45" ry="0.45"/><path class="cls-1" d="M45.06,36.1a6.82,6.82,0,1,1-6.82,6.82,6.83,6.83,0,0,1,6.82-6.82m0-.6a7.43,7.43,0,1,0,7.42,7.42,7.42,7.42,0,0,0-7.42-7.42Z"/><path class="cls-1" d="M45.06,35.81a7.12,7.12,0,1,0,7.11,7.11A7.11,7.11,0,0,0,45.06,35.81Zm6.5,6.82h-5l4.6-1.91A6.36,6.36,0,0,1,51.56,42.63ZM51,40.16l-4.6,1.91,3.52-3.52A6.49,6.49,0,0,1,51,40.16Zm-1.5-2-3.52,3.52,1.9-4.6A6.54,6.54,0,0,1,49.45,38.12Zm-4.08-1.7a6.68,6.68,0,0,1,1.9.38l-1.9,4.61Zm-.61,0v5L42.85,36.8A6.42,6.42,0,0,1,44.76,36.42ZM42.3,37l1.91,4.61-3.53-3.52A6.4,6.4,0,0,1,42.3,37Zm-2,1.51,3.53,3.53-4.61-1.91A6.83,6.83,0,0,1,40.25,38.54Zm-1.31,2.18,4.61,1.91h-5A6.36,6.36,0,0,1,38.94,40.72Zm-.38,2.51h5l-4.61,1.91A6.36,6.36,0,0,1,38.56,43.23Zm.61,2.47,4.61-1.91-3.52,3.52A6.53,6.53,0,0,1,39.17,45.7Zm1.51,2,3.53-3.52-1.91,4.6A6.83,6.83,0,0,1,40.68,47.74Zm4.08,1.68a6.67,6.67,0,0,1-1.9-.37l1.9-4.6Zm-.94-6.5a1.25,1.25,0,1,1,1.24,1.25A1.24,1.24,0,0,1,43.82,42.92Zm1.55,6.5v-5L47.27,49A6.35,6.35,0,0,1,45.37,49.42Zm2.46-.61-1.9-4.59,3.51,3.51A6.49,6.49,0,0,1,47.83,48.81Zm2-1.51-3.52-3.51,4.6,1.9A6.58,6.58,0,0,1,49.87,47.3Zm1.31-2.17-4.6-1.9h5A6.23,6.23,0,0,1,51.18,45.13Z"/><path class="cls-1" d="M45.83,42.92a.77.77,0,1,1-.77-.76A.76.76,0,0,1,45.83,42.92Z"/><path class="cls-1" d="M16.77,31.35a9.77,9.77,0,1,0,9.77,9.77A9.76,9.76,0,0,0,16.77,31.35Zm0,18.93a9.15,9.15,0,1,1,6.48-2.68A9.1,9.1,0,0,1,16.77,50.28Z"/><path class="cls-1" d="M16.77,31.76a9.36,9.36,0,1,0,9.36,9.36A9.36,9.36,0,0,0,16.77,31.76Zm6,15.76a8.89,8.89,0,0,1-2.34,1.57l-2.73-6.6a1.62,1.62,0,0,1-.56.23l2.73,6.6a8.57,8.57,0,0,1-2.76.54V42.73a1.63,1.63,0,0,1-.31,0,1.53,1.53,0,0,1-.3,0v7.13a8.52,8.52,0,0,1-2.76-.54l2.73-6.6a1.62,1.62,0,0,1-.56-.23l-2.73,6.6a8.55,8.55,0,0,1-2.35-1.57l5-5.05a1.56,1.56,0,0,1-.43-.42l-5.05,5A8.89,8.89,0,0,1,8.8,44.75L15.4,42a1.62,1.62,0,0,1-.23-.56l-6.6,2.73A8.58,8.58,0,0,1,8,41.42h7.14a1.51,1.51,0,0,1,0-.6H8a8.64,8.64,0,0,1,.55-2.77l6.59,2.73a2.13,2.13,0,0,1,.23-.56L8.8,37.49a8.86,8.86,0,0,1,1.57-2.35l5.05,5a1.72,1.72,0,0,1,.42-.43l-5-5a8.43,8.43,0,0,1,2.34-1.57l2.74,6.59a1.5,1.5,0,0,1,.55-.23l-2.73-6.6a8.91,8.91,0,0,1,2.77-.54V39.5l.3,0a1.63,1.63,0,0,1,.31,0V32.37a8.64,8.64,0,0,1,2.77.55l-2.74,6.59a1.76,1.76,0,0,1,.56.24l2.73-6.6a8.78,8.78,0,0,1,2.35,1.57L17.7,39.77a1.6,1.6,0,0,1,.43.43h0l5-5.05a8.55,8.55,0,0,1,1.57,2.35l-6.6,2.73a1.54,1.54,0,0,1,.23.56L25,38.05a8.92,8.92,0,0,1,.55,2.77H18.38a1.51,1.51,0,0,1,0,.6h7.14A8.92,8.92,0,0,1,25,44.19l-6.6-2.73a1.5,1.5,0,0,1-.23.55l6.6,2.74a8.89,8.89,0,0,1-1.57,2.34L18.12,42a1.6,1.6,0,0,1-.43.43Z"/><path class="cls-1" d="M17.78,41.12a1,1,0,1,1-1-1A1,1,0,0,1,17.78,41.12Z"/><path class="cls-1" d="M54.73,33.51H53.24a.65.65,0,0,0-.36.1,9.34,9.34,0,0,1-1.62.79,1,1,0,0,1-.92-.08,10.09,10.09,0,0,0-1.65-.81l-.64-.22a10.42,10.42,0,0,0-2.25-.43,0,0,0,0,1,0,0V27.23l0,0a10.2,10.2,0,0,0-3-1.07l-.07,0A9.52,9.52,0,0,0,41.45,26l-.25,0h-.42v0h-.4l-.66,0s-.06,0,0-.06A10.93,10.93,0,0,0,40,23.11a11.29,11.29,0,0,0-.16-1.86,0,0,0,0,0,0,0H39.5s0,0,0,0a8.52,8.52,0,0,0-.22,6.29.85.85,0,0,0,.79.56h2.58a0,0,0,0,1,0,0v4.95s0,0,0,0l-.5.14c-.25.07-.5.16-.74.25a10.11,10.11,0,0,0-2.69,1.54,10.35,10.35,0,0,0-3,3.85s0,0,0,0H29.15v-11A10.6,10.6,0,0,0,26,24.71H15.23a.05.05,0,0,0-.05.06,10.58,10.58,0,0,0,1.18,3.33l.1.17a.05.05,0,0,0,0,0h.2a12.92,12.92,0,0,1,2.26.2,12.57,12.57,0,0,1,4.78,1.94l0,0v1.07s0,.06-.08,0a11.61,11.61,0,0,0-6.56-2.32h-.46a11.06,11.06,0,0,0-2.16.21l-.28.06a11.62,11.62,0,0,0-1.68.49l-.13,0c-.41.17-.82.36-1.22.57-.24.13-.48.28-.72.43s-.41.26-.6.4l-.41.32a.85.85,0,0,0-.32.67.83.83,0,0,0,.25.6.21.21,0,0,0,.29,0h0A11.47,11.47,0,0,1,11.1,32c.23-.14.47-.28.72-.41a8.76,8.76,0,0,1,1-.47L13.2,31a11,11,0,0,1,1.52-.41l.26,0a10.39,10.39,0,0,1,1.68-.14h0a12.32,12.32,0,0,1,1.5.1,10.32,10.32,0,0,1,3.08.95,10.19,10.19,0,0,1,2.48,1.67l.06.06.22.21.15.14a12,12,0,0,1,.93,1.08,10.42,10.42,0,0,1,1,1.56,10.84,10.84,0,0,1,.57,1.36s0,0,0,0A10.34,10.34,0,0,1,27,38.93a8.68,8.68,0,0,1,.16,1.26h0l.09.44a.07.07,0,0,0,0,0H36.7a.07.07,0,0,0,0,0,7.42,7.42,0,0,1,.53-1.38l.07-.15a1.62,1.62,0,0,1,.1-.18,8.63,8.63,0,0,1,2.36-2.77,8.78,8.78,0,0,1,2.85-1.43l.07,0a8.1,8.1,0,0,1,1.21-.24c.21,0,.43,0,.65-.06h1.17a8.29,8.29,0,0,1,2.29.51l.33.13h0c.29,0,.59,0,.89,0h.18c.28,0,.55,0,.82,0h0c.26,0,.53-.06.79-.1l.12,0,.14,0a10.49,10.49,0,0,0,3.39-1.31A0,0,0,0,0,54.73,33.51Z"/><rect class="cls-1" x="48.97" y="35.5" width="8.03" height="1.05" rx="0.53" ry="0.53"/></svg>