<svg id="Calque_1" data-name="Calque 1" xmlns="http://www.w3.org/2000/svg" viewBox="0 0 64 64"><defs><style>.cls-1{fill:#fff;}</style></defs><title>LOGO SVG 64</title><polygon class="cls-1" points="41.09 37.73 32.05 44.21 22.76 37.58 26.1 27.1 37.59 27.1 41.09 37.73"/><polygon class="cls-1" points="31.61 44.53 17.28 54.79 22.59 38.1 31.61 44.53"/><polygon class="cls-1" points="46.66 54.63 32.49 44.52 41.26 38.25 46.66 54.63"/><polygon class="cls-1" points="55.94 27.1 41.53 37.42 38.13 27.1 55.94 27.1"/><polygon class="cls-1" points="37.42 26.59 26.26 26.59 31.75 9.38 37.42 26.59"/><polygon class="cls-1" points="25.56 27.1 22.32 37.27 8.06 27.1 25.56 27.1"/><path class="cls-1" d="M32,1.48A30.52,30.52,0,1,1,1.48,32,30.55,30.55,0,0,1,32,1.48m0-1A31.5,31.5,0,1,0,63.5,32,31.5,31.5,0,0,0,32,.5Z"/></svg>