<svg xmlns="http://www.w3.org/2000/svg" xmlns:xlink="http://www.w3.org/1999/xlink" viewBox="0 0 64 64"><defs><style>.cls-1{isolation:isolate;}.cls-2{fill:#a1173b;}.cls-3{opacity:0.2;fill:url(#Dégradé_sans_nom_8);}.cls-4{fill:#f39c6c;}.cls-5{opacity:0.8;mix-blend-mode:multiply;}.cls-6{opacity:0.9;}.cls-7{fill:#fce0cf;}.cls-8{fill:#fdebe0;}.cls-9{fill:#f8c09d;}.cls-10{fill:#f7b58d;}.cls-11{fill:#fbd5bc;}.cls-12{fill:#facbad;}.cls-13{fill:#f5a97e;}</style><radialGradient id="Dégradé_sans_nom_8" cx="-221.92" cy="47.65" r="14.93" gradientTransform="translate(259.52 42.88) scale(1.01 0.1)" gradientUnits="userSpaceOnUse"><stop offset="0" stop-color="#1d1d1b"/><stop offset="1" stop-color="#1d1d1b" stop-opacity="0"/></radialGradient></defs><title>LOGO SVG 64</title><g class="cls-1"><g id="Calque_1" data-name="Calque 1"><path class="cls-2" d="M32,1.48A30.52,30.52,0,1,1,1.48,32,30.55,30.55,0,0,1,32,1.48m0-1A31.5,31.5,0,1,0,63.5,32,31.5,31.5,0,0,0,32,.5Z"/><ellipse class="cls-3" cx="35.79" cy="47.65" rx="21.21" ry="1.85"/><path class="cls-2" d="M17.67,19.77l10.48,4.34-9.42-6.3c-.22.34-.42.68-.61,1S17.81,19.45,17.67,19.77Z"/><path class="cls-2" d="M19.56,25.12h8.19l-8-1.59c0,.14,0,.28-.07.42A9.09,9.09,0,0,0,19.56,25.12Z"/><path class="cls-2" d="M17.69,16.47,28.5,23.7l-9.19-9.2a15.5,15.5,0,0,0-1.43,1.7Z"/><path class="cls-2" d="M18.23,22.67l9.67,1.92-9.09-3.76a11.85,11.85,0,0,0-.48,1.42C18.3,22.39,18.26,22.53,18.23,22.67Z"/><rect class="cls-4" x="33.23" y="39.89" width="5.71" height="0.77" rx="0.38" ry="0.38"/><path class="cls-2" d="M46.87,35.48a5.79,5.79,0,1,1-5.78,5.79,5.8,5.8,0,0,1,5.78-5.79m0-.51a6.3,6.3,0,1,0,6.3,6.3,6.3,6.3,0,0,0-6.3-6.3Z"/><path class="cls-4" d="M46.87,35.23a6,6,0,1,0,6,6A6,6,0,0,0,46.87,35.23ZM52.39,41H48.16l3.91-1.61A5.75,5.75,0,0,1,52.39,41Zm-.52-2.09L48,40.54l3-3A5.77,5.77,0,0,1,51.87,38.92Zm-1.28-1.73-3,3,1.61-3.91A5.39,5.39,0,0,1,50.59,37.19Zm-3.46-1.44a5.43,5.43,0,0,1,1.62.33L47.13,40Zm-.51,0V40L45,36.07A5.75,5.75,0,0,1,46.62,35.75Zm-2.09.52,1.62,3.91-3-3A5.39,5.39,0,0,1,44.53,36.27Zm-1.74,1.28,3,3-3.9-1.62A5.45,5.45,0,0,1,42.79,37.55Zm-1.11,1.84L45.59,41H41.36A5.18,5.18,0,0,1,41.68,39.39Zm-.32,2.14h4.23l-3.91,1.61A5.36,5.36,0,0,1,41.36,41.53Zm.52,2.09L45.78,42l-3,3A5.77,5.77,0,0,1,41.88,43.62Zm1.28,1.73,3-3-1.62,3.9A5.45,5.45,0,0,1,43.16,45.35Zm3.46,1.43A5.75,5.75,0,0,1,45,46.46l1.62-3.9Zm-.8-5.51a1.06,1.06,0,1,1,1,1A1.05,1.05,0,0,1,45.82,41.27Zm1.31,5.51V42.56l1.62,3.9A5.75,5.75,0,0,1,47.13,46.78Zm2.09-.52-1.61-3.9,3,3A5.77,5.77,0,0,1,49.22,46.26ZM51,45l-3-3,3.9,1.61A5.39,5.39,0,0,1,51,45Zm1.11-1.84-3.9-1.61h4.23A5.43,5.43,0,0,1,52.06,43.14Z"/><path class="cls-2" d="M47.52,41.27a.65.65,0,1,1-.65-.65A.65.65,0,0,1,47.52,41.27Z"/><path class="cls-2" d="M22.87,31.45a8.29,8.29,0,1,0,8.29,8.28A8.28,8.28,0,0,0,22.87,31.45Zm0,16.06a7.78,7.78,0,1,1,5.5-2.28A7.7,7.7,0,0,1,22.87,47.51Z"/><path class="cls-4" d="M22.87,31.8a7.94,7.94,0,1,0,7.94,7.93A7.94,7.94,0,0,0,22.87,31.8Zm5.07,13.36a7.45,7.45,0,0,1-2,1.33L23.63,40.9a1.29,1.29,0,0,1-.47.19l2.32,5.6a7.12,7.12,0,0,1-2.35.46v-6a1.1,1.1,0,0,1-.26,0,1.06,1.06,0,0,1-.25,0v6a7.22,7.22,0,0,1-2.35-.46l2.32-5.59a1.52,1.52,0,0,1-.47-.2L19.8,46.5a7.7,7.7,0,0,1-2-1.33l4.28-4.29a1.23,1.23,0,0,1-.36-.36L17.45,44.8a7.28,7.28,0,0,1-1.34-2l5.6-2.32a1.52,1.52,0,0,1-.2-.47l-5.59,2.31A7.38,7.38,0,0,1,15.45,40h6.06a1.24,1.24,0,0,1,0-.27,1.07,1.07,0,0,1,0-.25H15.45a7.78,7.78,0,0,1,.46-2.35l5.6,2.32a1.31,1.31,0,0,1,.2-.47l-5.6-2.32a7.37,7.37,0,0,1,1.33-2L21.73,39a1.24,1.24,0,0,1,.36-.36l-4.28-4.28a7.18,7.18,0,0,1,2-1.34l2.31,5.6a1.44,1.44,0,0,1,.48-.2l-2.32-5.59a7.5,7.5,0,0,1,2.35-.47v6.06a1.07,1.07,0,0,1,.25,0,1.09,1.09,0,0,1,.26,0V32.31a7.39,7.39,0,0,1,2.35.47l-2.31,5.59a1.52,1.52,0,0,1,.47.2L26,33a7.25,7.25,0,0,1,2,1.33l-4.28,4.28A1.37,1.37,0,0,1,24,39h0l4.29-4.28a7.7,7.7,0,0,1,1.33,2L24,39a1.29,1.29,0,0,1,.19.47l5.6-2.31a7.11,7.11,0,0,1,.46,2.34H24.24a1.06,1.06,0,0,1,0,.25,2.45,2.45,0,0,1,0,.27h6.05a7.37,7.37,0,0,1-.46,2.34L24.23,40a1.42,1.42,0,0,1-.19.48l5.59,2.31a7.15,7.15,0,0,1-1.33,2L24,40.52a1.54,1.54,0,0,1-.36.36Z"/><path class="cls-2" d="M23.73,39.73a.86.86,0,1,1-.86-.85A.85.85,0,0,1,23.73,39.73Z"/><path class="cls-4" d="M55.08,33.28H53.81a.53.53,0,0,0-.3.09,9.77,9.77,0,0,1-1.38.67.86.86,0,0,1-.78-.07,8.67,8.67,0,0,0-1.4-.69l-.54-.19a8.6,8.6,0,0,0-1.91-.36,0,0,0,0,1,0,0V28l0,0A8.71,8.71,0,0,0,44.9,27l-.06,0c-.34-.06-.68-.1-1-.13h-.57v0h-.9s-.05,0,0-.05a9.51,9.51,0,0,0,.29-2.35,9.07,9.07,0,0,0-.13-1.57s0,0,0,0h-.26l0,0a7.31,7.31,0,0,0-.19,5.34.74.74,0,0,0,.68.47H44.8a0,0,0,0,1,0,0v4.19s0,0,0,0-.29.07-.43.12a6.45,6.45,0,0,0-.62.21,8.7,8.7,0,0,0-2.28,1.3,8.44,8.44,0,0,0-1.21,1.18,7.93,7.93,0,0,0-.76,1A8.24,8.24,0,0,0,39,37.86l0,0H33.37V28.55a9,9,0,0,0-2.66-2.73s0,0,0,0H21.57a0,0,0,0,0-.05.05,8.8,8.8,0,0,0,1,2.82,1.09,1.09,0,0,0,.08.15.05.05,0,0,0,0,0h.16a11,11,0,0,1,1.92.17,10.75,10.75,0,0,1,4.06,1.65,0,0,0,0,1,0,0v.91a0,0,0,0,1-.06,0,10,10,0,0,0-5.57-2h-.39a10,10,0,0,0-1.83.17l-.24.05a9.71,9.71,0,0,0-1.42.43l-.11,0a9.79,9.79,0,0,0-1,.48c-.21.11-.41.23-.61.36s-.35.23-.51.35l-.35.26a.73.73,0,0,0-.06,1.08.18.18,0,0,0,.25,0h0a9.39,9.39,0,0,1,1.2-.9c.2-.13.4-.25.61-.36s.58-.28.88-.4l.3-.11a8.72,8.72,0,0,1,1.29-.35l.21,0a9.73,9.73,0,0,1,1.43-.11h0a10.73,10.73,0,0,1,1.28.08,8.89,8.89,0,0,1,4.71,2.22l.06,0,.18.18.12.12a8.79,8.79,0,0,1,.8.92,9.39,9.39,0,0,1,.82,1.32,7.86,7.86,0,0,1,.48,1.16s0,0,0,0a9.76,9.76,0,0,1,.31,1.18A9.48,9.48,0,0,1,31.72,39h0l.07.38s0,0,0,0h8s0,0,0,0a7.86,7.86,0,0,1,.45-1.17l.06-.13a1.09,1.09,0,0,0,.08-.15,7.46,7.46,0,0,1,2-2.35,7.36,7.36,0,0,1,2.42-1.22h.06a8.37,8.37,0,0,1,1-.21l.55-.05h.38l.43,0h.18a7.08,7.08,0,0,1,1.95.43l.28.11h0c.25,0,.5,0,.76,0h.15l.69,0h0c.23,0,.45-.05.67-.09l.11,0,.12,0a9.16,9.16,0,0,0,2.87-1.11S55.12,33.28,55.08,33.28Z"/><rect class="cls-4" x="50.19" y="34.97" width="6.81" height="0.89" rx="0.45" ry="0.45"/><g class="cls-5"><g class="cls-6"><g class="cls-6"><path class="cls-7" d="M9.59,49.26c.09,0,.12-.14.22-.1v.18l0,.15a.3.3,0,0,1-.19,0C9.6,49.44,9.57,49.37,9.59,49.26Z"/><path class="cls-7" d="M7.21,47.38c0-.19,0-.37,0-.56s0-.25,0-.36v-.1c0-.16,0-.33,0-.5V45.5l0,0c0-.12,0-.23,0-.35l.07-.1a1.28,1.28,0,0,0-.11-.2v-.36h0c0-.29,0-.57,0-.86,0-.47,0-.94.05-1.41h.11v-.3H7.15l0-.8v-.3c.14-.28,0-.21,0-.31s.08-.22.12-.35V40l.08-.3c0-.63,0-1,.06-1.56,0-.34-.1-1,.14-1.24a1.56,1.56,0,0,1-.06-.67c.11,0,.06-.15.11-.25v-.81l0-1c0-.12,0-.23,0-.35s0-.24,0-.36,0-.23,0-.35,0-.25-.06-.37v0c0-.15,0-.31,0-.46s0-.34,0-.52,0-.2.07-.31c-.13-.16-.06-.39,0-.59s0-.1,0-.17,0,0,0-.06l0,0a0,0,0,0,1,0,0l0,0v0h0v0a.43.43,0,0,1,0-.07v0l0,0,0-.06,0-.06,0,0H8l0,0,.06,0,.1-.08.4-.29a2.17,2.17,0,0,0,.2-.29l.12.11L9,29.42l0,0,0,0,.11-.08a.91.91,0,0,0,.21-.18L9.18,29a.31.31,0,0,0-.07-.26l0,0v0l0-.08c.13-.14.21-.25.11-.33l0-.51c.1-.3.08-.53,0-.53v-.5c0-.1,0-.19,0-.3a1.31,1.31,0,0,0,.05-.22.38.38,0,0,0,0-.15.45.45,0,0,0-.06-.15l.06-.28c0-.09,0-.19.07-.27a4.19,4.19,0,0,1,.27-.68,1,1,0,0,0,.15-.32.45.45,0,0,1,.08-.22,2.87,2.87,0,0,1,.31-.29.39.39,0,0,1,.08-.1.36.36,0,0,1,.11-.27,1.24,1.24,0,0,1,.22-.19l.09-.08a.28.28,0,0,1,.08-.21.73.73,0,0,1,.18-.11q0-.09,0-.21l.25-.11a1.33,1.33,0,0,1,.24-.11,3.79,3.79,0,0,1,.34-.2c0-.06,0-.13,0-.19l.2-.06.19,0,.35-.11.08,0,.09,0,.17,0,.12.23-.26.2-.06,0a1,1,0,0,0-.19-.17,3.12,3.12,0,0,0-.34.14c-.13.15-.33.21-.42.34a1.49,1.49,0,0,0-.37.13l-.17.14-.18.14-.16.22c0,.23-.14.31-.24.43l.07.08a.75.75,0,0,1-.09.09l-.2.2-.2.22a.42.42,0,0,0-.12.27.66.66,0,0,0,0,.21l-.08.18A1.89,1.89,0,0,1,10,25l-.14.22,0,.16-.1.28c0,.09-.05.18-.08.27s0,.18-.05.27,0,.17-.05.26l.13.24,0,.11,0,.1,0,.22c0,.06,0,.13,0,.2l0,.19v.15h.07a1.23,1.23,0,0,1,0,.2,1.18,1.18,0,0,1,0,.2H9.64c0,.12,0,.16,0,.2s.06.07.06.13a.53.53,0,0,0,0,.13s0,.08,0,.12a.24.24,0,0,0,.21-.1.14.14,0,0,0,0-.18v-.08a.47.47,0,0,0,.1-.1l.09-.13a.73.73,0,0,1,.1.25.5.5,0,0,1,0,.21,1.21,1.21,0,0,1-.05.18.69.69,0,0,0,0,.2.7.7,0,0,0,0,.35.4.4,0,0,1,0,.15l-.06.07-.11.05c-.24.12-.35.22-.32.34a1,1,0,0,1-.17.12l-.18.13-.39.25c-.13-.07-.16.08-.28.15l-.06.1v0h0s0,0,0,0l0,0v0c0,.08,0,.15,0,.23s0,.27-.08.41a1.39,1.39,0,0,0,0,.83c-.13.25,0,.38,0,.61s0,.34-.07.5c.23.28-.16.54-.07.9,0,.16,0,.3-.05.45s.16.52,0,.56c0,.19-.19.23-.13.49s0,.69.12.87c-.14.35.1,1-.1,1.4a3.66,3.66,0,0,1,.05,1.21v.25c-.08,0-.07.12-.07.2s0,.16,0,.21,0,.13-.11.29h0l-.15-.25a2.45,2.45,0,0,0-.19.35l.12.05c0,.09.07.17.1.26l-.14.19c-.09.26.14.13.18.31l-.19.45c.05.34-.12.6,0,.9l-.18.1c0,.11,0,.2,0,.31a4,4,0,0,0,0,.5c.11.1.16.39,0,.4v.5l.18.31c.14-.07.23.15.19.31l-.15.09.07.21c0,.06-.07.14-.11.2v.5a1.17,1.17,0,0,0,.11.4h.15l.15.2a2.72,2.72,0,0,1-.07.71c-.07.34-.26.21-.36.25v.25l-.22.15C7.21,47.81,7.2,47.58,7.21,47.38Z"/><path class="cls-7" d="M10,46c-.09-.2-.06-.3,0-.39C10.17,45.72,10.25,46,10,46Z"/><path class="cls-8" d="M9.18,44.93a1.71,1.71,0,0,1-.11-.14c.06-.4-.11-.74,0-1.15-.26-.17-.3.13-.44,0s0-.19-.11-.3h0a.62.62,0,0,0-.33-.11c0-.12-.05-.24-.08-.36s.15-.2.23-.29c.17.06.06.3.22.3l.07.21a1.91,1.91,0,0,0,.16-.9l.14-.2.15.11a1.42,1.42,0,0,0,0,.2c0,.2,0,.4,0,.6a2.42,2.42,0,0,1,0,.25l.23.11.11.31c0,.11-.05.22-.08.34s0,.27.08.41v.09c0,.17-.05.34-.07.5Z"/><path class="cls-9" d="M9.66,47.74c0-.23-.09-.46-.13-.69l-.07-.56V46.4l.23-.15c0-.23-.17-.12-.23-.26s0-.36,0-.55,0-.16,0-.25l.22-.14c0-.24,0-.52-.19-.61v-.09c0-.14-.11-.25-.08-.41s0-.23.08-.34l-.11-.31v-.35a.18.18,0,0,0-.26,0c0-.2,0-.4,0-.6h.37c.25-.38,0-.84.11-1.35s-.08-1,.1-1.45c.13.79,0,1.58.16,2.16h0c.05.35-.08.73,0,1.15,0,.23.14.43,0,.5v.25a1,1,0,0,1,0,.1c0,.12,0,.24,0,.35h.18a1.15,1.15,0,0,0,.19.46v1.05c-.09.09-.12.19,0,.39,0,.71-.1,1.4-.15,2.09A3.4,3.4,0,0,1,9.66,47.74Z"/><path class="cls-10" d="M10.07,44.51a1.15,1.15,0,0,1-.19-.46H9.7c0-.11,0-.23,0-.35a1,1,0,0,0,0-.1v-.25c.18-.07.09-.27,0-.5,0-.42.09-.8,0-1.15h0c-.13-.58,0-1.37-.16-2.16-.18.46,0,.91-.1,1.45s.14,1-.11,1.35H9.08a1.42,1.42,0,0,1,0-.2,1.89,1.89,0,0,0,.11-.25c0-.15-.11-.05-.15-.16V40.47a2,2,0,0,1,0-.56c0-.09.06-.19.08-.28.11-.26.13-.38.08-.46l.12-.29-.08-.21c0-.11.06-.23.09-.34s-.08-.28-.11-.41,0-.26,0-.4v-.25c.23-.13-.11-.19,0-.5l-.07-.05c-.13-.2,0-.46-.06-.6l.12-.3c0-.1,0-.2,0-.3l-.05-.45v0a5.14,5.14,0,0,1,.06-.55c0-.33-.08-.36-.14-.55.09-.28,0-.34,0-.46A1.43,1.43,0,0,0,9.2,33c0-.22,0-.46.05-.68s-.1-.13-.1-.21V32c0-.09,0-.19.06-.29s.16-.32.09-.49l0-.11a.22.22,0,0,1,0-.08h0s0,0,0,0l-.17,0L9,31l-.13,0-.13-.05,0,0-.05,0-.07-.05,0,0h0c-.13-.14,1.16,1.28.61.68h0l0,0a1.14,1.14,0,0,1,.15-.17L9.58,31l.17-.14.21-.18a1.5,1.5,0,0,0,.54-.43c.1-.13.17-.25.29-.42a1,1,0,0,0,.07-.15l.06-.16a1.67,1.67,0,0,0,.08-.32,2.93,2.93,0,0,0,.09-.57c.06-.07,0-.24.06-.38a2,2,0,0,0,0-.24l0-.2a1.92,1.92,0,0,0,0-.34,1.54,1.54,0,0,0-.11-.48l0-.25,0-.23a2.23,2.23,0,0,1,0-.27.69.69,0,0,0,.06-.13.13.13,0,0,0,0-.08.59.59,0,0,0,0-.13l-.06,0,.05-.17.07-.18s0,0,0-.05a1,1,0,0,1,.15-.2.38.38,0,0,0,0-.1c0-.05.05-.09.07-.14l0-.07,0-.06.14-.11.15-.22c.13-.12.27-.23.41-.34a1.94,1.94,0,0,0-.14.3.22.22,0,0,1-.07.09.19.19,0,0,1-.12,0c-.06.07-.1.15-.15.21s0,.09-.05.13l-.06.1a.74.74,0,0,1-.16.19c0,.06.09.11.13.16a.91.91,0,0,0-.07.14c.14.09.07.17.05.25l.09.1v.11a.53.53,0,0,1,0,.13c-.06,0-.19.08-.18.19s.22,0,.32.05a.35.35,0,0,1,.12.07l0,.07v.1a2.48,2.48,0,0,0,0,.55,2.86,2.86,0,0,1,0,.71L12,28s0,.08,0,.13a.61.61,0,0,1,0,.15,1.29,1.29,0,0,1,0,.25c-.09,0-.1.18-.14.31s0,.17,0,.23a1.37,1.37,0,0,0,0,.19,1.62,1.62,0,0,1,0,.19,1.56,1.56,0,0,1-.11.24.65.65,0,0,1-.11.12c0,.28,0,.29-.06.46a.69.69,0,0,0,.17-.18l.08-.12c0-.08.05-.13.08-.19l.07-.14a4.93,4.93,0,0,0,.23-.46,4,4,0,0,1-.17.49,2.69,2.69,0,0,1,.16.29c0,.08-.09.16-.14.24a2.59,2.59,0,0,1-.81.68L11,31a3.37,3.37,0,0,1-.33.44l-.16.07a3.08,3.08,0,0,0-.25.24l-.25.14L10,32,9.94,32l-.06,0H9.76l-.14-.17h0l-1-1.15h0l0,0,0,0,.05,0,.06,0,.09,0,.1,0L9,31l.08,0,.29.08.33.08.17,0,.13,0h0a.09.09,0,0,1,0,.06,2,2,0,0,1,.09.2l.07,0c0,.16-.06.34-.09.52l.09.3c0,.16-.07.34-.11.52a1.12,1.12,0,0,1,0,.82c0,.19,0,.36-.06.55v.14l0,.21a1.69,1.69,0,0,0-.08.24.61.61,0,0,0,.18.21l-.06.44,0,1.55c0,.17.14.28.15.45v.11l-.13.28v.7c0,.16,0,.3,0,.46v.2l-.07,3.74c-.19.27,0,.22,0,.3l-.07.9Z"/><path class="cls-7" d="M9.14,43.18a2.42,2.42,0,0,0,0-.25.18.18,0,0,1,.26,0v.35Z"/><path class="cls-11" d="M7.71,46.21a1.17,1.17,0,0,1-.11-.4v-.5l-.07-.06.18-.14-.07-.21.15-.09c0-.16,0-.38-.19-.31l-.18-.31v-.5c.16,0,.11-.3,0-.4a4,4,0,0,1,0-.5c0-.11,0-.2,0-.31l.18-.1c-.11-.3.06-.56,0-.9L7.79,41c0-.18-.27-.05-.18-.31l.14-.19c0-.09-.07-.17-.1-.26l-.12-.05a.61.61,0,0,0,0-.11c.07-.08.15-.15.22-.24l.19.26c.14-.16.18-.3.11-.29s0-.14,0-.21,0-.21.07-.2v-.25A3.66,3.66,0,0,0,8,38c.2-.38,0-1,.1-1.4C8,36.39,8.08,36,8,35.7s.14-.3.13-.49c.14,0,0-.35,0-.56s0-.29.05-.45c-.09-.36.3-.62.07-.9,0-.16,0-.33.07-.5s-.13-.36,0-.61a1.39,1.39,0,0,1,0-.83c0-.14.06-.27.08-.41s0-.15,0-.23v0l0,0s0,0,0,0h0v0l.06-.1c.12-.07.15-.22.28-.15l.39-.25.18-.13a1,1,0,0,0,.17-.12c0-.12.08-.22.32-.34l.11-.05.06-.07a.4.4,0,0,0,0-.15.7.7,0,0,1,0-.35.69.69,0,0,1,0-.2,1.21,1.21,0,0,0,.05-.18.5.5,0,0,0,0-.21.73.73,0,0,0-.1-.25l-.09.13a.47.47,0,0,1-.1.1v.08a.14.14,0,0,1,0,.18.24.24,0,0,1-.21.1s0-.08,0-.12a.53.53,0,0,1,0-.13l0-.16a1.36,1.36,0,0,0,0-.17h.07a1.18,1.18,0,0,0,0-.2,1.23,1.23,0,0,0,0-.2H9.7v-.15a2.54,2.54,0,0,1,0-.29v-.1l0-.22,0-.1,0-.11-.14-.12s0-.07,0-.12,0-.17.05-.26,0-.18.05-.27,0-.18.08-.27l.1-.28,0-.16L10,25l.09.05.24-.14a1.16,1.16,0,0,0,.06.22l0,.14v.41l0,.13s0,.09,0,.13,0,.08,0,.12v.13a.21.21,0,0,0-.1.2.92.92,0,0,1,0,.16,1.48,1.48,0,0,1,0,.2h.07c0,.27,0,.54.07.8s.1.13.14.22V28a5.69,5.69,0,0,1,.12.72,2.52,2.52,0,0,1-.38.83,2.49,2.49,0,0,1-.6.61,1.09,1.09,0,0,0-.17.13l-.17.11-.31.23-.28.24-.06.06h0c-.07-.09.18.19-.17-.2h0l0,0,0,0,.06,0,.07,0h0s0,.09,0,.15a.85.85,0,0,1-.1.27.48.48,0,0,0,0,.39V32a3.81,3.81,0,0,1-.2.84c0,.29.18.21.17.31v.21a.67.67,0,0,0,0,.45c-.1.27,0,.31,0,.39v.05l0,.61V35l-.12.44v.86h0c-.1.51,0,1.23-.11,1.65a3.1,3.1,0,0,1,0,.8c-.14.07,0,.26-.12.4s0,.19,0,.3c0,.33.06.77-.12,1,.05.17.09.34.14.51l-.11.1v.25S8,41.3,8,41.39a.73.73,0,0,0,.22.51c0,.1,0,.2-.08.3s0,.17,0,.25l.15.16c-.08.09-.15.2-.23.29s0,.24.08.36a2.09,2.09,0,0,0,0,.35v.51l-.12.19c0,.25.14.51,0,.76s0,.47,0,.7-.14.28-.18.45Z"/><path class="cls-12" d="M8.52,42.91c0-.08,0-.16,0-.25s-.08-.19-.16-.25a1.54,1.54,0,0,0,0-.3L8.3,41.9H8.19A.73.73,0,0,1,8,41.39c0-.09.1,0,.15,0V41.1l.11-.1c-.05-.17-.09-.34-.14-.51.18-.23.09-.67.12-1,0-.11,0-.2,0-.3s0-.33.12-.4a3.1,3.1,0,0,0,0-.8c.09-.42,0-1.14.11-1.65h0v-.86L8.6,35v-.15l0-.61v-.05c0-.08-.08-.12,0-.39a.67.67,0,0,1,0-.45v-.21c0-.1-.13,0-.17-.31a3.81,3.81,0,0,0,.2-.84v-.35a.48.48,0,0,1,0-.39.85.85,0,0,0,.1-.27c0-.06,0-.13,0-.15h0l-.07,0-.06,0,0,0,0,0h0c.35.39.1.11.17.2h0l.06-.06.28-.24.31-.23.17-.11a1.09,1.09,0,0,1,.17-.13,2.49,2.49,0,0,0,.6-.61,2.52,2.52,0,0,0,.38-.83,5.69,5.69,0,0,0-.12-.72v-.25c0-.09-.2,0-.14-.22s0-.53-.07-.8h-.07a1.48,1.48,0,0,0,0-.2.92.92,0,0,0,0-.16.21.21,0,0,1,.1-.2V26s0-.08,0-.12,0-.09,0-.13l0-.13v-.41l0-.14a1.16,1.16,0,0,1-.06-.22L10.1,25,10,25a1.89,1.89,0,0,0,.06-.18l.08-.18a.66.66,0,0,1,0-.21.42.42,0,0,1,.12-.27l.2-.22.2-.2a.75.75,0,0,0,.09-.09l.26-.19.18-.22.19-.21a2,2,0,0,1,.49-.39,5.17,5.17,0,0,1,.88-.44l.06,0,0,.1-.31.2s-.15.13-.06.19a.7.7,0,0,1,.46-.09h.18a.6.6,0,0,0,.2-.07,2,2,0,0,0,.22-.09l.56.08a5.82,5.82,0,0,0-.67.22l-.35.13-.36.15-.36.15c-.11.05-.23.08-.34.12a.33.33,0,0,0-.14.11.54.54,0,0,0-.07.13.38.38,0,0,1-.14.22,8.4,8.4,0,0,0-.48.88c0,.07,0,.15.05.23a1.68,1.68,0,0,0-.15.3l0,0-.18.13-.16.14a2.11,2.11,0,0,0,.19.23l.1-.11.1-.1.1,0s0,0,0,.05l-.07.18-.05.17L11,26a.19.19,0,0,1,0,.07l0,.08.1.06a2.23,2.23,0,0,0,0,.27l0,.23,0,.25a1.54,1.54,0,0,1,.11.48,1.92,1.92,0,0,1,0,.34l0,.2a2,2,0,0,1,0,.24c0,.14,0,.31-.06.38a2.93,2.93,0,0,1-.09.57l-.07.14,0,.07,0,.07a1.64,1.64,0,0,1-.19.25,3,3,0,0,1-.76.86l-.08,0-.06,0-.13.05c-.14,0-.14.16-.22.22l-.37.26,0,0H9l-.46-.51h0s0,0,0,0l0,0,0,0,0,0c.07,0,.13.05.22.09L9,31l.07,0,.05,0v0s0,.12,0,.2c0,.26,0,.53,0,.81h0v.1c0,.09-.06.19-.1.29a2.3,2.3,0,0,0,0,.59l-.09.1.1.35c0,.08,0,.16-.05.25s.11.12.1.21,0,.15-.08.24a.57.57,0,0,0,0,.26c0,.15,0,.33-.05.49v.3h.07c0,.1,0,.21,0,.3h0l0,.31v.3c0,.14-.07.4.06.6L9,37.06c.06.13,0,.33.07.46L9,37.71a1.24,1.24,0,0,0,.1.2c0,.16,0,.3-.05.46H9v.79H9a1.44,1.44,0,0,1-.14-.8H8.75c-.12.44,0,.82-.13,1a4.46,4.46,0,0,0,0,1.5l-.15.2,0,.15a2.72,2.72,0,0,0,0,.3h.14l.26.37L9,41.72c0,.11.16,0,.15.16a1.89,1.89,0,0,1-.11.25L8.89,42l-.14.2a1.91,1.91,0,0,1-.16.9Z"/><path class="cls-7" d="M8.15,42.45c0-.08,0-.17,0-.25s.05-.2.08-.3H8.3l.14.21a1.54,1.54,0,0,1,0,.3l-.1.2Z"/><path class="cls-7" d="M12.59,27.45a1.77,1.77,0,0,0,0-.21l0-.28c0-.09,0-.18,0-.25h.11a2,2,0,0,1,0-.28l.09,0a.22.22,0,0,1,.07.06.05.05,0,0,1,0,0v.08l0,.05a.22.22,0,0,1-.07.09l.11.05c0,.19,0,.42,0,.69,0,.11,0,.22,0,.33l0,.18v.19l-.23.05c0-.16,0-.28,0-.41s0-.12,0-.18A1,1,0,0,0,12.59,27.45Z"/><path class="cls-9" d="M14.22,21.91c-.06-.15.14-.18.32-.21s.34-.07.21-.29c0-.06,0-.12-.07-.18v-.14l.35,0,.11-.16.46-.17c.16.19.15.26.15.33s-.18.06-.27.09a2,2,0,0,1,0,.26v.21h.38s0,.07,0,.11.07.19.1.29l-.52.05h0v-.18l-.16-.07c-.14.06-.29.11-.43.18a3.05,3.05,0,0,1,.13.32v0a1.33,1.33,0,0,1,0,.19l.17.1c0,.07,0,.14,0,.22v0a2.46,2.46,0,0,0-.29.09.33.33,0,0,1-.32-.23v-.18a1.05,1.05,0,0,0-.07-.11l.14-.2a.59.59,0,0,0-.06-.14.79.79,0,0,0,0-.09Z"/><path class="cls-7" d="M14.83,20.73l.3.17-.11.16-.35,0a.87.87,0,0,0-.13-.15Z"/><path class="cls-7" d="M16.68,22.58c-.06-.12-.11-.24-.18-.37v-.07l.06-.11c0-.16,0-.32,0-.48s-.17-.27,0-.26h.16v.22c.11.17.38.3.08.48.23.2.35.5,0,.6a2.78,2.78,0,0,0-.16.4h-.16l-.09-.08Q16.53,22.76,16.68,22.58Z"/><path class="cls-8" d="M7.58,47.38c.1,0,.29.09.36-.25,0,.17,0,.34,0,.51s-.36.24-.41,0Z"/><path class="cls-8" d="M9.51,47.74l-.22-.09c-.26-.53.16-.24.06-.61v-.25l.12-.3.07.56c0,.23.09.46.13.69Z"/><path class="cls-8" d="M9.45,46c-.14-.14-.4,0-.3-.35.07-.14.17-.13.26-.2C9.43,45.63,9.43,45.82,9.45,46Z"/><path class="cls-8" d="M7,45.35a.31.31,0,0,1,.08-.25v-.31a1.54,1.54,0,0,1,0-.3l.1-.05h0v.36a1.28,1.28,0,0,1,.11.2l-.07.1c0,.12,0,.23,0,.35l0,0A1.7,1.7,0,0,0,7,45.35Z"/><path class="cls-8" d="M8.63,45.17c-.13-.32-.11-.53,0-.59C8.73,44.89,8.76,45.07,8.63,45.17Z"/><path class="cls-8" d="M10,44.06l.07-.9.08-.1c0-.06,0-.13-.08-.2l.07-3.74.22.1a2.08,2.08,0,0,0,0,1c-.08.34.12.64.1,1-.07,0-.15,0-.19.05,0,.35.37.67.07.95,0,.15.07.3.11.46s0,.22-.08.34a.86.86,0,0,1-.07.1c0,.11,0,.23,0,.34s.2.49,0,.55a.65.65,0,0,1,.08.31c-.11,0-.15.13-.3.19Z"/><path class="cls-8" d="M7.15,42.17v-.31h.12v.3Z"/><path class="cls-8" d="M7.12,41.06c-.1-.16-.14-.28,0-.3Z"/><path class="cls-8" d="M7.24,40a5,5,0,0,1,0-1.71A10.14,10.14,0,0,1,7.2,36c.07,0,0-.17,0-.25s0,0,0-.06c-.07-1.07.13-2,0-3,.07-.08,0-.24.06-.35a2,2,0,0,1,0-.71c0-.13,0-.27,0-.41l0-.22,0-.25a.49.49,0,0,1,0-.13,1,1,0,0,1,.07-.28l0-.05,0-.09,0-.05,0-.05a1,1,0,0,1,.13-.16l0-.05h0l0,0,.12-.1a2.67,2.67,0,0,0,.41-.32,3,3,0,0,0,.35-.23l.07-.06,0,0,0,0L8.82,29a.89.89,0,0,1,.29-.25.31.31,0,0,1,.07.26l.17.16a.91.91,0,0,1-.21.18L9,29.38l0,0,0,0-.07.06-.12-.11a2.17,2.17,0,0,1-.2.29l-.4.29-.1.08-.06,0,0,0H8l0,0,0,.06,0,.06,0,0v0a.43.43,0,0,0,0,.07v0h0v0l0,0a0,0,0,0,0,0,0l0,0s0,0,0,.06,0,.12,0,.17-.14.43,0,.59c0,.11,0,.2-.07.31s0,.35,0,.52,0,.31,0,.46v0c0,.12,0,.24.06.37s0,.23,0,.35,0,.24,0,.36,0,.23,0,.35l0,1v.81c-.05.1,0,.27-.11.25a1.56,1.56,0,0,0,.06.67c-.24.22-.17.9-.14,1.24,0,.55-.07.93-.06,1.56Z"/><path class="cls-8" d="M10.15,38.46v-.7l.13-.28c.19.1,0,.39.17.49s0,.34-.08.5v.35s-.08.06-.19.1C10.18,38.76,10.16,38.62,10.15,38.46Z"/><path class="cls-8" d="M10.11,35.37l.06-.44.07-.15c-.06-.25-.19-.16-.17-.3l0-.21v-.14c0-.19.05-.36.06-.55a1.12,1.12,0,0,0,0-.82c0-.18.07-.36.11-.52l-.09-.3c0-.18.06-.36.09-.52a1.39,1.39,0,0,1,0-.17h0l-.22,0-.21-.05-.2,0-.19-.05-.17,0L9.09,31,9,31l-.07,0-.13-.05-.11,0-.09,0,0,0,0,0h0C7.45,29.54,10,32.36,9.75,32.07h.13l.06,0L10,32l0-.06.25-.14h.25l.07,0,.14,0c.22-.11.24-.26.44-.37l.28-.25.25-.28a4.6,4.6,0,0,0,.32-.45.51.51,0,0,0-.07-.17c0-.08.1-.16.14-.24s.12-.24.19-.36.11-.25.16-.38a4.54,4.54,0,0,0,.09-.51l0-.25a2.15,2.15,0,0,0,0-.23v-.06l.23-.05c0,.07,0,.14,0,.24v.31a2.12,2.12,0,0,1-.14.55,2.41,2.41,0,0,1-.07.35.85.85,0,0,1,0,.17l-.05.17a2,2,0,0,1-.33.72l-.18.25L12,31,12,31l-.1.11a4.82,4.82,0,0,1-1,.78l-.13.08-.12.07-.08,0-.08,0-.26.13,0,.07c-.1,0-.16,0-.18,0h0L8.54,30.73h0v0l0,0,.05,0,0,0a.94.94,0,0,0,.15.06L9,31h.05l.05,0,.12,0,.23.06.26.06.13,0,.14,0,.28.05.14,0,.15,0h0l0,0-.05.07a.14.14,0,0,0,0,.11c0,.06,0,.14,0,.21s.16.07.13.23-.11.12-.17.17-.2.39,0,.43a.72.72,0,0,0,0,.48c-.05.18,0,.21.06.44-.2,0-.19.08-.05.24a2.39,2.39,0,0,0-.08,1.08c0,.14-.09.36,0,.4a6.12,6.12,0,0,0,0,1.05c.2-.11.09.26.06.34-.23.17,0,.59-.23.79,0-.17-.14-.28-.15-.45Z"/><path class="cls-8" d="M9.18,28.54c0-.13,0-.29.11-.33S9.31,28.4,9.18,28.54Z"/><path class="cls-8" d="M9.25,27.7a.75.75,0,0,1,0-.53C9.33,27.17,9.35,27.4,9.25,27.7Z"/><path class="cls-8" d="M9.23,27a.75.75,0,0,1-.08-.3.72.72,0,0,1,0-.29v-.12s0-.08,0-.13l0-.26A.45.45,0,0,1,9.3,26a.38.38,0,0,1,0,.15,1.31,1.31,0,0,1-.05.22c0,.11,0,.2,0,.3Z"/><path class="cls-8" d="M9.37,25.3v-.13a.34.34,0,0,1,0-.1.9.9,0,0,1,0-.19.94.94,0,0,1,.15-.3c0-.1.08-.18.11-.28s.08-.18.13-.27,0-.1.07-.14l.09-.14.09-.14.09-.13.18-.23.15-.22.19-.23a1.64,1.64,0,0,1,.27-.24,2.09,2.09,0,0,1,.22-.2l.25-.2a.46.46,0,0,1,.21-.08l.23-.07c0,.06,0,.13,0,.19a3.79,3.79,0,0,0-.34.2,1.33,1.33,0,0,0-.24.11l-.25.11q0,.12,0,.21a.73.73,0,0,0-.18.11.28.28,0,0,0-.08.21l-.09.08a1.24,1.24,0,0,0-.22.19.36.36,0,0,0-.11.27.39.39,0,0,0-.08.1,2.87,2.87,0,0,0-.31.29.45.45,0,0,0-.08.22,1,1,0,0,1-.15.32A4.19,4.19,0,0,0,9.37,25.3Z"/><path class="cls-8" d="M12.88,21.53c0-.15.07-.21.21-.25s.32,0,.44-.07c.19-.19.65-.18.65-.37.22-.05.22,0,.36.1a.87.87,0,0,1,.13.15,6.37,6.37,0,0,0-.75.2l-.19,0h-.06l-.17.08-.31.05Z"/><path class="cls-8" d="M14.83,20.73c0-.08-.11-.17,0-.18a.58.58,0,0,1,.25-.24.63.63,0,0,1,.23.16,1.62,1.62,0,0,0,.29.23l.1-.22c0,.12.16.15.29.16s.25,0,.26.09v.08l.31.25v.23c-.18,0-.07.14,0,.26s0,.32,0,.48l-.06.11L16,22c0-.1-.06-.19-.1-.29s0-.07,0-.11l-.16-.22v-.34c0-.07,0-.14-.15-.33l-.46.17Z"/><path class="cls-8" d="M16.35,23.69c.06-.1.11-.17.2-.14s.2.18.19.29a.39.39,0,0,1-.39,0Z"/><path class="cls-11" d="M9.45,46.4c-.08-.1-.12-.4,0-.41s.26,0,.23.26Z"/><path class="cls-11" d="M9.45,45.19c-.11,0-.07-.18,0-.25s0-.33.07-.5c.2.09.2.37.19.61Z"/><path class="cls-11" d="M10.64,23.7l-.2.2-.2.22a.42.42,0,0,0-.12.27.66.66,0,0,0,0,.21.66.66,0,0,1,0-.21.42.42,0,0,1,.12-.27l.2-.22Z"/><path class="cls-11" d="M10.66,23.53c.1-.12.26-.2.24-.43l.16-.22.18-.14.17-.14a1.49,1.49,0,0,1,.37-.13c.09-.13.29-.19.42-.34a3.33,3.33,0,0,1,.4-.16.24.24,0,0,0,.19.17l-.06,0a5.17,5.17,0,0,0-.88.44,2,2,0,0,0-.49.39l-.19.21-.18.22-.26.19Z"/><path class="cls-11" d="M14.67,21.09v.14l-.45.16c-.15.07-.2,0-.31-.1A6.37,6.37,0,0,1,14.67,21.09Z"/><path class="cls-9" d="M9.81,49.07c-.25-.16-.13-.51-.18-.78l.27,0C9.86,48.52,9.83,48.8,9.81,49.07Z"/><path class="cls-9" d="M10.11,43.16c0-.08-.19,0,0-.3,0,.07.05.14.08.2Z"/><path class="cls-9" d="M8.89,41.88l-.26-.37H8.49a2.72,2.72,0,0,1,0-.3l0-.15.15-.2a4.46,4.46,0,0,1,0-1.5c.12-.18,0-.56.13-1h.07a1.44,1.44,0,0,0,.14.8H9v-.79H9c0-.16,0-.3.05-.46a1.24,1.24,0,0,1-.1-.2l.15-.19c-.08-.13,0-.33-.07-.46l.12-.34.07.05c-.12.31.22.37,0,.5v.25c0,.14,0,.27,0,.4s.07.27.11.41,0,.23-.09.34l.08.21-.12.29c0,.08,0,.2-.08.46L9,39.46c-.12.29,0,.34,0,.45a2,2,0,0,0,0,.56v1.25Z"/><path class="cls-9" d="M9.1,35.82l0-.31h0c0-.09,0-.2,0-.3H9v-.3c0-.16,0-.34.05-.49a.57.57,0,0,1,0-.26c0-.09.06-.16.08-.24.06.19.16.22.14.55A5.14,5.14,0,0,0,9.2,35v0l.05.45c0,.1,0,.2,0,.3l-.12.3Z"/><path class="cls-9" d="M10.17,34.93a.61.61,0,0,1-.18-.21,1.69,1.69,0,0,1,.08-.24c0,.14.11.05.17.3Z"/><path class="cls-9" d="M9.12,32c0-.28,0-.55,0-.81,0-.08,0-.16,0-.2v0l-.05,0L9,31l-.13,0c-.09,0-.15-.05-.22-.09l0,0,0,0,0,0s0,0,0,0h0l.46.51H9l0,0,.37-.26c.08-.06.08-.18.22-.22l.13-.05.06,0,.08,0a3,3,0,0,0,.76-.86,1.64,1.64,0,0,0,.19-.25l0-.07,0-.07.07-.14a1.67,1.67,0,0,1-.08.32l-.06.16a1,1,0,0,1-.07.15c-.12.17-.19.29-.29.42a1.5,1.5,0,0,1-.54.43l-.21.18L9.58,31l-.21.18a1.14,1.14,0,0,0-.15.17l0,0h0c.55.6-.74-.82-.61-.68h0l0,0,.07.05.05,0,0,0,.13.05L9,31l.16.05.17,0s0,0,0,0h0a.22.22,0,0,0,0,.08l0,.11c.07.17-.05.38-.09.49s-.05.2-.06.29Z"/><path class="cls-9" d="M10.55,31.55l.16-.07A3.37,3.37,0,0,0,11,31l.13-.12a2.59,2.59,0,0,0,.81-.68.51.51,0,0,1,.07.17,4.6,4.6,0,0,1-.32.45l-.25.28-.28.25c-.2.11-.22.26-.44.37l-.14,0-.07,0H10.3A3.08,3.08,0,0,1,10.55,31.55Z"/><path class="cls-13" d="M11.56,29.85a.87.87,0,0,0,.08-.14l0,0a1.56,1.56,0,0,0,.11-.24,1.62,1.62,0,0,0,0-.19,1.37,1.37,0,0,1,0-.19c0-.06,0-.14,0-.23s.05-.35.14-.31a1.29,1.29,0,0,0,0-.25.61.61,0,0,0,0-.15c0-.05,0-.09,0-.13l-.06-.11a2.86,2.86,0,0,0,0-.71,2.48,2.48,0,0,1,0-.55v-.1l0-.07a.35.35,0,0,0-.12-.07c-.1,0-.23,0-.32-.05s.12-.14.18-.19a.53.53,0,0,0,0-.13V26l-.09-.1c0-.08.09-.16-.05-.25a.91.91,0,0,1,.07-.14c0-.05-.09-.1-.13-.16a.74.74,0,0,0,.16-.19l.06-.1s0-.09.05-.13.09-.14.15-.21a.19.19,0,0,0,.12,0,.22.22,0,0,0,.07-.09,1.94,1.94,0,0,1,.14-.3l.08-.05.22.11.19-.15c.06,0,.12-.1.19-.14l.19-.25.24-.13,0-.1c0-.05.11-.08.15-.13l.21-.06.21-.05c.08-.13.19-.26.28-.4l.15,0c.05.19.11.17.16.17s0-.16,0-.23.14-.12.1-.05a.33.33,0,0,0,.32.23,2.46,2.46,0,0,1,.29-.09,1.13,1.13,0,0,0,.35.05h.35v.23a.76.76,0,0,0-.21.08c0,.17,0,.34.05.51v0h-.18l-.46,0H15l-.26,0c-.06.05-.09.13-.17.13l-.17,0-.27-.06a1.09,1.09,0,0,0-.48.16l.13.19.37-.05c-.07.11-.27.12-.23.24l-.2.08-.18.08a3.46,3.46,0,0,0-.5.55c.2-.14.26,0,.34,0a.53.53,0,0,0,0,.13l-.19,0,.15.22a.39.39,0,0,0-.08.1l-.09-.08c0,.05-.06.07-.1.08h-.2a.08.08,0,0,0,0,.09l0,0s0,0-.06.06l0,0,0,0a.39.39,0,0,0,0,.15l.16.09,0,0,0,0a0,0,0,0,0,0,0h0v0h-.15l-.16,0a.07.07,0,0,1,0-.06.13.13,0,0,1,0-.06s0-.06-.1-.09l-.14,0s0,.05,0,.08,0,0,0,0l0,0c0,.29,0,.61.05,1.07v.33c0,.06,0,.13,0,.19a1.28,1.28,0,0,1,0,.19l0,.17,0,.19c0,.12,0,.26-.05.38s0,.26-.07.38a4.93,4.93,0,0,1-.23.46l-.07.14c0,.06,0,.11-.08.19l-.08.12a.69.69,0,0,1-.17.18C11.59,30.14,11.54,30.13,11.56,29.85Z"/><path class="cls-9" d="M12,29.71a4,4,0,0,0,.17-.49c0-.12,0-.25.07-.38s0-.26.05-.38l.2-.21-.14-.15a1.28,1.28,0,0,0,0-.19c0-.06,0-.13,0-.19v-.33l.23-.15a1.77,1.77,0,0,1,0,.21,1,1,0,0,1,0,.17c0,.06,0,.12,0,.18s0,.25,0,.41v.06a2.15,2.15,0,0,1,0,.23l0,.25a4.54,4.54,0,0,1-.09.51c-.05.13-.11.26-.16.38s-.13.24-.19.36A2.69,2.69,0,0,0,12,29.71Z"/><path class="cls-9" d="M11.15,28.26a2,2,0,0,0,0-.24l0-.2a1.92,1.92,0,0,0,0-.34,1.54,1.54,0,0,0-.11-.48,1.54,1.54,0,0,1,.11.48,1.92,1.92,0,0,1,0,.34l0,.2A2,2,0,0,1,11.15,28.26Z"/><path class="cls-10" d="M12.37,26.12c.11,0,.11.06.1.09a.13.13,0,0,0,0,.06.07.07,0,0,0,0,.06l.16,0h.15a.06.06,0,0,1,0,0v0l-.09,0-.18,0s0,.06,0,.09l0,.06a.15.15,0,0,1,0,.07.06.06,0,0,1,0,.07c0,.07,0,.16,0,.25l0,.28-.23.15c0-.46-.06-.78-.05-1.07l0,0s0,0,0,0,0,0,0-.08Z"/><path class="cls-9" d="M12.61,26.71a.06.06,0,0,0,0-.07.15.15,0,0,0,0-.07l0-.06s0-.07,0-.09l.18,0a2,2,0,0,0,0,.28Z"/><path class="cls-9" d="M11,26.19l0-.08A.19.19,0,0,0,11,26l.06-.15.06,0a.59.59,0,0,1,0,.13.13.13,0,0,1,0,.08.69.69,0,0,1-.06.13Z"/><path class="cls-9" d="M10.7,25.42l.16-.14.18-.13,0,0a1.68,1.68,0,0,1,.15-.3.93.93,0,0,1-.08-.2l0-.1a.69.69,0,0,1,0-.1,1.46,1.46,0,0,1,.07-.19,1.32,1.32,0,0,1,.12-.2.79.79,0,0,1,.18-.19c-.07,0,0-.1.07-.15s.14-.1,0-.16a1.39,1.39,0,0,1,.84-.52l.46-.14a1.74,1.74,0,0,0,.45-.23c.11,0,.28,0,.36-.11-.09-.09-.27,0-.3-.13l0-.11.21-.08.21-.08.17.08c0,.09,0,.18,0,.27a1.85,1.85,0,0,1-.74.55l-.16.1-.15.12.18,0h.18l0,.21c0,.05-.11.08-.15.13a1.57,1.57,0,0,0-.26.1l-.14,0-.14,0c-.19.14-.3.29-.48.45l0,0-.08.05c-.14.11-.28.22-.41.34l-.15.22-.14.11,0,.06,0,.07c0,.05-.05.09-.07.14a.38.38,0,0,1,0,.1,1,1,0,0,0-.15.2l-.1,0-.1.1-.1.11A2.11,2.11,0,0,1,10.7,25.42Z"/><path class="cls-10" d="M13,25.18a3.46,3.46,0,0,1,.5-.55l.18-.08.2-.08c0-.12.16-.13.23-.24l-.37.05-.13-.19a1.09,1.09,0,0,1,.48-.16l.27.06.17,0c.08,0,.11-.08.17-.13l.26,0c0,.07,0,.15-.07.23l.27,0h0v.33c.07.19.13.22.11.29l-.16.08L15,24.55c-.18,0-.37,0-.46.16l0,.18-.39.08-.17.08-.16.09a.41.41,0,0,1-.1.09.67.67,0,0,1-.12.06l-.11.09s-.07.06-.1.1l-.14.08-.15-.22.19,0a.53.53,0,0,1,0-.13C13.28,25.16,13.22,25,13,25.18Z"/><path class="cls-9" d="M14.6,24.89l0-.18c.09-.16.28-.14.46-.16l.15.17-.28.1C14.86,24.89,14.7,24.87,14.6,24.89Z"/><path class="cls-9" d="M15,23.81h.1l.46,0-.32.2h0l-.27,0C14.94,24,15,23.88,15,23.81Z"/><path class="cls-9" d="M15.23,24.35v-.22l.32.09a.28.28,0,0,1,0,.12c-.05.1-.11.19-.16.3C15.36,24.57,15.3,24.54,15.23,24.35Z"/><path class="cls-9" d="M15.72,23.77c.29,0,.47-.15.63-.08v.12a1.21,1.21,0,0,0-.1.14l-.53-.14Z"/><path class="cls-12" d="M9.63,48.29c0-.14-.08-.26-.11-.39v-.16h.15a3.4,3.4,0,0,0,.23.3v.2Z"/><path class="cls-12" d="M9,39.91c0-.11-.14-.16,0-.45l.1.17C9,39.72,9,39.82,9,39.91Z"/><path class="cls-12" d="M13.24,22a1.11,1.11,0,0,0,.53-.42l0-.26.19,0c.11.06.16.17.31.1l.45-.16c0,.06,0,.12.07.18.13.22,0,.25-.21.29s-.38.06-.32.21l.28-.06c-.05.1.1.13.11.2a.79.79,0,0,1,0,.09l-.21,0-.22,0h-.06l-.17-.08a.23.23,0,0,0-.25-.13c-.1,0-.2.05-.28.06A.29.29,0,0,0,13.24,22Z"/><path class="cls-12" d="M15.22,24l.32-.2h.05c0,.13,0,.27-.05.4l-.32-.09Z"/><path class="cls-12" d="M15.52,21.44v0h.22l.16.22h-.38Z"/><path class="cls-10" d="M12.25,28.46l0-.19,0-.17.14.15Z"/><path class="cls-10" d="M12.72,26.07a.39.39,0,0,1,0-.15l0,0,0,0s0-.05.06-.06l0,0a.08.08,0,0,1,0-.09H13s.06,0,.1-.08l.09.08c-.08.15-.09.24-.18.29a1.3,1.3,0,0,0-.17.21Z"/><path class="cls-10" d="M12.1,25.13l.15-.16.21,0a.78.78,0,0,0,.2-.14c.06-.05.1-.11.15-.16a.47.47,0,0,1,.38-.21l0,.07-.08.06-.08.07a.93.93,0,0,0-.15.13,1.49,1.49,0,0,1-.14.12l-.16.13-.08.06,0,0,0,0-.08.06-.07.06Z"/><path class="cls-10" d="M12.26,24.17c.18-.16.29-.31.48-.45l.14,0,.14,0a1.57,1.57,0,0,1,.26-.1l0,.1-.24.13-.19.25c-.07,0-.13.1-.19.14l-.19.15-.22-.11Z"/><path class="cls-10" d="M13,23.24c.13-.21.22-.23.31-.22a1.85,1.85,0,0,0,.74-.55h.42a1.05,1.05,0,0,1,.07.11v.18c0-.07-.06,0-.1.05s.06.17,0,.23-.11,0-.16-.17l-.15,0c-.09.14-.2.27-.28.4l-.21.05-.21.06,0-.21H13.2Z"/><path class="cls-10" d="M15,22.36h.11l.35-.28h0L16,22l.46.12v.07c.07.13.12.25.18.37q-.15.18-.3.33l.09.08h.16c.22.1.1.27.12.41l-.2.15c-.09,0-.14,0-.2.14-.16-.07-.34,0-.63.08,0-.17,0-.34-.05-.51a.76.76,0,0,1,.21-.08V23h-.35a1.13,1.13,0,0,1-.35-.05v0c0-.08,0-.15,0-.22l-.17-.1A1.33,1.33,0,0,0,15,22.36Z"/><path class="cls-10" d="M15.47,21.15c.09,0,.18,0,.27-.09v.34h-.22A2,2,0,0,0,15.47,21.15Z"/><path class="cls-13" d="M10.15,31.46a2,2,0,0,0-.09-.2.09.09,0,0,0,0-.06h0l-.13,0-.17,0-.33-.08L9.09,31,9,31l-.09,0-.1,0-.09,0-.06,0-.05,0,0,0,0,0h0l1,1.15h0l.14.17h0c.27.29-2.3-2.53-1.21-1.34h0l0,0,0,0,.09,0,.11,0,.13.05L9,31l.07,0,.17.05.17,0,.19.05.2,0,.21.05.22,0h0a1.39,1.39,0,0,0,0,.17Z"/><path class="cls-13" d="M14.08,22.2h.06l.22,0,.21,0a.59.59,0,0,1,.06.14l-.14.2h-.42C14.07,22.38,14.08,22.29,14.08,22.2Z"/><path class="cls-13" d="M15.2,21.82h.11l.16.07v.18l-.35.28H15v0a3.05,3.05,0,0,0-.13-.32Z"/><path class="cls-11" d="M12.79,22.14l.26-.2-.12-.23a1.66,1.66,0,0,1,.21-.06l.21-.06c.09-.06.07-.12.15-.18l.17-.08h.06l0,.26a1.11,1.11,0,0,1-.53.42.29.29,0,0,1,.14.05l.28-.07c.2-.1.26,0,.25.14l-.21.08-.21.08,0,.11a2,2,0,0,1-.22.09.6.6,0,0,1-.2.07h-.18a.7.7,0,0,0-.46.09c-.09-.06.07-.15.06-.19l.31-.2Z"/><path class="cls-7" d="M12.93,21.71l0-.18.31-.07.31-.05c-.08.06-.06.12-.15.18l-.21.06A1.66,1.66,0,0,0,12.93,21.71Z"/><path class="cls-8" d="M7.12,40.76v-.31C7.11,40.55,7.26,40.48,7.12,40.76Z"/><path class="cls-8" d="M11.85,22a.79.79,0,0,1,.19-.17,1.5,1.5,0,0,1,.25-.15,1.45,1.45,0,0,1,.29-.11,1,1,0,0,1,.3,0l0,.18-.17,0-.09,0-.08,0-.35.11-.19,0Z"/><path class="cls-11" d="M10.34,24.87a1.14,1.14,0,0,1,.08-.33.86.86,0,0,1,.11-.19c.19,0,.19.12.12.22A1,1,0,0,1,10.34,24.87Z"/><path class="cls-11" d="M8.3,42.61l.1-.2c.08.06.21.09.16.25s0,.17,0,.25C8.36,42.91,8.47,42.67,8.3,42.61Z"/><path class="cls-9" d="M9.12,33.92c0-.09-.06-.14-.1-.21s0-.17.05-.25L9,33.11l.09-.1a2.3,2.3,0,0,1,0-.59c0-.1.07-.2.1-.29,0,.08.06.14.1.21s0,.46-.05.68a1.43,1.43,0,0,1-.09.44C9.11,33.58,9.21,33.64,9.12,33.92Z"/></g></g></g><path class="cls-2" d="M16.44,24.31a4.81,4.81,0,0,0-2.57.55,5,5,0,0,0-2,1.81,4,4,0,0,0-.33.61,3.51,3.51,0,0,0-.24.64,5.15,5.15,0,0,0-.22,1.35c0,.12,0,.22,0,.33v.33c0,.22,0,.43,0,.65s0,.66,0,1h-.94l-1.26,0H8.62v.28l.06,4.39.06,4.4c0,1.46,0,2.93.06,4.39l.07,4.4,0,0a0,0,0,0,0,0,0L9,45.06c0-1.46.05-2.93.06-4.39l.06-4.4,0-4.11,1,0h1.57v-.32c0-.43,0-.87,0-1.3,0-.22,0-.43,0-.65v-.65a5,5,0,0,1,.15-1.21,4.43,4.43,0,0,1,.2-.58,3.94,3.94,0,0,1,.26-.55,5.45,5.45,0,0,1,.73-1,5.32,5.32,0,0,1,1-.79,4.83,4.83,0,0,1,.55-.3l.14-.06a.94.94,0,0,1,.15-.06l.3-.11a5.3,5.3,0,0,1,1.26-.24l0,0S16.45,24.32,16.44,24.31Z"/></g></g></svg>