<svg xmlns="http://www.w3.org/2000/svg" xmlns:xlink="http://www.w3.org/1999/xlink" viewBox="0 0 500 500"><defs><style>.cls-1{isolation:isolate;}.cls-2{fill:#a1173b;}.cls-3{fill:#f39c6c;}.cls-4{opacity:0.2;fill:url(#Dégradé_sans_nom_8);}.cls-5{opacity:0.8;mix-blend-mode:multiply;}.cls-6{opacity:0.9;}.cls-7{fill:#fce0cf;}.cls-8{fill:#fdebe0;}.cls-9{fill:#f8c09d;}.cls-10{fill:#f7b58d;}.cls-11{fill:#fbd5bc;}.cls-12{fill:#facbad;}.cls-13{fill:#f5a97e;}</style><radialGradient id="Dégradé_sans_nom_8" cx="17.05" cy="270.15" r="102.43" gradientTransform="translate(258.83 243.13) scale(1.01 0.1)" gradientUnits="userSpaceOnUse"><stop offset="0" stop-color="#1d1d1b"/><stop offset="1" stop-color="#1d1d1b" stop-opacity="0"/></radialGradient></defs><title>LOGO FOR WEB</title><g class="cls-1"><g id="Calque_1" data-name="Calque 1"><path class="cls-2" d="M53.82,380.87l2.42,14.86a68.36,68.36,0,0,1-13.91,3.86,49.08,49.08,0,0,1-9.09.86,40,40,0,0,1-4.68-.29,30.5,30.5,0,0,1-12-3.35,20.46,20.46,0,0,1-8.38-8.87Q5,381.88,5,372.87V327q0-10.86,3.05-16.43a25.58,25.58,0,0,1,9.3-9.44,30.64,30.64,0,0,1,15.18-3.57h1.85a43.91,43.91,0,0,1,18.31,4.72l-4.4,14.29A40.83,40.83,0,0,0,34,314.13a13.93,13.93,0,0,0-9.65,3.29,10.61,10.61,0,0,0-3.69,8.28v46.88a17.52,17.52,0,0,0,.57,4.65A7.41,7.41,0,0,0,23,380.58a27.62,27.62,0,0,0,2.56,2.29,7.06,7.06,0,0,0,3.55,1.29c1.51.19,2.79.35,3.83.5a15.88,15.88,0,0,0,4.33-.22c1.84-.28,3.29-.5,4.33-.64a45.36,45.36,0,0,0,4.47-.93c1.94-.47,3.28-.81,4-1S52.12,381.35,53.82,380.87Z"/><path class="cls-2" d="M145,399h-18.6l-5.82-26.15H97.71L92.18,399H74.58L97.85,299h22Zm-28.11-42.87-8.09-30.87-7.38,30.87Z"/><path class="cls-2" d="M214.55,399H163.32V299h15.61v85.61h35.62Z"/><path class="cls-2" d="M280,399H232.9V299h47.4V314.7H248.51V340H268l-4.4,15h-15v29.73H280Z"/><path class="cls-2" d="M347.47,380.87l2.41,14.86A68.18,68.18,0,0,1,336,399.59a49,49,0,0,1-9.08.86,40,40,0,0,1-4.69-.29,30.5,30.5,0,0,1-12-3.35,20.5,20.5,0,0,1-8.37-8.87q-3.19-6.06-3.2-15.07V327q0-10.86,3.06-16.43a25.63,25.63,0,0,1,9.29-9.44,30.66,30.66,0,0,1,15.19-3.57H328a43.83,43.83,0,0,1,18.31,4.72l-4.4,14.29a40.78,40.78,0,0,0-14.33-2.43,13.91,13.91,0,0,0-9.65,3.29,10.61,10.61,0,0,0-3.69,8.28v46.88a18,18,0,0,0,.56,4.65,7.42,7.42,0,0,0,1.85,3.35,26.32,26.32,0,0,0,2.55,2.29,7.14,7.14,0,0,0,3.55,1.29c1.51.19,2.79.35,3.83.5a15.86,15.86,0,0,0,4.33-.22c1.85-.28,3.29-.5,4.33-.64a45.36,45.36,0,0,0,4.47-.93l4-1C344.53,381.68,345.76,381.35,347.47,380.87Z"/><path class="cls-2" d="M429.25,399H413.78V355H383.84v44H368.22V299h15.62v41h29.94V299h15.47Z"/><path class="cls-2" d="M494.72,399H447.6V299H495V314.7H463.21V340h19.44l-4.4,15h-15v29.73h31.51Z"/><path class="cls-3" d="M22.08,458.58H16.52L5,416.12H9.72l9.55,35.61,9.49-35.61h4.78Z"/><path class="cls-3" d="M109.46,427.89v19.47q0,6.13-3.68,9a13.81,13.81,0,0,1-8.8,2.88,14.09,14.09,0,0,1-8.87-2.88q-3.73-2.88-3.73-9V427.83q0-6.25,3.37-9.46T97,415.15q5.91,0,9.16,3.4T109.46,427.89Zm-4.3,19V428.13q0-4.19-2.12-6.37a8.18,8.18,0,0,0-6.12-2.18q-8.25,0-8.24,8.55V447A7.5,7.5,0,0,0,91,452.91a9.79,9.79,0,0,0,11.94,0C104.4,451.56,105.16,449.54,105.16,446.88Z"/><path class="cls-3" d="M180.77,459.25l-1.19-3.09a5.41,5.41,0,0,0,2.81-2c.71-1,1.07-2.65,1.07-5v-7q-2.93,2.55-8.84,2.55a13.86,13.86,0,0,1-9.61-3.31q-3.7-3.3-3.7-9.49V416.12h4.36v15.95a7.56,7.56,0,0,0,2.5,6.16,9.5,9.5,0,0,0,6.3,2.09,12.29,12.29,0,0,0,6.09-1.3,5.71,5.71,0,0,0,2.9-3.67V416.12h4.36v33Q187.82,458.35,180.77,459.25Z"/><path class="cls-3" d="M266.6,458.58h-4.84l-4.12-13.71H245.22l-3.94,13.71h-4.65l12.3-42.46h4.95Zm-10-18.2-5.2-17.22-5,17.22Z"/><path class="cls-3" d="M339.11,458.58h-3.58l-.72-1.88q-2.87,2.49-7.88,2.49a13.24,13.24,0,0,1-8.69-3q-3.67-3-3.67-9V428.07q0-7.77,5.2-11a12.79,12.79,0,0,1,6.38-1.52,18.16,18.16,0,0,1,8.48,2L333.38,421a17.66,17.66,0,0,0-6.15-1.21q-8.36,0-8.36,7.76v19.72a7.1,7.1,0,0,0,2.27,5.67,8.56,8.56,0,0,0,5.85,2,8.15,8.15,0,0,0,5.76-2,7.19,7.19,0,0,0,2.18-5.58v-2.67h-3.76l-1.43-4.25h9.37Z"/><path class="cls-3" d="M414.19,458.58H394.37V416.12h19.94v4.19H398.66v13.22h10.45l-1.37,4.25h-9.08v16.86h15.53Z"/><path class="cls-3" d="M466.64,447.78l4.48-.3a7.84,7.84,0,0,0,2.89,5.28,9.93,9.93,0,0,0,6.75,2.24,11.37,11.37,0,0,0,6.87-2,6.63,6.63,0,0,0,2.71-5.73,7.13,7.13,0,0,0-1.67-4.76,10.58,10.58,0,0,0-4.18-3L479,437.29q-3-1.21-5.47-2.36a10.66,10.66,0,0,1-4.18-3.46,9.19,9.19,0,0,1-1.67-5.52,9.54,9.54,0,0,1,3.47-7.34q3.45-3.09,10-3.1a19.79,19.79,0,0,1,8.71,1.82c0,.09-.43,1.46-1.31,4.13a18.69,18.69,0,0,0-7.61-1.64,10.65,10.65,0,0,0-6.3,1.7,5.37,5.37,0,0,0-2.39,4.61q0,3.53,4.6,5.58c1.35.61,2.83,1.2,4.45,1.79s3.21,1.24,4.8,2a28.14,28.14,0,0,1,4.39,2.49,10.57,10.57,0,0,1,4.51,8.92,11.92,11.92,0,0,1-3.49,9q-3.5,3.4-10.39,3.4t-10.63-3.49A11.06,11.06,0,0,1,466.64,447.78Z"/><ellipse class="cls-4" cx="276.02" cy="270.15" rx="145.48" ry="12.7"/><path class="cls-2" d="M151.68,78.9l71.93,29.79L159,65.49c-1.48,2.28-2.87,4.65-4.16,7.05C153.69,74.6,152.65,76.74,151.68,78.9Z"/><path class="cls-2" d="M164.64,115.58h56.17l-54.9-10.92c-.18,1-.35,1.94-.49,2.91A76.46,76.46,0,0,0,164.64,115.58Z"/><path class="cls-2" d="M151.82,56.26,226,105.84,162.92,42.75a110.77,110.77,0,0,0-9.77,11.65C152.7,55,152.26,55.63,151.82,56.26Z"/><path class="cls-2" d="M155.52,98.8,221.88,112,159.49,86.16a88.92,88.92,0,0,0-3.24,9.74C156,96.87,155.74,97.84,155.52,98.8Z"/><rect class="cls-3" x="258.44" y="216.93" width="39.18" height="5.27" rx="2.25" ry="2.25"/><path class="cls-2" d="M352,186.68a39.69,39.69,0,1,1-39.68,39.69A39.73,39.73,0,0,1,352,186.68m0-3.52a43.21,43.21,0,1,0,43.21,43.21A43.21,43.21,0,0,0,352,183.16Z"/><path class="cls-3" d="M352,185a41.39,41.39,0,1,0,41.38,41.39A41.38,41.38,0,0,0,352,185Zm37.82,39.66h-29l26.76-11.09A37.36,37.36,0,0,1,389.85,224.64Zm-3.54-14.34-26.77,11.09L380,200.9A38.13,38.13,0,0,1,386.31,210.3Zm-8.77-11.89L357.06,218.9l11.1-26.79A38.09,38.09,0,0,1,377.54,198.41Zm-23.73-9.87a37.5,37.5,0,0,1,11.1,2.22l-11.1,26.79Zm-3.52,0v29l-11.1-26.81A37.17,37.17,0,0,1,350.29,188.54Zm-14.35,3.55L347,218.9l-20.51-20.51A37.35,37.35,0,0,1,335.94,192.09ZM324,200.87l20.52,20.51-26.82-11.1A38.26,38.26,0,0,1,324,200.87Zm-7.64,12.66,26.81,11.11h-29A37.5,37.5,0,0,1,316.4,213.53Zm-2.2,14.62h29l-26.8,11.1A37.18,37.18,0,0,1,314.2,228.15Zm3.56,14.35,26.79-11.1-20.48,20.49A38.37,38.37,0,0,1,317.76,242.5Zm8.8,11.87L347,233.89,336,260.65A37.67,37.67,0,0,1,326.56,254.37Zm23.73,9.83A37.81,37.81,0,0,1,339.2,262l11.09-26.77Zm-5.52-37.83a7.25,7.25,0,1,1,7.26,7.24A7.25,7.25,0,0,1,344.77,226.37Zm9,37.82v-29L364.89,262A37.74,37.74,0,0,1,353.81,264.19Zm14.32-3.56-11.07-26.74,20.46,20.46A38.08,38.08,0,0,1,368.13,260.63ZM380,251.86,359.54,231.4l26.75,11.08A38.06,38.06,0,0,1,380,251.86Zm7.64-12.63-26.75-11.08h29A37.68,37.68,0,0,1,387.64,239.23Z"/><path class="cls-2" d="M356.5,226.37A4.47,4.47,0,1,1,352,221.9,4.47,4.47,0,0,1,356.5,226.37Z"/><path class="cls-2" d="M187.39,159a56.84,56.84,0,1,0,56.84,56.84A56.84,56.84,0,0,0,187.39,159Zm0,110.17a53.33,53.33,0,1,1,37.7-15.62A53,53,0,0,1,187.39,269.18Z"/><path class="cls-3" d="M187.39,161.4a54.45,54.45,0,1,0,54.45,54.45A54.45,54.45,0,0,0,187.39,161.4Zm34.75,91.69a50.91,50.91,0,0,1-13.62,9.13l-15.91-38.4a9.28,9.28,0,0,1-3.25,1.36l15.91,38.39a50.75,50.75,0,0,1-16.09,3.18V225.22a9.61,9.61,0,0,1-1.79.17,9.85,9.85,0,0,1-1.73-.16v41.52a50.74,50.74,0,0,1-16.1-3.16l15.9-38.4a9.19,9.19,0,0,1-3.25-1.33l-15.9,38.39a50.85,50.85,0,0,1-13.64-9.13L182,223.75a9.62,9.62,0,0,1-2.5-2.47l-29.36,29.36A51.07,51.07,0,0,1,141,237l38.4-15.91a9.5,9.5,0,0,1-1.36-3.24l-38.38,15.9a50.28,50.28,0,0,1-3.19-16.11H178a9.77,9.77,0,0,1,0-3.52H136.48A50.93,50.93,0,0,1,139.65,198l38.4,15.91a9.24,9.24,0,0,1,1.34-3.25L141,194.76a50.63,50.63,0,0,1,9.15-13.66l29.37,29.37A9.32,9.32,0,0,1,182,208l-29.36-29.36a50.51,50.51,0,0,1,13.65-9.15l15.9,38.38a9.71,9.71,0,0,1,3.25-1.34l-15.91-38.39A50.76,50.76,0,0,1,185.66,165v41.52a9,9,0,0,1,1.73-.16,9.61,9.61,0,0,1,1.79.17V165a50.88,50.88,0,0,1,16.11,3.19l-15.9,38.39a9.42,9.42,0,0,1,3.24,1.36l15.91-38.4a50.91,50.91,0,0,1,13.63,9.16L192.81,208a9.33,9.33,0,0,1,2.47,2.5h0l29.37-29.37a50.89,50.89,0,0,1,9.14,13.64l-38.4,15.9a9.16,9.16,0,0,1,1.33,3.26L235.12,198a50.75,50.75,0,0,1,3.17,16.1H196.77a9.74,9.74,0,0,1,.15,1.72,9,9,0,0,1-.17,1.8h41.54a50.92,50.92,0,0,1-3.19,16.08l-38.39-15.9a9.34,9.34,0,0,1-1.35,3.25L233.75,237a50.52,50.52,0,0,1-9.13,13.62l-29.36-29.36a9.62,9.62,0,0,1-2.49,2.48Z"/><path class="cls-2" d="M193.27,215.85a5.88,5.88,0,1,1-5.88-5.88A5.88,5.88,0,0,1,193.27,215.85Z"/><path class="cls-3" d="M408.31,171.58h-8.69a4,4,0,0,0-2.08.59,60.25,60.25,0,0,1-9.44,4.62,6.08,6.08,0,0,1-5.35-.46,58.2,58.2,0,0,0-9.63-4.75c-1.22-.47-2.46-.89-3.71-1.29a58.86,58.86,0,0,0-13.08-2.46.28.28,0,0,1-.26-.28V135.06l-.28-.15a60.6,60.6,0,0,0-17.3-6.23l-.42-.08a58.22,58.22,0,0,0-7-.91c-.5,0-1-.07-1.51-.09-.8,0-1.6-.06-2.4-.07v-.1c-.78,0-1.56,0-2.34,0-1.29,0-2.56,0-3.83.11a.28.28,0,0,1-.29-.34,65.82,65.82,0,0,0,1.12-26.93.28.28,0,0,0-.28-.23h-1.81c-.12,0-.27.19-.27.19-5,12.36-5.58,24.56-1.27,36.59a4.9,4.9,0,0,0,4.62,3.24h15a.29.29,0,0,1,.28.28v28.77a.28.28,0,0,1-.21.26c-1,.24-1.95.5-2.91.79-1.45.43-2.89.92-4.3,1.46a59.69,59.69,0,0,0-29.15,24.14,61,61,0,0,0-3.83,7.25.26.26,0,0,1-.25.16h-38V139.31a.28.28,0,0,0,0-.15,61.3,61.3,0,0,0-18.2-18.78.27.27,0,0,0-.15,0h-62.6a.28.28,0,0,0-.28.33A60.9,60.9,0,0,0,185,140c.19.35.39.7.6,1a.27.27,0,0,0,.24.14H187a73.22,73.22,0,0,1,41,12.49.29.29,0,0,1,.12.23v6.21a.27.27,0,0,1-.44.22,67.49,67.49,0,0,0-38.18-13.49c-.82,0-1.64,0-2.47,0h-.21A68.59,68.59,0,0,0,174.2,148l-1.67.33a67.83,67.83,0,0,0-9.73,2.91l-.75.29a66.38,66.38,0,0,0-7.1,3.3q-2.16,1.16-4.22,2.47c-1.19.75-2.36,1.55-3.5,2.37-.81.59-1.6,1.2-2.39,1.81a5,5,0,0,0-1.87,3.9,5,5,0,0,0,1.47,3.55,1.25,1.25,0,0,0,1.71,0h0a60.68,60.68,0,0,1,8.22-6.21q2-1.29,4.19-2.42a58.88,58.88,0,0,1,6-2.74q1-.41,2.07-.78a61,61,0,0,1,8.85-2.38c.5-.1,1-.19,1.49-.27a62.1,62.1,0,0,1,9.8-.81H187a62.88,62.88,0,0,1,8.74.61,61,61,0,0,1,32.35,15.23l.36.32,1.28,1.22c.29.27.56.55.84.83a60.4,60.4,0,0,1,5.43,6.31,61.65,61.65,0,0,1,5.64,9.07,59.28,59.28,0,0,1,3.33,7.91c0,.07.05.14.06.2a60.58,60.58,0,0,1,3,15.39v0l.51,2.58a.28.28,0,0,0,.27.22h54.55a.27.27,0,0,0,.26-.2,49.62,49.62,0,0,1,3.08-8c.14-.29.28-.59.43-.88s.36-.7.55-1.05a50.2,50.2,0,0,1,30.36-24.45l.42-.12a50,50,0,0,1,7-1.41c1.25-.15,2.52-.27,3.8-.33h.24c.78,0,1.58-.06,2.37-.06,1,0,2,0,3,.08l.94.07.28,0a49.68,49.68,0,0,1,13.34,3c.65.23,1.28.49,1.92.75h0c1.71.15,3.45.23,5.21.24h1c1.6,0,3.18-.11,4.74-.25l.27,0c1.56-.15,3.1-.35,4.62-.61l.72-.13.82-.16a60.84,60.84,0,0,0,19.69-7.63A.28.28,0,0,0,408.31,171.58Z"/><rect class="cls-3" x="374.76" y="183.16" width="46.74" height="6.13" rx="2.61" ry="2.61"/><g class="cls-5"><g class="cls-6"><g class="cls-6"><path class="cls-7" d="M96.3,281.21c.57-.15.79-1,1.49-.72l.08,1.26.08,1.07a1.88,1.88,0,0,1-1.28-.18A1.18,1.18,0,0,1,96.3,281.21Z"/><path class="cls-7" d="M79.91,268.29c-.07-1.31-.2-2.54-.32-3.85.1-.79.19-1.66.24-2.45v-.65c.1-1.16.14-2.31.24-3.47,0-.79,0-1.66,0-2.45l.26-.36c-.11-.79-.21-1.59-.27-2.38a5.46,5.46,0,0,1,.47-.71c-.21-.44-.48-.95-.74-1.39,0-.79,0-1.66,0-2.45h-.26c-.06-2-.17-3.9-.27-5.85.11-3.24.22-6.48.29-9.72l.8,0c0-.64,0-1.36,0-2.08l-.79,0c0-1.8-.14-3.68-.23-5.49,0-.71,0-1.44,0-2.08,1-1.91,0-1.45,0-2.09.27-.79.54-1.57.82-2.42,0-.29,0-.65,0-1,.17-.72.33-1.36.5-2.07,0-4.33.36-7,.43-10.72-.18-2.32-.66-7,1-8.54-.71-1.55-.4-3.12-.42-4.56.79.11.45-1.06.79-1.7,0-.43,0-.93,0-1.36l0-2.09c0-.65,0-1.37.07-2.09l.24-6.93c.14-.79.28-1.57.36-2.36s-.08-1.68-.15-2.48-.08-1.6-.09-2.4c-.17-.89-.29-1.7-.4-2.51l0-.37c0-1,0-2.12-.06-3.16s0-2.36,0-3.56c.18-.74.35-1.4.48-2.15-.84-1-.39-2.62.11-4,.07-.35.12-.69.25-1.17,0-.12.06-.22.11-.38l.07-.23.09-.25.13-.31.07-.15,0-.08.06-.13c.09-.16.18-.33.28-.48l.07-.12a1.17,1.17,0,0,1,.11-.16l.32-.42.36-.38.18-.18.09-.08.18-.16.36-.32c.24-.21.47-.39.71-.59a29.91,29.91,0,0,1,2.78-2c.5-.67,1-1.38,1.35-2a5.88,5.88,0,0,1,.78.7l.54-.36.22-.15.19-.13c.26-.18.51-.37.76-.56A9.15,9.15,0,0,0,94.6,143L93.46,142c.28-.85-.37-1.54-.46-1.83l.15-.25.09-.29c.06-.19.16-.36.21-.55.89-1,1.44-1.72.74-2.25-.08-1.19-.15-2.33-.23-3.52.65-2.08.53-3.65-.2-3.59,0-.53,0-1,0-1.52s0-1.24,0-1.93,0-1.32.12-2a8.77,8.77,0,0,0,.34-1.54,3.46,3.46,0,0,0,0-1,3.81,3.81,0,0,0-.4-1c.13-.65.26-1.29.38-1.93s.34-1.28.51-1.88a28.39,28.39,0,0,1,1.84-4.64,6.5,6.5,0,0,0,1-2.16,4,4,0,0,1,.56-1.57,21.32,21.32,0,0,1,2.12-2c.18-.23.37-.46.57-.67a2.5,2.5,0,0,1,.73-1.87,9.84,9.84,0,0,1,1.51-1.25c.2-.2.43-.38.64-.58a1.63,1.63,0,0,1,.57-1.41,5.13,5.13,0,0,1,1.24-.78c0-.43.09-.88.2-1.42l1.66-.81c.54-.26,1.09-.49,1.65-.74.79-.52,1.55-.89,2.37-1.35.11-.42.22-.88.35-1.3l1.37-.39c.45-.12.89-.21,1.31-.31.79-.29,1.59-.51,2.37-.75l.59-.18.57-.15,1.16-.31c.31.51.54,1.1.85,1.62-.61.41-1.19.87-1.77,1.34l-.42.15a9.83,9.83,0,0,0-1.3-1.16c-.69.24-1.28.5-2.37,1-.87,1-2.27,1.43-2.86,2.31a17.86,17.86,0,0,0-2.53.89c-.41.3-.8.64-1.2,1s-.81.64-1.18,1-.77,1-1.11,1.48c.14,1.56-1,2.12-1.65,2.94l.5.55c-.19.19-.39.38-.64.64l-1.36,1.36c-.45.47-.9,1-1.37,1.49a3.05,3.05,0,0,0-.86,1.91,5,5,0,0,0,.22,1.41c-.18.42-.37.84-.53,1.26s-.31.85-.46,1.23c-.3.47-.61,1-.91,1.52l.17,1.07L97.71,119c-.19.63-.35,1.26-.52,1.89s-.27,1.22-.4,1.84-.21,1.17-.31,1.76c.31.63.62,1.12.91,1.7l-.16.72c0,.23-.08.47-.13.71l-.27,1.45c0,.48.06.94.1,1.4s.09.88.14,1.34l0,1,.47,0c0,.48-.09,1-.16,1.42s-.14.93-.24,1.33l-.48,0c-.23.84-.14,1.07,0,1.36s.41.5.41.91,0,.56,0,.85-.09.57-.15.84a1.5,1.5,0,0,0,1.45-.64,1,1,0,0,0-.18-1.26l.08-.53a6.14,6.14,0,0,0,.63-.71c.2-.26.4-.56.61-.87a3.78,3.78,0,0,1,.69,1.66,3.62,3.62,0,0,1-.09,1.44c-.11.45-.24.88-.37,1.3a4.85,4.85,0,0,0-.17,1.35,4.21,4.21,0,0,0-.16,2.36,2,2,0,0,1-.23,1,1.57,1.57,0,0,1-.4.47,2.69,2.69,0,0,1-.74.34c-1.65.88-2.44,1.52-2.17,2.39-.38.28-.77.56-1.17.83l-1.27.84c-.87.56-1.76,1.12-2.65,1.72-.9-.49-1.12.59-1.93,1-.13.25-.26.5-.4.73l-.1.16,0,.05v0l0,0-.13.2a3.11,3.11,0,0,0-.12.3l0,.24c-.09.59-.12,1.06-.18,1.55-.12,1-.32,1.9-.52,2.83a9.58,9.58,0,0,0,.11,5.75c-.85,1.65-.22,2.58,0,4.18-.12,1.14-.29,2.28-.45,3.42,1.55,1.91-1.12,3.67-.48,6.16C86.27,179,86.12,180,86,181c.1,1.44,1.09,3.59.13,3.82.07,1.3-1.32,1.58-.89,3.41.63,2,0,4.67.85,5.94-1,2.4.69,7-.68,9.61.92,2.05.23,5.54.35,8.28l0,1.73c-.58-.1-.48.84-.49,1.34s-.22,1.15.25,1.45c.42-.05.14.94-.82,2h-.26c-.32-.58-.63-1.1-1-1.76a21,21,0,0,0-1.3,2.4c.27.15.53.24.79.39.21.58.47,1.17.73,1.75l-1,1.33c-.6,1.78,1,.9,1.25,2.13-.42,1-.87,2.06-1.3,3,.36,2.32-.82,4.15,0,6.19a9.92,9.92,0,0,1-1.28.68c0,.73.16,1.38.26,2.1-.11,1.15-.22,2.3-.27,3.45.79.67,1.1,2.69,0,2.74v3.46l1.28,2.11c1-.48,1.53,1,1.27,2.12l-1,.63c.17.5.31.94.48,1.45-.26.42-.47.92-.73,1.35v1.37c0,.72,0,1.37,0,2.09a8.79,8.79,0,0,0,.76,2.75l1,0c.37.51.69.95,1.07,1.39.23,1.87-.33,3.23-.47,4.89-.49,2.3-1.78,1.42-2.52,1.7,0,.58,0,1.16,0,1.74a15.39,15.39,0,0,0-1.52,1C80,271.27,79.88,269.67,79.91,268.29Z"/><path class="cls-7" d="M99.39,258.51c-.65-1.37-.44-2.08.19-2.71C100.22,257,100.82,258.53,99.39,258.51Z"/><path class="cls-8" d="M93.47,251.53a11.26,11.26,0,0,1-.74-1c.36-2.71-.81-5,0-7.88-1.8-1.12-2.06.88-3.07.21-.8-.38-.21-1.3-.74-2h-.27a4.4,4.4,0,0,0-2.27-.78c-.16-.8-.31-1.59-.52-2.46.53-.63,1-1.33,1.54-2,1.22.39.47,2,1.53,2.05.16.51.3.94.47,1.45,1.28-2.26,1-4.35,1.08-6.21l1-1.33a9.26,9.26,0,0,1,1,.74c.1.44.15.94.25,1.37.05,1.37.15,2.73.25,4.1.06.64.16,1.15.21,1.72.53.3,1.06.53,1.54.76.27.72.51,1.37.79,2.1-.22.78-.37,1.56-.53,2.35-.22,1.14.31,1.86.53,2.8v.64c-.21,1.14-.37,2.36-.52,3.43Z"/><path class="cls-9" d="M96.75,270.79c-.3-1.57-.59-3.14-.88-4.78-.18-1.29-.35-2.5-.52-3.79v-.64c.47-.35,1-.7,1.53-1.05.19-1.56-1.18-.8-1.56-1.74-.11-1.21-.17-2.5-.29-3.79.11-.57.16-1.07.26-1.71.47-.28,1-.62,1.53-1,0-1.64.1-3.57-1.28-4.18v-.64c-.22-.94-.75-1.66-.53-2.8.16-.79.31-1.57.53-2.35-.28-.73-.52-1.38-.79-2.1v-2.43a1.2,1.2,0,0,0-1.75,0c-.1-1.37-.2-2.73-.25-4.1l2.55.08c1.76-2.59-.24-5.81.8-9.28.88-3.69-.57-6.82.63-9.92.89,5.39.21,10.81,1.13,14.77h-.26c.3,2.45-.56,5.07-.31,7.93.37,1.59,1,3-.27,3.43v1.71a3.61,3.61,0,0,1,.26.66c0,.85-.16,1.64-.26,2.42l1.27,0a7.56,7.56,0,0,0,1.27,3.1c0,2.43,0,4.79,0,7.21-.63.63-.84,1.34-.19,2.71-.38,4.83-.75,9.6-1.06,14.33C97.78,272.14,97.24,271.5,96.75,270.79Z"/><path class="cls-10" d="M99.55,248.59a7.56,7.56,0,0,1-1.27-3.1l-1.27,0c.1-.78.21-1.57.26-2.42a3.61,3.61,0,0,0-.26-.66v-1.71c1.22-.47.64-1.84.27-3.43-.25-2.86.61-5.48.31-7.93h.26c-.92-4-.24-9.38-1.13-14.77-1.2,3.1.25,6.23-.63,9.92-1,3.47,1,6.69-.8,9.28l-2.55-.08c-.1-.43-.15-.93-.25-1.37.26-.56.53-1.13.75-1.69.11-1.08-.74-.38-1-1.11,0-.93,0-1.79,0-2.72,0-1.94,0-3.87,0-5.88-.41-1-.13-2.51-.22-3.81.22-.63.39-1.34.55-2,.76-1.77.88-2.55.57-3.13.22-.64.5-1.35.77-2a13.92,13.92,0,0,0-.51-1.45c.23-.78.4-1.56.57-2.34-.25-.94-.49-1.89-.69-2.82.07-.86.19-1.79.27-2.71l0-1.72c1.56-.93-.71-1.32.07-3.43a2.2,2.2,0,0,1-.46-.38c-.93-1.34-.24-3.09-.43-4.11l.85-2c.07-.71.19-1.34.27-2.06-.13-1-.26-2.08-.38-3.09v-.35c.09-1.29.24-2.49.39-3.77.2-2.27-.54-2.46-.91-3.76.61-2-.06-2.36-.07-3.15a11.2,11.2,0,0,0,.63-3c.08-1.55.17-3.17.28-4.71-.23-.44-.69-.84-.64-1.4,0-.27,0-.48,0-.69.1-.62.26-1.3.43-2s1.07-2.26.6-3.37c.07-.29.14-.57.22-.81a2.64,2.64,0,0,1,.2-.55l0,0h0s.1,0-.18,0l-1.14-.31c-.37-.1-.79-.25-1.08-.32s-.64-.19-.95-.31l-.82-.31-.37-.16c-.12-.05-.26-.14-.34-.16a3.18,3.18,0,0,1-.53-.31,1.13,1.13,0,0,1-.18-.12.46.46,0,0,1-.07-.07l0,0,0,0h0l4.2,4.64h0l.07,0,.13-.08.26-.18a6.7,6.7,0,0,1,1-1.17c.39-.36.86-.75,1.43-1.26l1.2-1,1.45-1.22a10.54,10.54,0,0,0,3.67-2.91c.71-.93,1.2-1.76,2-2.91a10,10,0,0,0,.48-1l.39-1.08a16.83,16.83,0,0,0,.58-2.19,21.33,21.33,0,0,0,.63-3.91c.38-.46.1-1.64.38-2.58.14-.61.25-1.12.35-1.65s.14-1,.18-1.41a15.11,15.11,0,0,0,0-2.31,11.17,11.17,0,0,0-.78-3.33c-.07-.55-.14-1.11-.2-1.67s-.13-1.09-.2-1.59.1-1.31.19-1.85a6,6,0,0,0,.44-.9,1.62,1.62,0,0,0,.14-.56A6.15,6.15,0,0,0,107,121l-.46-.12.36-1.21c.15-.39.31-.79.48-1.21-.08-.1-.07-.23-.11-.38a15.35,15.35,0,0,1,1-1.38,6.18,6.18,0,0,0,.08-.66c.14-.31.33-.61.49-.93l.24-.48.27-.46c.33-.23.65-.51,1-.74.34-.45.67-1,1.07-1.5a26,26,0,0,1,2.78-2.33,14.78,14.78,0,0,0-.93,2,1.59,1.59,0,0,1-.49.63,1.22,1.22,0,0,1-.81.25,15.45,15.45,0,0,0-1.07,1.41c-.11.29-.19.59-.32.86a8,8,0,0,1-.43.75,8.25,8.25,0,0,1-1.06,1.3c.27.37.55.73.84,1.07-.2.32-.31.62-.49,1,1,.66.54,1.16.37,1.69a6,6,0,0,0,.62.69,7.3,7.3,0,0,0,0,.8c0,.28,0,.56,0,.85-.39.4-1.33.58-1.22,1.35.57.16,1.47.13,2.17.33a1.55,1.55,0,0,1,.84.5.91.91,0,0,1,.18.44,2.1,2.1,0,0,1,0,.71,16.41,16.41,0,0,0,0,3.79,20.17,20.17,0,0,1-.19,4.83l.41.77a6.68,6.68,0,0,1,.32.86,4.17,4.17,0,0,1,.13,1.09,7.27,7.27,0,0,1-.25,1.66c-.6-.25-.69,1.23-.91,2.11-.13.64-.19,1.17-.24,1.63s-.1.87-.15,1.29a6.65,6.65,0,0,1-.26,1.3,9.32,9.32,0,0,1-.73,1.61,6.42,6.42,0,0,1-.74.88c-.18,1.93.2,2-.44,3.11a6.19,6.19,0,0,0,1.18-1.18,5,5,0,0,0,.55-.88c.24-.51.34-.84.55-1.27l.43-1a27.66,27.66,0,0,0,1.61-3.11,27.59,27.59,0,0,1-1.19,3.34c.41.65.76,1.29,1.1,2-.29.58-.61,1.14-.92,1.7a17.55,17.55,0,0,1-5.55,4.61l-.91.83a23.63,23.63,0,0,1-2.28,3c-.34.17-.71.29-1,.45-.88.77-1.32,1.2-1.78,1.67l-1.72,1c-.06.15,0,.27-.1.37l-.6.36-.47.29a2.28,2.28,0,0,1-.8-.11l-1-1.12-.14-.08-.07,0,0,0h0l-7.15-7.89h0v0l0,0a.74.74,0,0,0,.2.16c.06,0,.19.14.29.19l.32.17c.12,0,.28.14.42.2a5.41,5.41,0,0,0,.63.24l.71.27.64.2.53.16c.64.2,1.3.38,2,.53s1.51.39,2.26.55l1.19.24c.39.09,1,.23.87.2a.32.32,0,0,1,.09,0,1.53,1.53,0,0,1,.29.43c.18.37.37.83.57,1.32a1.84,1.84,0,0,0,.51-.21c-.2,1.09-.43,2.32-.59,3.56.15.68.37,1.31.59,2-.25,1.13-.49,2.35-.77,3.58.54,2.55.77,4.39,0,5.67-.12,1.26-.27,2.45-.43,3.71,0,.35,0,.71,0,1a11.74,11.74,0,0,1,.21,1.43c-.18.56-.35,1-.53,1.67a4.44,4.44,0,0,0,1.22,1.42c-.14,1-.28,2-.36,3,.07,3.49.13,7,.2,10.61.08,1.15.91,1.9,1,3.12v.71l-.84,2c0,1.64,0,3.21-.08,4.78.09,1.07.18,2.07.21,3.15,0,.42,0,.92,0,1.35l-.48,25.71c-1.33,1.82-.27,1.49,0,2.07-.16,2-.32,4.06-.48,6.13C99.41,246.52,99.48,247.59,99.55,248.59Z"/><path class="cls-7" d="M93.2,239.49c0-.57-.15-1.08-.21-1.72a1.2,1.2,0,0,1,1.75,0v2.43C94.26,240,93.73,239.79,93.2,239.49Z"/><path class="cls-11" d="M83.36,260.31a8.79,8.79,0,0,1-.76-2.75c0-.72,0-1.37,0-2.09V254.1a4.86,4.86,0,0,0-.53-.37,15.38,15.38,0,0,1,1.26-1c-.17-.51-.31-.95-.48-1.45l1-.63c.26-1.07-.32-2.6-1.27-2.12l-1.28-2.11V243c1.11,0,.8-2.07,0-2.74,0-1.15.16-2.3.27-3.45-.1-.72-.21-1.37-.26-2.1a9.92,9.92,0,0,0,1.28-.68c-.79-2,.39-3.87,0-6.19.43-1,.88-2,1.3-3-.26-1.23-1.85-.35-1.25-2.13l1-1.33c-.26-.58-.52-1.17-.73-1.75-.26-.15-.52-.24-.79-.39,0-.22-.15-.44-.25-.73a20.55,20.55,0,0,0,1.55-1.67c.42.66.83,1.18,1.25,1.77,1-1,1.24-2,.82-2-.47-.3-.2-.94-.25-1.45s-.09-1.44.49-1.34l0-1.73c-.12-2.74.57-6.23-.35-8.28,1.37-2.6-.28-7.21.68-9.61-.87-1.27-.22-4-.85-5.94-.43-1.83,1-2.11.89-3.41,1-.23,0-2.38-.13-3.82.08-1,.23-2,.37-3.08-.64-2.49,2-4.25.48-6.16.16-1.14.33-2.28.45-3.42-.23-1.6-.86-2.53,0-4.18a9.58,9.58,0,0,1-.11-5.75c.2-.93.4-1.86.52-2.83.06-.49.09-1,.18-1.55l0-.24a3.11,3.11,0,0,1,.12-.3l.13-.2,0,0v0l0-.05.1-.16c.14-.23.27-.48.4-.73.81-.42,1-1.5,1.93-1,.89-.6,1.78-1.16,2.65-1.72l1.27-.84c.4-.27.79-.55,1.17-.83-.27-.87.52-1.51,2.17-2.39a2.69,2.69,0,0,0,.74-.34,1.57,1.57,0,0,0,.4-.47,2,2,0,0,0,.23-1,4.21,4.21,0,0,1,.16-2.36,4.85,4.85,0,0,1,.17-1.35c.13-.42.26-.85.37-1.3a3.62,3.62,0,0,0,.09-1.44,3.78,3.78,0,0,0-.69-1.66c-.21.31-.41.61-.61.87a6.14,6.14,0,0,1-.63.71l-.08.53a1,1,0,0,1,.18,1.26,1.5,1.5,0,0,1-1.45.64c.06-.27.11-.56.15-.84s0-.58,0-.85-.12-.73-.18-1.09-.15-.75-.24-1.18l.48,0c.1-.4.17-.87.24-1.33s.13-.94.16-1.42l-.47,0,0-1c-.1-.64-.2-1.32-.24-2v-.74l.27-1.45c.05-.24.09-.48.13-.71l.16-.72a7.34,7.34,0,0,0-1-.88c0-.24,0-.49.06-.82.1-.59.18-1.15.31-1.76s.24-1.22.4-1.84.33-1.26.52-1.89l.67-1.89-.17-1.07c.3-.49.61-1,.91-1.52l.66.34c.56-.32,1.09-.72,1.66-1a9.17,9.17,0,0,0,.36,1.54,9.1,9.1,0,0,0-.16.91c0,.32,0,.63,0,.94s0,.63,0,.94l.09.94.09.92c0,.3.09.59.13.88s.06.58.08.86a7.7,7.7,0,0,1,0,.83,1.57,1.57,0,0,0-.72,1.43c0,.32,0,.68,0,1.08a9.39,9.39,0,0,1-.1,1.33l.53,0c.08,1.83.24,3.71.43,5.5-.4,1.2.67.89,1,1.48,0,.58-.05,1.09-.08,1.74a39.58,39.58,0,0,1,.86,4.92A17.22,17.22,0,0,1,97.14,150c-.38.3-.78.58-1.18.87l-1.11.79c-.74.52-1.47,1-2.15,1.56a23.93,23.93,0,0,0-1.92,1.64l-.42.44-.06,0,0,0h0c-.54-.59,1.2,1.33-1.2-1.32h0l0,0a.63.63,0,0,0,.22.18c.08,0,.22.16.33.22l.39.18a4.44,4.44,0,0,0,.49.24l.11,0h0v0a10.18,10.18,0,0,0-.1,1,5.49,5.49,0,0,1-.73,1.85,3.4,3.4,0,0,0,.15,2.7c0,.78,0,1.64,0,2.42-.79,2.78-.57,4.53-1.38,5.75.27,2,1.25,1.46,1.16,2.1s0,.93-.07,1.43c-.56,1.89.06,2.37.13,3.09-.66,1.89,0,2.15-.11,2.72v.35c-.05,1.36-.1,2.72-.15,4.15,0,.29,0,.65,0,1-.3,1-.6,2-.84,3,0,1.36.06,2.8.1,4.16l-.05,1.73-.21,0c-.67,3.56-.14,8.47-.77,11.32.65,1.82,0,4,.17,5.54-1,.46-.34,1.78-.83,2.69-.07.72-.18,1.36-.24,2.08-.24,2.29.36,5.33-.87,6.86.35,1.17.66,2.33,1,3.49-.22.21-.48.41-.75.69,0,1,0,1.37,0,1.73-.32.06-.85-.32-1,.25a5,5,0,0,0,1.51,3.5c-.21.71-.38,1.42-.54,2.06.1.58.15,1.16.26,1.74.31.37.68.74,1,1.11-.53.63-1,1.33-1.54,2,.21.87.36,1.66.52,2.46s.16,1.66.26,2.45v3.45l-.79,1.35c.1,1.72,1,3.47,0,5.17,0,1.58-.14,3.24-.24,4.82,0,1.22-.93,1.92-1.24,3.07Z"/><path class="cls-12" d="M88.92,237.65c0-.57.16-1.07.27-1.71.32-1.14-.53-1.31-1-1.76.11-.64.21-1.36.27-2-.31-.51-.68-1-1-1.47l-.74,0a5,5,0,0,1-1.51-3.5c.16-.57.69-.19,1-.25,0-.36,0-.73,0-1.73.27-.28.53-.48.75-.69-.31-1.16-.62-2.32-1-3.49,1.23-1.53.63-4.57.87-6.86.06-.72.17-1.36.24-2.08.49-.91-.13-2.23.83-2.69-.13-1.52.48-3.72-.17-5.54.63-2.85.1-7.76.77-11.32l.21,0,.05-1.73c0-1.36-.07-2.8-.1-4.16.24-1,.54-2.06.84-3,0-.36,0-.72,0-1,0-1.43.1-2.79.15-4.15v-.35c.13-.57-.55-.83.11-2.72-.07-.72-.69-1.2-.13-3.09,0-.5,0-.93.07-1.43s-.89-.14-1.16-2.1c.81-1.22.59-3,1.38-5.75,0-.78,0-1.64,0-2.42a3.4,3.4,0,0,1-.15-2.7,5.49,5.49,0,0,0,.73-1.85,10.18,10.18,0,0,1,.1-1v0h0l-.11,0a4.44,4.44,0,0,1-.49-.24l-.39-.18c-.11-.06-.25-.17-.33-.22a.63.63,0,0,1-.22-.18l0,0h0c2.4,2.65.66.73,1.2,1.32h0l0,0,.06,0,.42-.44a23.93,23.93,0,0,1,1.92-1.64c.68-.53,1.41-1,2.15-1.56l1.11-.79c.4-.29.8-.57,1.18-.87a17.22,17.22,0,0,0,6.76-9.88,39.58,39.58,0,0,0-.86-4.92c0-.65.06-1.16.08-1.74-.3-.59-1.37-.28-1-1.48-.19-1.79-.35-3.67-.43-5.5l-.53,0a9.39,9.39,0,0,0,.1-1.33c0-.4,0-.76,0-1.08a1.57,1.57,0,0,1,.72-1.43,7.7,7.7,0,0,0,0-.83c0-.28,0-.57-.08-.86s-.08-.58-.13-.88l-.09-.92-.09-.94c0-.31,0-.62,0-.94s0-.62,0-.94a9.1,9.1,0,0,1,.16-.91,9.17,9.17,0,0,1-.36-1.54c-.57.27-1.1.67-1.66,1l-.66-.34c.15-.38.3-.8.46-1.23s.35-.84.53-1.26a5,5,0,0,1-.22-1.41,3.05,3.05,0,0,1,.86-1.91c.47-.52.92-1,1.37-1.49l1.36-1.36c.25-.26.45-.45.64-.64.58-.43,1.13-.89,1.73-1.26.43-.52.83-1,1.25-1.52s.82-1,1.28-1.46a14,14,0,0,1,3.36-2.68,39.53,39.53,0,0,1,6.08-3l.42-.15.21.71c-.75.51-1.44.89-2.17,1.39.09.25-1,.89-.42,1.27a5.07,5.07,0,0,1,3.17-.6,7.59,7.59,0,0,0,1.26,0,3.76,3.76,0,0,0,1.39-.44c.52-.2.95-.43,1.48-.61,1.31.12,2.6.29,3.85.51a47.4,47.4,0,0,0-4.6,1.49c-.77.27-1.57.62-2.39.93l-2.48,1c-.83.33-1.63.7-2.45,1a23.84,23.84,0,0,1-2.37.82,2.54,2.54,0,0,0-1,.74,3.51,3.51,0,0,0-.44.89,2.59,2.59,0,0,1-1,1.55c-1.25,2-2.24,4-3.29,6,.14.5.25,1,.37,1.57a13.71,13.71,0,0,0-1,2.1l-.14.23a14.45,14.45,0,0,0-1.18.88,11.88,11.88,0,0,0-1.13,1c.41.57.84,1,1.27,1.55l.71-.72a9.81,9.81,0,0,1,.73-.71l.67.32c0,.15,0,.28.11.38-.17.42-.33.82-.48,1.21l-.36,1.21c-.14.3-.24.65-.36,1,0,.17-.12.34-.17.51l-.14.52a3.29,3.29,0,0,1,.68.43c-.09.54-.13,1.21-.19,1.85s.14,1,.2,1.59.13,1.12.2,1.67a11.17,11.17,0,0,1,.78,3.33,15.11,15.11,0,0,1,0,2.31q-.06.67-.18,1.41c-.1.53-.21,1-.35,1.65-.28.94,0,2.12-.38,2.58a21.33,21.33,0,0,1-.63,3.91l-.47,1c-.08.16-.16.33-.25.48l-.29.46a12.27,12.27,0,0,1-1.28,1.75,19.61,19.61,0,0,1-5.23,5.83l-.5.24-.47.22c-.28.12-.57.25-.85.35-1,.26-1,1.07-1.52,1.5a21.81,21.81,0,0,0-2.55,1.8l-.25.22-.07.06,0,0h0l-3.14-3.46h0l0,0,0,0,.07.06a.62.62,0,0,0,.17.11l.23.16.25.13c.08,0,.17.07.29.14a16.07,16.07,0,0,0,1.5.6l.88.28.49.14.35.11a.84.84,0,0,0,0,.13c-.07.34-.15.89-.22,1.44,0,1.73-.06,3.63,0,5.51l.26,0c0,.21,0,.42,0,.69-.21.62-.42,1.3-.67,2,0,1.34-.39,2.87,0,4l-.56.67.67,2.4c-.13.56-.21,1.13-.34,1.69.24.52.76.84.68,1.48s-.36,1-.54,1.67a3.73,3.73,0,0,0,.2,1.73c-.15,1.06-.3,2.27-.39,3.41,0,.64,0,1.35-.07,2l.48,0c.09.71.17,1.44.2,2.08h-.26c.08.72.17,1.36.2,2.08s0,1.36,0,2.07c.19,1-.5,2.77.43,4.11-.28.77-.58,1.61-.85,2.39.46.88,0,2.22.47,3.1l-1,1.32c.26.51.46.95.72,1.39-.07,1.07-.2,2.07-.32,3.14h.26c0,.65,0,1.36,0,2,0,1.14,0,2.36,0,3.44l-.48,0a10.19,10.19,0,0,1-1-5.49l-.48,0c-.79,3.05-.09,5.66-.9,6.85-.3,2.78-.67,7.3.15,10.34l-1,1.33.25,1c-.11.72-.17,1.36-.28,2.07l1,0c.57.8,1.2,1.69,1.78,2.49.27-.35.48-.7.75-1.05.26.73,1.11,0,1,1.11-.22.56-.49,1.13-.75,1.69a9.26,9.26,0,0,0-1-.74l-1,1.33c-.11,1.86.2,4-1.08,6.21C89.22,238.59,89.08,238.16,88.92,237.65Z"/><path class="cls-7" d="M86.39,234.49c-.11-.58-.16-1.16-.26-1.74.16-.64.33-1.35.54-2.06l.74,0c.32.51.69,1,1,1.47-.06.64-.16,1.36-.27,2s-.48.92-.75,1.42C87.07,235.23,86.7,234.86,86.39,234.49Z"/><path class="cls-7" d="M116.88,131.6a14,14,0,0,0-.25-1.44c.06-.64.12-1.3.18-2s.11-1.22.17-1.68l.74,0c0-.75.11-1.4.18-1.91a2.59,2.59,0,0,0,.58-.25,1.36,1.36,0,0,1,.51.39.7.7,0,0,1,.12.26,1.45,1.45,0,0,1,0,.3,1,1,0,0,1,0,.3c0,.1-.08.2-.12.32a1.94,1.94,0,0,1-.46.64c.26.11.47.17.73.28-.11,1.31-.23,2.9-.35,4.8,0,.75-.09,1.47-.15,2.25,0,.41-.07.82-.11,1.23l0,.62-.07.68a8.73,8.73,0,0,0-1.57.32c0-1.06,0-1.89,0-2.79,0-.46,0-.82,0-1.23S116.9,132,116.88,131.6Z"/><path class="cls-9" d="M128,93.61c-.44-1.08.93-1.28,2.16-1.48s2.33-.48,1.46-2c-.18-.41-.29-.82-.47-1.23,0-.32,0-.69-.05-1,.82-.07,1.57-.13,2.38-.18.24-.38.48-.72.72-1.1,1-.37,2.11-.74,3.15-1.13,1.11,1.24,1.09,1.78,1.08,2.25-.62.22-1.26.41-1.89.58a12.74,12.74,0,0,1,.39,1.79v1.48l2.59-.05c.07.27.21.53.28.79a17.78,17.78,0,0,1,.7,2c-1.18.11-2.37.24-3.57.32l-.37,0V93.44a11.18,11.18,0,0,1-1.07-.49c-1,.41-2,.79-3,1.24a19.64,19.64,0,0,1,.86,2.22v.26a10.21,10.21,0,0,1-.31,1.3,9.46,9.46,0,0,1,1.12.67c.09.52.25,1,.34,1.51v.27c-.64.19-1.33.41-2,.62-1.25.16-1.83-.89-2.18-1.55l-.11-1.26c-.17-.25-.27-.5-.44-.75.33-.47.67-.92.94-1.38-.1-.31-.28-.66-.38-1a5.92,5.92,0,0,0,.27-.56C129.85,94.23,129,94,128,93.61Z"/><path class="cls-7" d="M132.21,85.5c.78.42,1.36.77,2,1.15-.24.38-.48.72-.72,1.1-.81,0-1.56.11-2.38.18a7.4,7.4,0,0,0-.9-1C131,86.45,131.55,86,132.21,85.5Z"/><path class="cls-7" d="M144.93,98.21c-.4-.85-.81-1.71-1.28-2.56l0-.47a4.21,4.21,0,0,0,.39-.8c0-1-.14-2.17-.24-3.28-.41-.8-1.19-1.81.07-1.8H145c0,.53,0,1-.06,1.54.76,1.17,2.59,2.05.52,3.29,1.61,1.35,2.38,3.43.19,4.08-.39,1-.79,1.84-1.11,2.79h-1.07a5,5,0,0,1-.63-.54C143.5,99.73,144.25,99,144.93,98.21Z"/><path class="cls-8" d="M82.45,268.31c.74-.28,2,.6,2.52-1.7.12,1.15.19,2.31.32,3.46-.61,1.15-2.45,1.65-2.8,0C82.47,269.47,82.46,268.89,82.45,268.31Z"/><path class="cls-8" d="M95.74,270.78c-.54-.21-1.07-.43-1.55-.65-1.76-3.58,1.14-1.63.41-4.13,0-.58,0-1.14,0-1.72.26-.71.5-1.35.77-2.06.17,1.29.34,2.5.52,3.79.29,1.64.58,3.21.88,4.78Z"/><path class="cls-8" d="M95.31,258.79c-1-1-2.75,0-2.08-2.39.47-1,1.22-.91,1.79-1.4C95.14,256.29,95.2,257.58,95.31,258.79Z"/><path class="cls-8" d="M78.5,254.38a2.19,2.19,0,0,1,.52-1.72v-2.1c-.11-.72-.22-1.37-.27-2.1a3.23,3.23,0,0,0,.74-.34h.26c0,.79,0,1.66,0,2.45.26.44.53.95.74,1.39a5.46,5.46,0,0,0-.47.71c.06.79.16,1.59.27,2.38l-.26.36C79.51,255.05,79,254.68,78.5,254.38Z"/><path class="cls-8" d="M89.67,253.17c-.86-2.24-.76-3.67,0-4.09C90.4,251.25,90.56,252.47,89.67,253.17Z"/><path class="cls-8" d="M99.34,245.52c.16-2.07.32-4.14.48-6.13l.53-.7a14.24,14.24,0,0,0-.52-1.37l.48-25.71,1.53.7c-.25,2.49-.7,4.9.18,6.86-.56,2.34.8,4.39.68,6.88-.43.13-1-.25-1.28.32-.18,2.42,2.51,4.64.49,6.51.21,1.07.47,2.08.73,3.16-.17.78-.33,1.56-.54,2.34a6.06,6.06,0,0,1-.48.7c-.11.78-.16,1.57-.27,2.35,0,1.28,1.38,3.32-.27,3.77a4.56,4.56,0,0,1,.54,2.08c-.75-.3-1,.91-2.07,1.31C99.48,247.59,99.41,246.52,99.34,245.52Z"/><path class="cls-8" d="M79.51,232.55c0-.65,0-1.37,0-2.09l.79,0c0,.72,0,1.44,0,2.08Z"/><path class="cls-8" d="M79.3,225c-.68-1.1-.94-2,0-2.08C79.31,223.53,79.31,224.26,79.3,225Z"/><path class="cls-8" d="M80.17,217.37c-1.48-4.6-.32-8-.36-11.77-.77-4.5-.32-10.91.07-15.59.49-.33.24-1.14.31-1.72a1.85,1.85,0,0,0-.25-.37c-.48-7.35.91-13.9-.16-21,.51-.54.31-1.59.41-2.4a13.56,13.56,0,0,1-.16-4.83c.09-.9.21-1.84.35-2.82.07-.51.14-1,.22-1.51s.15-1.07.27-1.73a2.24,2.24,0,0,1-.09-.91,6,6,0,0,1,.48-1.85c0-.13.1-.24.16-.38s.21-.42.33-.62l.18-.31.26-.39a9.2,9.2,0,0,1,.91-1.07l.35-.34.09-.08.19-.17c.26-.22.54-.46.81-.65a18,18,0,0,0,2.84-2.21,17.54,17.54,0,0,0,2.38-1.57c.18-.13.32-.25.47-.38l.21-.18a.75.75,0,0,0,.13-.15c.15-.16.3-.33.43-.5a5.94,5.94,0,0,1,2-1.75c.09.29.74,1,.46,1.83L94.6,143a9.15,9.15,0,0,1-1.39,1.26c-.25.19-.5.38-.76.56l-.19.13-.22.15-.54.36a5.88,5.88,0,0,0-.78-.7c-.37.58-.85,1.29-1.35,2a29.91,29.91,0,0,0-2.78,2c-.24.2-.47.38-.71.59l-.36.32-.18.16-.09.08-.18.18-.36.38-.32.42a1.17,1.17,0,0,0-.11.16l-.07.12c-.1.15-.19.32-.28.48l-.06.13,0,.08-.07.15-.13.31-.09.25-.07.23c0,.16-.08.26-.11.38-.13.48-.18.82-.25,1.17-.5,1.4-1,3-.11,4-.13.75-.3,1.41-.48,2.15,0,1.2,0,2.39,0,3.56s.07,2.14.06,3.16l0,.37c.11.81.23,1.62.4,2.51,0,.8.07,1.6.09,2.4s.14,1.68.15,2.48-.22,1.57-.36,2.36l-.24,6.93c0,.72,0,1.44-.07,2.09l0,2.09c0,.43,0,.93,0,1.36-.34.64,0,1.81-.79,1.7,0,1.44-.29,3,.42,4.56-1.62,1.51-1.14,6.22-1,8.54-.07,3.74-.48,6.39-.43,10.72C80.5,216,80.34,216.65,80.17,217.37Z"/><path class="cls-8" d="M100.12,207.11c0-1.57,0-3.14.08-4.78l.84-2c1.31.7.1,2.71,1.2,3.4.67.89-.25,2.34-.59,3.4,0,.85,0,1.64,0,2.42-.37-.15-.54.41-1.29.67C100.3,209.18,100.21,208.18,100.12,207.11Z"/><path class="cls-8" d="M99.86,185.93c.08-1,.22-2.05.36-3l.51-1c-.41-1.73-1.34-1.08-1.2-2.06a11.74,11.74,0,0,0-.21-1.43c0-.28,0-.64,0-1,.16-1.26.31-2.45.43-3.71.8-1.28.57-3.12,0-5.67.28-1.23.52-2.45.77-3.58-.22-.7-.44-1.33-.59-2,.16-1.24.39-2.47.59-3.56a10.66,10.66,0,0,1,.21-1.19v-.06s0,0,0,0l-1.51-.3L97.82,157l-1.33-.28c-.45-.1-.89-.21-1.33-.33s-.78-.18-1.17-.29-.76-.21-1.14-.33c-.2-.07-.33-.1-.5-.15l-.47-.14c-.31-.1-.64-.24-.91-.34a5.21,5.21,0,0,1-.74-.3c-.27-.14-.43-.19-.61-.29a2.27,2.27,0,0,1-.25-.18.78.78,0,0,1-.18-.11l-.08-.07,0-.05,0,0h0l8.32,9.18h0l0,0a2.28,2.28,0,0,0,.8.11l.47-.29.6-.36c.06-.1,0-.22.1-.37l1.72-1a11.72,11.72,0,0,0,1.37.07,2.75,2.75,0,0,0,.39,0l.48-.08,1-.17c1.45-.73,1.59-1.75,3-2.54.67-.55,1.3-1.14,1.92-1.74s1.2-1.26,1.75-1.92c.74-.95,1.55-2,2.19-3a4.84,4.84,0,0,0-.48-1.17c.31-.56.63-1.12.92-1.7.44-.79.88-1.58,1.3-2.41s.76-1.71,1.14-2.63c.23-1.18.46-2.32.58-3.48l.18-1.75c.07-.6.09-1.12.11-1.59l0-.4a8.73,8.73,0,0,1,1.57-.32c.07.5.15,1,.22,1.6l0,.23,0,.27,0,.54,0,1.1a12.59,12.59,0,0,1-1,3.79,20.77,20.77,0,0,1-.41,2.4c-.09.4-.18.81-.28,1.2s-.24.78-.35,1.16c-.12,1.56-1.38,3.3-2.31,4.9-.4.58-.82,1.15-1.23,1.71l-.32.41a2.27,2.27,0,0,1-.31.4l-.63.74a34,34,0,0,1-6.59,5.32l-.9.56-.8.47-.6.32-.53.29c-.73.38-1.28.65-1.78.9a5.23,5.23,0,0,1-.28.47c-.69.22-1.07.28-1.25.12h0L89.05,154.11h0l.09.1a.79.79,0,0,0,.23.16,2.46,2.46,0,0,0,.34.22c.13.07.22.09.4.19a7.25,7.25,0,0,0,1,.42c.42.16.84.31,1.28.43l.34.1.38.12.78.22,1.62.41c.59.15,1.18.29,1.77.41l.89.18,1,.21c.65.14,1.29.26,1.92.38l1,.16,1,.2.25,0,.11,0h-.11a.66.66,0,0,0-.22.15,1.22,1.22,0,0,0-.29.42.9.9,0,0,0,0,.79c0,.44,0,.93,0,1.42-.5,1.27,1.12.5.91,1.62-.4.35-.76.77-1.15,1.13-.09,1-1.37,2.71,0,3a4.92,4.92,0,0,0-.2,3.29c-.38,1.22-.18,1.45.38,3-1.33.12-1.3.54-.34,1.66-1,2.46-.75,5.31-.56,7.37-.19,1-.61,2.45.17,2.77,0,2.77-.34,4.53.06,7.18,1.35-.71.65,1.81.42,2.37-1.56,1.13-.14,4.05-1.6,5.41-.08-1.22-.91-2-1-3.12C100,193,99.93,189.42,99.86,185.93Z"/><path class="cls-8" d="M93.45,139.06c-.17-.91-.17-2,.74-2.25C94.89,137.34,94.34,138.1,93.45,139.06Z"/><path class="cls-8" d="M94,133.29a4.61,4.61,0,0,1-.2-3.59C94.49,129.64,94.61,131.21,94,133.29Z"/><path class="cls-8" d="M93.78,128.18a5.41,5.41,0,0,1-.56-2.11,5.65,5.65,0,0,1,.26-1.93l.07-.86c0-.27,0-.56.09-.86q.12-.89.24-1.8a3.81,3.81,0,0,1,.4,1,3.46,3.46,0,0,1,0,1A8.77,8.77,0,0,1,94,124.2c-.07.73-.09,1.38-.12,2S93.79,127.54,93.78,128.18Z"/><path class="cls-8" d="M94.77,116.81c0-.29,0-.57,0-.83a6,6,0,0,1,.07-.75,8.06,8.06,0,0,1,.27-1.3,6.76,6.76,0,0,1,1.07-2c.21-.66.5-1.27.76-1.91s.56-1.25.85-1.87c.17-.33.34-.66.52-1l.59-.95.6-1c.21-.3.42-.59.62-.89a19.16,19.16,0,0,0,1.26-1.55c.37-.49.69-1,1.05-1.52a19.45,19.45,0,0,1,1.25-1.57,14.15,14.15,0,0,1,1.85-1.62c.51-.48,1-1,1.56-1.43s1.11-.88,1.7-1.34a4.69,4.69,0,0,1,1.46-.58,12.94,12.94,0,0,0,1.57-.45c-.13.42-.24.88-.35,1.3-.82.46-1.58.83-2.37,1.35-.56.25-1.11.48-1.65.74l-1.66.81c-.11.54-.15,1-.2,1.42a5.13,5.13,0,0,0-1.24.78,1.63,1.63,0,0,0-.57,1.41c-.21.2-.44.38-.64.58a9.84,9.84,0,0,0-1.51,1.25,2.5,2.5,0,0,0-.73,1.87c-.2.21-.39.44-.57.67a21.32,21.32,0,0,0-2.12,2,4,4,0,0,0-.56,1.57,6.5,6.5,0,0,1-1,2.16A28.39,28.39,0,0,0,94.77,116.81Z"/><path class="cls-8" d="M118.85,90.94c-.24-1,.46-1.41,1.44-1.68s2.19-.3,3-.47c1.28-1.32,4.48-1.24,4.44-2.56,1.48-.36,1.5.09,2.49.72a7.4,7.4,0,0,1,.9,1,50.7,50.7,0,0,0-5.18,1.4c-.42.07-.85.13-1.28.22l-.43.08c-.33.18-.76.31-1.17.51-.7.1-1.4.22-2.11.35Z"/><path class="cls-8" d="M132.21,85.5c-.27-.56-.73-1.21,0-1.27a3.5,3.5,0,0,1,1.67-1.59,4.31,4.31,0,0,1,1.6,1.06,10.5,10.5,0,0,0,2,1.55l.74-1.5c.15.85,1.06,1,1.94,1.13s1.72.11,1.77.59V86c.65.64,1.61,1.33,2.11,1.77,0,.52,0,1-.06,1.53-1.26,0-.48,1-.07,1.8.1,1.11.21,2.23.24,3.28a4.21,4.21,0,0,1-.39.8c-1-.28-2.1-.55-3.13-.81a17.78,17.78,0,0,0-.7-2c-.07-.26-.21-.52-.28-.79-.37-.47-.74-1-1.12-1.47,0-.79,0-1.53,0-2.33,0-.47,0-1-1.08-2.25-1,.39-2.1.76-3.15,1.13C133.57,86.27,133,85.92,132.21,85.5Z"/><path class="cls-8" d="M142.67,105.81c.37-.74.73-1.16,1.36-1a1.62,1.62,0,0,1,1.27,2,2.69,2.69,0,0,1-2.66-.25C142.66,106.18,142.66,106,142.67,105.81Z"/><path class="cls-11" d="M95.34,261.58c-.59-.65-.87-2.73,0-2.79.38.94,1.75.18,1.56,1.74C96.34,260.88,95.81,261.23,95.34,261.58Z"/><path class="cls-11" d="M95.28,253.29c-.74-.23-.43-1.23-.27-1.72.15-1.07.31-2.29.52-3.43,1.38.61,1.33,2.54,1.28,4.18C96.28,252.67,95.75,253,95.28,253.29Z"/><path class="cls-11" d="M103.48,105.87l-1.36,1.36c-.45.47-.9,1-1.37,1.49a3.05,3.05,0,0,0-.86,1.91,5,5,0,0,0,.22,1.41,5,5,0,0,1-.22-1.41,3.05,3.05,0,0,1,.86-1.91c.47-.52.92-1,1.37-1.49Z"/><path class="cls-11" d="M103.62,104.68c.65-.82,1.79-1.38,1.65-2.94.34-.48.76-1,1.11-1.48s.78-.68,1.18-1,.79-.66,1.2-1a17.86,17.86,0,0,1,2.53-.89c.59-.88,2-1.28,2.86-2.31.92-.39,1.85-.79,2.8-1.12.07.54.39.93,1.29,1.17l-.42.15a39.53,39.53,0,0,0-6.08,3,14,14,0,0,0-3.36,2.68c-.46.46-.86,1-1.28,1.46s-.82,1-1.25,1.52c-.6.37-1.15.83-1.73,1.26Z"/><path class="cls-11" d="M131.14,87.93c0,.32,0,.69.05,1-1.06.36-2,.67-3.1,1.09s-1.38-.29-2.13-.7A50.7,50.7,0,0,1,131.14,87.93Z"/><path class="cls-9" d="M97.76,279.89c-1.7-1.11-.88-3.52-1.19-5.35a16.2,16.2,0,0,0,1.79-.36C98.15,276.15,97.94,278.05,97.76,279.89Z"/><path class="cls-9" d="M99.82,239.39c-.26-.58-1.32-.25,0-2.07a14.24,14.24,0,0,1,.52,1.37Z"/><path class="cls-9" d="M91.49,230.55c-.58-.8-1.21-1.69-1.78-2.49l-1,0c.11-.71.17-1.35.28-2.07l-.25-1,1-1.33c-.82-3-.45-7.56-.15-10.34.81-1.19.11-3.8.9-6.85l.48,0a10.19,10.19,0,0,0,1,5.49l.48,0c0-1.08,0-2.3,0-3.44,0-.65,0-1.36,0-2h-.26c.12-1.07.25-2.07.32-3.14-.26-.44-.46-.88-.72-1.39l1-1.32c-.52-.88,0-2.22-.47-3.1.27-.78.57-1.62.85-2.39a2.2,2.2,0,0,0,.46.38c-.78,2.11,1.49,2.5-.07,3.43l0,1.72c-.08.92-.2,1.85-.27,2.71.2.93.44,1.88.69,2.82-.17.78-.34,1.56-.57,2.34A13.92,13.92,0,0,1,94,210c-.27.63-.55,1.34-.77,2,.31.58.19,1.36-.57,3.13-.26-.37-.52-.74-.73-1.11-.82,2,.24,2.31.18,3.09.09,1.3-.19,2.79.22,3.81,0,2,0,3.94,0,5.88,0,.93,0,1.79,0,2.72C92,229.85,91.76,230.2,91.49,230.55Z"/><path class="cls-9" d="M92.88,189c0-.72-.12-1.36-.2-2.08h.26c0-.64-.11-1.37-.2-2.08l-.48,0c0-.65,0-1.36.07-2,.09-1.14.24-2.35.39-3.41a3.73,3.73,0,0,1-.2-1.73c.18-.63.36-1.12.54-1.67.37,1.3,1.11,1.49.91,3.76-.15,1.28-.3,2.48-.39,3.77v.35c.12,1,.25,2.09.38,3.09-.08.72-.2,1.35-.27,2.06l-.85,2C92.85,190.33,92.87,189.69,92.88,189Z"/><path class="cls-9" d="M100.22,182.89A4.44,4.44,0,0,1,99,181.47c.18-.63.35-1.11.53-1.67-.14,1,.79.33,1.2,2.06Z"/><path class="cls-9" d="M93.05,163c0-1.88,0-3.78,0-5.51.07-.55.15-1.1.22-1.44a.84.84,0,0,1,0-.13L93,155.8l-.49-.14-.88-.28a16.07,16.07,0,0,1-1.5-.6c-.12-.07-.21-.1-.29-.14l-.25-.13-.23-.16a.62.62,0,0,1-.17-.11l-.07-.06,0,0,0,0h0l3.14,3.46h0l0,0,.07-.06.25-.22a21.81,21.81,0,0,1,2.55-1.8c.53-.43.56-1.24,1.52-1.5.28-.1.57-.23.85-.35l.47-.22.5-.24a19.61,19.61,0,0,0,5.23-5.83,12.27,12.27,0,0,0,1.28-1.75l.29-.46c.09-.15.17-.32.25-.48l.47-1a16.83,16.83,0,0,1-.58,2.19l-.39,1.08a10,10,0,0,1-.48,1c-.81,1.15-1.3,2-2,2.91a10.54,10.54,0,0,1-3.67,2.91L97.38,155l-1.2,1c-.57.51-1,.9-1.43,1.26a6.7,6.7,0,0,0-1,1.17l-.26.18-.13.08-.07,0h0l-4.2-4.64h0l0,0,0,0a.46.46,0,0,0,.07.07,1.13,1.13,0,0,0,.18.12,3.18,3.18,0,0,0,.53.31c.08,0,.22.11.34.16l.37.16.82.31c.31.12.63.22.95.31s.71.22,1.08.32l1.14.31c.28.06.16,0,.18,0h0l0,0a2.64,2.64,0,0,0-.2.55c-.08.24-.15.52-.22.81.47,1.11-.31,2.57-.6,3.37s-.33,1.35-.43,2Z"/><path class="cls-9" d="M102.89,159.68c.34-.16.71-.28,1-.45a23.63,23.63,0,0,0,2.28-3l.91-.83a17.55,17.55,0,0,0,5.55-4.61,4.84,4.84,0,0,1,.48,1.17c-.64,1-1.45,2.08-2.19,3-.55.66-1.14,1.3-1.75,1.92s-1.25,1.19-1.92,1.74c-1.39.79-1.53,1.81-3,2.54l-1,.17-.48.08a2.75,2.75,0,0,1-.39,0,11.72,11.72,0,0,1-1.37-.07C101.57,160.88,102,160.45,102.89,159.68Z"/><path class="cls-13" d="M109.81,148.07a9.41,9.41,0,0,0,.51-1l.23.13a9.32,9.32,0,0,0,.73-1.61,6.65,6.65,0,0,0,.26-1.3c0-.42.08-.82.15-1.29s.11-1,.24-1.63c.22-.88.31-2.36.91-2.11a7.27,7.27,0,0,0,.25-1.66,4.17,4.17,0,0,0-.13-1.09,6.68,6.68,0,0,0-.32-.86l-.41-.77a20.17,20.17,0,0,0,.19-4.83,16.41,16.41,0,0,1,0-3.79,2.1,2.1,0,0,0,0-.71.91.91,0,0,0-.18-.44,1.55,1.55,0,0,0-.84-.5c-.7-.2-1.6-.17-2.17-.33-.11-.77.83-1,1.22-1.35,0-.29,0-.57,0-.85a7.3,7.3,0,0,1,0-.8,6,6,0,0,1-.62-.69c.17-.53.63-1-.37-1.69.18-.33.29-.63.49-1-.29-.34-.57-.7-.84-1.07a8.25,8.25,0,0,0,1.06-1.3,8,8,0,0,0,.43-.75c.13-.27.21-.57.32-.86a15.45,15.45,0,0,1,1.07-1.41,1.22,1.22,0,0,0,.81-.25,1.59,1.59,0,0,0,.49-.63,14.78,14.78,0,0,1,.93-2l.53-.36c.56.26,1,.52,1.55.8l1.27-1c.44-.32.86-.68,1.33-1,.43-.55.81-1.09,1.28-1.67l1.66-.9-.23-.71c.33-.3.75-.57,1.08-.9.45-.14.93-.26,1.41-.39s1-.24,1.43-.34c.58-.91,1.29-1.78,2-2.71l1-.16c.38,1.28.78,1.16,1.13,1.12.59-.4.18-1,.19-1.57.24-.46.94-.81.7-.31.35.66.93,1.71,2.18,1.55.63-.21,1.32-.43,2-.62a6.17,6.17,0,0,0,2.41.37c.78,0,1.63-.05,2.41-.05l0,1.53a11.67,11.67,0,0,0-1.4.56c.14,1.16.28,2.32.35,3.54v.26l-.94,0h-.33c-1.06-.06-2.12-.12-3.16-.09l-.65,0-1.8.18c-.41.32-.6.87-1.17.89l-1.16.18c-.59-.19-1.22-.27-1.88-.42-1,.27-2.33.3-3.28,1.1.3.41.61.87.9,1.28l2.53-.35c-.49.79-1.86.87-1.58,1.68-.48.17-.9.37-1.34.54l-1.23.55a22.62,22.62,0,0,0-3.46,3.76c1.35-1,1.79-.15,2.32.11a2.93,2.93,0,0,0,0,.84c-.42.08-.85.1-1.3.16l1,1.5c-.19.24-.41.44-.57.69a4.06,4.06,0,0,0-.63-.52,1.17,1.17,0,0,1-.68.5,3.21,3.21,0,0,1-.74.06,1.28,1.28,0,0,0-.61.12c-.14.1-.21.28-.16.6l.2.18a5,5,0,0,0-.38.42l-.19.21-.16.22a5.06,5.06,0,0,0-.14,1c.36.23.72.45,1.1.65,0,.08-.13.17-.16.25a1.34,1.34,0,0,1-.12.24,2,2,0,0,0-.09.22l-.06.11a1,1,0,0,0,0,.18q-.54,0-1.05,0a5.48,5.48,0,0,0-1.06.13c-.23-.15-.3-.27-.31-.41a2.18,2.18,0,0,1,0-.43c.09-.22.07-.42-.63-.66a8.42,8.42,0,0,0-1,.33,4.51,4.51,0,0,0-.07.53.46.46,0,0,0,.07.27.86.86,0,0,0,.31.28c-.08,2,.18,4.17.36,7.31,0,.76,0,1.53,0,2.31,0,.39,0,.85,0,1.27s0,.84-.07,1.31-.13.76-.2,1.14l-.24,1.34c-.09.85-.16,1.75-.3,2.63s-.28,1.77-.5,2.6a27.66,27.66,0,0,1-1.61,3.11l-.43,1c-.21.43-.31.76-.55,1.27a5,5,0,0,1-.55.88,6.19,6.19,0,0,1-1.18,1.18C110,150,109.63,150,109.81,148.07Z"/><path class="cls-9" d="M112.5,147.09a27.59,27.59,0,0,0,1.19-3.34c.22-.83.35-1.72.5-2.6s.21-1.78.3-2.63c.51-.55,1-1,1.42-1.47-.34-.35-.63-.68-1-1,0-.47,0-.86.07-1.31s0-.88,0-1.27c0-.78,0-1.55,0-2.31.53-.36,1.07-.63,1.55-1a14,14,0,0,1,.25,1.44c0,.36,0,.78.05,1.17s0,.77,0,1.23c0,.9,0,1.73,0,2.79l0,.4c0,.47,0,1-.11,1.59l-.18,1.75c-.12,1.16-.35,2.3-.58,3.48-.38.92-.76,1.79-1.14,2.63s-.86,1.62-1.3,2.41C113.26,148.38,112.91,147.74,112.5,147.09Z"/><path class="cls-9" d="M107,137.17c.14-.61.25-1.12.35-1.65s.14-1,.18-1.41a15.11,15.11,0,0,0,0-2.31,11.17,11.17,0,0,0-.78-3.33,11.17,11.17,0,0,1,.78,3.33,15.11,15.11,0,0,1,0,2.31q-.06.67-.18,1.41C107.22,136.05,107.11,136.56,107,137.17Z"/><path class="cls-10" d="M115.37,122.43c.7.24.72.44.63.66a2.18,2.18,0,0,0,0,.43c0,.14.08.26.31.41a5.48,5.48,0,0,1,1.06-.13q.51,0,1.05,0a2.68,2.68,0,0,1,.07.27l0,.17a1.21,1.21,0,0,1,0,.19,2.59,2.59,0,0,1-.58.25l-1.26-.15a.81.81,0,0,0,0,.61,1.54,1.54,0,0,0,.24.46,1.37,1.37,0,0,1,.23.43.64.64,0,0,1-.09.52c-.06.46-.11,1.11-.17,1.68s-.12,1.32-.18,2c-.48.36-1,.63-1.55,1-.18-3.14-.44-5.34-.36-7.31a.86.86,0,0,1-.31-.28.46.46,0,0,1-.07-.27,4.51,4.51,0,0,1,.07-.53A8.42,8.42,0,0,1,115.37,122.43Z"/><path class="cls-9" d="M117,126.52a.64.64,0,0,0,.09-.52,1.37,1.37,0,0,0-.23-.43,1.54,1.54,0,0,1-.24-.46.81.81,0,0,1,0-.61l1.26.15c-.07.51-.14,1.16-.18,1.91Z"/><path class="cls-9" d="M105.86,122.93l.14-.52c0-.17.12-.34.17-.51.12-.33.22-.68.36-1l.46.12a6.15,6.15,0,0,1,.13.86,1.62,1.62,0,0,1-.14.56,6,6,0,0,1-.44.9A3.29,3.29,0,0,0,105.86,122.93Z"/><path class="cls-9" d="M103.88,117.68a11.88,11.88,0,0,1,1.13-1,14.45,14.45,0,0,1,1.18-.88l.14-.23a13.71,13.71,0,0,1,1-2.1,7.47,7.47,0,0,1-.55-1.35c.12-.23.22-.46.32-.69s.19-.44.28-.67c.18-.44.32-.92.53-1.36a8.81,8.81,0,0,1,.76-1.35,6.83,6.83,0,0,1,1.29-1.29c-.49-.33,0-.67.49-1s.9-.7.25-1.12c1.4-2,3.59-3,5.73-3.58,1.09-.32,2.16-.6,3.21-1a11.19,11.19,0,0,0,3-1.52c.81-.28,2-.25,2.49-.8-.64-.58-1.83-.18-2-.84l-.16-.78,1.44-.57,1.45-.53a6.18,6.18,0,0,1,1.19.55c0,.6-.07,1.25-.07,1.84-2.14,2.15-3.21,3.18-5.1,3.77-.35.23-.72.46-1.08.71s-.71.52-1,.78l1.22-.17c.42-.05.83-.07,1.23-.09l.4,1.43c-.33.33-.75.6-1.08.9-.62.22-1.25.43-1.8.68-.31.1-.62.18-.93.26l-.94.28c-1.31,1-2.1,2-3.34,3.09l.15.22-.53.36a26,26,0,0,0-2.78,2.33c-.4.5-.73,1-1.07,1.5-.31.23-.63.51-1,.74l-.27.46-.24.48c-.16.32-.35.62-.49.93a6.18,6.18,0,0,1-.08.66,15.35,15.35,0,0,0-1,1.38l-.67-.32a9.81,9.81,0,0,0-.73.71l-.71.72C104.72,118.72,104.29,118.25,103.88,117.68Z"/><path class="cls-10" d="M119.79,116a22.62,22.62,0,0,1,3.46-3.76l1.23-.55c.44-.17.86-.37,1.34-.54-.28-.81,1.09-.89,1.58-1.68l-2.53.35c-.29-.41-.6-.87-.9-1.28,1-.8,2.28-.83,3.28-1.1.66.15,1.29.23,1.88.42l1.16-.18c.57,0,.76-.57,1.17-.89l1.8-.18c-.17.49-.32,1-.46,1.59.55-.06,1.2-.1,1.83-.15h.26l0,.74c0,.53.05,1,.07,1.53.44,1.3.87,1.49.71,2-.36.23-.78.41-1.12.6l-1-1.21c-1.23.12-2.54,0-3.16,1.11l.18,1.26c-.95.14-1.8.31-2.68.5l-1.19.58c-.35.2-.76.39-1.09.58a2,2,0,0,1-.69.68,4.73,4.73,0,0,1-.79.37c-.24.23-.5.44-.75.65s-.48.42-.71.64-.64.34-.93.56l-1-1.5c.45-.06.88-.08,1.3-.16a2.93,2.93,0,0,1,0-.84C121.58,115.85,121.14,115,119.79,116Z"/><path class="cls-9" d="M130.63,114.05l-.18-1.26c.62-1.07,1.93-1,3.16-1.11l1,1.21c-.64.2-1.31.42-1.92.64C132.44,114,131.3,113.89,130.63,114.05Z"/><path class="cls-9" d="M133.26,106.61l.65,0c1,0,2.1,0,3.16.09L134.89,108h-.26c-.63,0-1.28.09-1.83.15C132.94,107.65,133.09,107.1,133.26,106.61Z"/><path class="cls-9" d="M135,110.31c0-.53-.05-1-.07-1.53.78.22,1.48.45,2.2.64a4.13,4.13,0,0,1-.31.8c-.37.7-.78,1.36-1.11,2.07C135.86,111.8,135.43,111.61,135,110.31Z"/><path class="cls-9" d="M138.34,106.37c1.95-.31,3.23-1,4.33-.56,0,.21,0,.37,0,.79a8.88,8.88,0,0,0-.71,1c-1.23-.32-2.38-.69-3.59-1Z"/><path class="cls-12" d="M96.57,274.54c-.29-.92-.58-1.77-.81-2.69,0-.36,0-.71,0-1.07h1c.49.71,1,1.35,1.58,2,0,.42,0,.92,0,1.34A16.2,16.2,0,0,1,96.57,274.54Z"/><path class="cls-12" d="M92.09,217.09c.06-.78-1-1.11-.18-3.09.21.37.47.74.73,1.11C92.48,215.75,92.31,216.46,92.09,217.09Z"/><path class="cls-12" d="M121.33,94.21a7.76,7.76,0,0,0,3.6-2.87l-.25-1.79c.43-.09.86-.15,1.28-.22.75.41,1.09,1.15,2.13.7s2-.73,3.1-1.09c.18.41.29.82.47,1.23.87,1.48-.23,1.73-1.46,2s-2.6.4-2.16,1.48c.63-.13,1.25-.33,1.88-.45-.34.73.7.89.81,1.41a5.92,5.92,0,0,1-.27.56q-.75.08-1.5.18t-1.5.21l-.38.06a6.18,6.18,0,0,0-1.19-.55,1.62,1.62,0,0,0-1.72-.9c-.68.06-1.38.34-1.92.38A3.55,3.55,0,0,0,121.33,94.21Z"/><path class="cls-12" d="M134.89,108l2.18-1.38h.33c-.12.91-.17,1.86-.28,2.77-.72-.19-1.42-.42-2.2-.64Z"/><path class="cls-12" d="M137,90.35v-.21l1.47,0c.38.47.75,1,1.12,1.47l-2.59.05Z"/><path class="cls-10" d="M114.49,138.52l.24-1.34c.07-.38.14-.76.2-1.14.35.33.64.66,1,1C115.45,137.49,115,138,114.49,138.52Z"/><path class="cls-10" d="M117.74,122.12a5.06,5.06,0,0,1,.14-1l.16-.22.19-.21a5,5,0,0,1,.38-.42l-.2-.18c0-.32,0-.5.16-.6a1.28,1.28,0,0,1,.61-.12,3.21,3.21,0,0,0,.74-.06,1.17,1.17,0,0,0,.68-.5,4.06,4.06,0,0,1,.63.52c-.58,1-.62,1.68-1.2,2a8,8,0,0,0-1.19,1.49C118.46,122.57,118.1,122.35,117.74,122.12Z"/><path class="cls-10" d="M113.48,115.66c.33-.39.72-.74,1.06-1.07a9.16,9.16,0,0,1,1.41.11,4.78,4.78,0,0,0,1.39-1c.38-.35.68-.75,1-1.11a3.33,3.33,0,0,1,2.63-1.4l.22.49c-.2.13-.4.26-.59.4l-.55.43c-.37.28-.7.6-1,.92a9.8,9.8,0,0,1-.93.85c-.35.27-.71.56-1.11.83l-.56.42-.29.21-.27.22-.55.43-.49.43Z"/><path class="cls-10" d="M114.55,109.06c1.24-1,2-2.09,3.34-3.09l.94-.28c.31-.08.62-.16.93-.26.55-.25,1.18-.46,1.8-.68l.23.71-1.66.9c-.47.58-.85,1.12-1.28,1.67-.47.33-.89.69-1.33,1l-1.27,1c-.53-.28-1-.54-1.55-.8Z"/><path class="cls-10" d="M119.79,102.68c.9-1.4,1.5-1.57,2.12-1.49,1.89-.59,3-1.62,5.1-3.77h1.45l1.44,0c.17.25.27.5.44.75l.11,1.26c.24-.5-.46-.15-.7.31,0,.53.4,1.17-.19,1.57-.35,0-.75.16-1.13-1.12l-1,.16c-.66.93-1.37,1.8-2,2.71-.47.1-1,.21-1.43.34s-1,.25-1.41.39l-.4-1.43c-.4,0-.81,0-1.23.09Z"/><path class="cls-10" d="M133.43,96.67l.74,0c.8-.64,1.61-1.31,2.43-1.92l.37,0c1.2-.08,2.39-.21,3.57-.32,1,.26,2.12.53,3.13.81l0,.47c.47.85.88,1.71,1.28,2.56-.68.78-1.43,1.52-2.1,2.25a5,5,0,0,0,.63.54h1.07c1.54.66.71,1.86.89,2.82l-1.39,1c-.63-.17-1,.25-1.36,1-1.1-.48-2.38.25-4.33.56-.07-1.22-.21-2.38-.35-3.54a11.67,11.67,0,0,1,1.4-.56l0-1.53c-.78,0-1.63,0-2.41.05a6.17,6.17,0,0,1-2.41-.37v-.27c-.09-.52-.25-1-.34-1.51a9.46,9.46,0,0,0-1.12-.67A10.21,10.21,0,0,0,133.43,96.67Z"/><path class="cls-10" d="M136.58,88.35c.63-.17,1.27-.36,1.89-.58,0,.8,0,1.54,0,2.33l-1.47,0A12.74,12.74,0,0,0,136.58,88.35Z"/><path class="cls-13" d="M100.08,159.06c-.2-.49-.39-.95-.57-1.32a1.53,1.53,0,0,0-.29-.43.32.32,0,0,0-.09,0c.18,0-.48-.11-.87-.2l-1.19-.24c-.75-.16-1.55-.37-2.26-.55s-1.32-.33-2-.53l-.53-.16-.64-.2-.71-.27a5.41,5.41,0,0,1-.63-.24c-.14-.06-.3-.16-.42-.2l-.32-.17c-.1-.05-.23-.16-.29-.19a.74.74,0,0,1-.2-.16l0,0v0h0L96.2,162h0l0,0,.07,0,.14.08,1,1.12,0,0h0l-8.32-9.18h0l0,0,0,.05.08.07a.78.78,0,0,0,.18.11,2.27,2.27,0,0,0,.25.18c.18.1.34.15.61.29a5.21,5.21,0,0,0,.74.3c.27.1.6.24.91.34l.47.14c.17,0,.3.08.5.15q.57.18,1.14.33c.39.11.74.18,1.17.29s.88.23,1.33.33l1.33.28,1.49.32,1.51.3s0,0,0,0v.06a10.66,10.66,0,0,0-.21,1.19A1.84,1.84,0,0,1,100.08,159.06Z"/><path class="cls-13" d="M127.08,95.58l.38-.06q.75-.12,1.5-.21t1.5-.18c.1.31.28.66.38,1-.27.46-.61.91-.94,1.38l-1.44,0H127C127,96.83,127.07,96.18,127.08,95.58Z"/><path class="cls-13" d="M134.75,93l.77,0a11.18,11.18,0,0,0,1.07.49v1.27c-.82.61-1.63,1.28-2.43,1.92l-.74,0v-.26a19.64,19.64,0,0,0-.86-2.22C133.32,93.75,134.07,93.4,134.75,93Z"/><path class="cls-11" d="M118.24,95.14c.58-.47,1.16-.93,1.77-1.34-.31-.52-.54-1.11-.85-1.62.47-.15,1-.27,1.45-.41s1-.26,1.45-.36c.63-.42.47-.82,1-1.27.41-.2.84-.33,1.17-.51l.43-.08.25,1.79a7.76,7.76,0,0,1-3.6,2.87,3.55,3.55,0,0,1,.92.3l1.93-.44c1.38-.7,1.77.25,1.71,1l-1.45.53-1.44.57.16.78c-.53.18-1,.41-1.48.61a3.76,3.76,0,0,1-1.39.44,7.59,7.59,0,0,1-1.26,0,5.07,5.07,0,0,0-3.17.6c-.61-.38.51-1,.42-1.27.73-.5,1.42-.88,2.17-1.39Z"/><path class="cls-7" d="M119.16,92.18l-.31-1.24,2.12-.45c.71-.13,1.41-.25,2.11-.35-.55.45-.39.85-1,1.27-.47.1-1,.22-1.45.36S119.63,92,119.16,92.18Z"/><path class="cls-8" d="M79.32,222.89l0-2.09C79.28,221.44,80.29,221,79.32,222.89Z"/><path class="cls-8" d="M111.79,94.27a7.19,7.19,0,0,1,1.26-1.17,12.85,12.85,0,0,1,1.72-1,15,15,0,0,1,2-.76,11.35,11.35,0,0,1,2-.36l.31,1.24-1.16.31-.57.15-.59.18c-.78.24-1.58.46-2.37.75-.42.1-.86.19-1.31.31Z"/><path class="cls-11" d="M101.44,113.88a7.14,7.14,0,0,1,.51-2.24,8.19,8.19,0,0,1,.78-1.33c1.26.15,1.26.81.84,1.53A7.83,7.83,0,0,1,101.44,113.88Z"/><path class="cls-11" d="M87.39,235.6c.27-.5.53-.92.75-1.42.52.45,1.37.62,1,1.76-.11.64-.22,1.14-.27,1.71C87.86,237.62,88.61,236,87.39,235.6Z"/><path class="cls-9" d="M93.06,176c.08-.64-.44-1-.68-1.48.13-.56.21-1.13.34-1.69l-.67-2.4.56-.67c-.41-1.17,0-2.7,0-4,.25-.69.46-1.37.67-2-.05.56.41,1,.64,1.4-.11,1.54-.2,3.16-.28,4.71a11.2,11.2,0,0,1-.63,3C93,173.62,93.67,174,93.06,176Z"/></g></g></g><path class="cls-2" d="M143.24,110.08a33.41,33.41,0,0,0-17.63,3.71,35.41,35.41,0,0,0-15.77,16.6,34.36,34.36,0,0,0-1.65,4.41,35.26,35.26,0,0,0-1.52,9.3c0,.81,0,1.51,0,2.26l0,2.23c0,1.49,0,3,0,4.46,0,2.25,0,4.51,0,6.76l-2.12,0-4.31.06-8.61.14-2,0,0,1.89.4,30.14.36,30.15c.11,10.05.3,20.1.45,30.14l.5,30.15a.21.21,0,1,0,.42,0l.51-30.15c.14-10,.33-20.09.44-30.14l.36-30.15.38-28.18,6.71.11,4.31.06,4.31.05,2.16,0V162c0-3,0-5.95,0-8.92,0-1.49,0-3,0-4.46l0-2.23c0-.73,0-1.51,0-2.19a32.2,32.2,0,0,1,2.39-12.28,29.57,29.57,0,0,1,1.82-3.81,34.43,34.43,0,0,1,5-6.83,35.31,35.31,0,0,1,6.61-5.42,35.67,35.67,0,0,1,3.8-2.06l1-.44a9.63,9.63,0,0,1,1-.42c.68-.24,1.35-.53,2.05-.74a37.25,37.25,0,0,1,8.63-1.67.2.2,0,0,0,.19-.19A.21.21,0,0,0,143.24,110.08Z"/></g></g></svg>